{
.appVersion = "1352";
DisplayStrings = (
"/dotbelowcomb/dieresisbelowcomb/commaaccentcomb/macronbelowcomb/macronbelowcomb/dong",
"/dotbelowcomb/dieresisbelowcomb/commaaccentcomb/macronbelowcomb",
biografie
);
classes = (
{
automatic = 1;

glyphs = (
{
glyphname = .notdef;
lastChange = "2021-11-03 00:41:46 +0000";
layers = (
{
layerId = "E44713F8-1D5D-4793-848D-DDEAC8E4A199";
paths = (
{
closed = 1;
nodes = (
"443 -5 LINE",
"454 7 LINE",
"454 575 LINE",
"443 587 LINE",
"52 587 LINE",
"40 575 LINE",
"40 7 LINE",
"52 -5 LINE"
);
},
{
closed = 1;
nodes = (
"147 139 LINE",
"230 292 LINE",
"147 443 LINE",
"158 465 LINE",
"241 314 LINE",
"326 466 LINE",
"339 443 LINE",
"253 290 LINE",
"339 139 LINE",
"326 117 LINE",
"241 267 LINE",
"158 117 LINE"
);
},
{
closed = 1;
nodes = (
"66 561 LINE",
"430 561 LINE",
"430 21 LINE",
"66 21 LINE"
);
},
{
closed = 1;
nodes = (
"407 40 LINE",
"407 538 LINE",
"87 538 LINE",
"87 40 LINE"
);
}
);
width = 494;
}
);
note = .notdef;
},
{
glyphname = A;
lastChange = "2021-10-28 15:25:37 +0000";
layers = (
{
anchors = (
{
name = bottom;
position = "{342, 0}";
},
{
name = ogonek;
position = "{588, 10}";
},
{
name = top;
position = "{875, 545}";
}
);
layerId = "E44713F8-1D5D-4793-848D-DDEAC8E4A199";
paths = (
{
closed = 1;
nodes = (
"209 -31 OFFCURVE",
"287 33 OFFCURVE",
"361 106 CURVE SMOOTH",
"410 154 OFFCURVE",
"464 215 OFFCURVE",
"519 276 CURVE",
"545 273 OFFCURVE",
"570 269 OFFCURVE",
"595 265 CURVE",
"553 213 OFFCURVE",
"516 160 OFFCURVE",
"490 114 CURVE SMOOTH",
"475 88 OFFCURVE",
"464 60 OFFCURVE",
"464 38 CURVE SMOOTH",
"464 15 OFFCURVE",
"477 -2 OFFCURVE",
"509 -2 CURVE SMOOTH",
"558 -2 OFFCURVE",
"592 19 OFFCURVE",
"653 91 CURVE SMOOTH",
"656 95 OFFCURVE",
"657 100 OFFCURVE",
"657 105 CURVE SMOOTH",
"657 108 OFFCURVE",
"656 111 OFFCURVE",
"653 111 CURVE",
"626 80 OFFCURVE",
"598 47 OFFCURVE",
"559 25 CURVE SMOOTH",
"546 18 OFFCURVE",
"536 15 OFFCURVE",
"529 15 CURVE SMOOTH",
"517 15 OFFCURVE",
"512 23 OFFCURVE",
"512 35 CURVE SMOOTH",
"512 49 OFFCURVE",
"519 69 OFFCURVE",
"529 86 CURVE SMOOTH",
"548 122 OFFCURVE",
"595 188 OFFCURVE",
"648 255 CURVE",
"729 239 LINE SMOOTH",
"735 238 OFFCURVE",
"741 241 OFFCURVE",
"741 244 CURVE SMOOTH",
"741 246 OFFCURVE",
"739 249 OFFCURVE",
"733 250 CURVE SMOOTH",
"708 256 OFFCURVE",
"683 262 OFFCURVE",
"658 267 CURVE",
"705 327 OFFCURVE",
"756 386 OFFCURVE",
"794 427 CURVE SMOOTH",
"825 460 OFFCURVE",
"866 501 OFFCURVE",
"884 515 CURVE",
"846 515 OFFCURVE",
"784 469 OFFCURVE",
"741 426 CURVE SMOOTH",
"697 383 OFFCURVE",
"649 331 OFFCURVE",
"605 277 CURVE",
"581 282 OFFCURVE",
"556 286 OFFCURVE",
"532 290 CURVE",
"640 407 OFFCURVE",
"754 519 OFFCURVE",
"855 526 CURVE",
"868 524 OFFCURVE",
"891 521 OFFCURVE",
"912 521 CURVE SMOOTH",
"939 521 OFFCURVE",
"964 527 OFFCURVE",
"966 550 CURVE SMOOTH",
"966 559 OFFCURVE",
"960 563 OFFCURVE",
"954 563 CURVE SMOOTH",
"952 563 LINE",
"937 547 OFFCURVE",
"885 542 OFFCURVE",
"826 542 CURVE SMOOTH",
"718 542 OFFCURVE",
"626 563 OFFCURVE",
"526 568 CURVE SMOOTH",
"515 569 OFFCURVE",
"504 569 OFFCURVE",
"493 569 CURVE SMOOTH",
"405 569 OFFCURVE",
"349 546 OFFCURVE",
"311 495 CURVE SMOOTH",
"303 483 OFFCURVE",
"298 466 OFFCURVE",
"298 448 CURVE SMOOTH",
"298 429 OFFCURVE",
"304 409 OFFCURVE",
"318 394 CURVE SMOOTH",
"323 389 OFFCURVE",
"333 383 OFFCURVE",
"342 383 CURVE SMOOTH",
"345 383 OFFCURVE",
"349 384 OFFCURVE",
"352 387 CURVE",
"347 387 OFFCURVE",
"339 394 OFFCURVE",
"334 400 CURVE SMOOTH",
"330 407 OFFCURVE",
"328 415 OFFCURVE",
"328 425 CURVE SMOOTH",
"328 439 OFFCURVE",
"333 456 OFFCURVE",
"345 473 CURVE SMOOTH",
"387 531 OFFCURVE",
"473 545 OFFCURVE",
"564 545 CURVE SMOOTH",
"658 545 OFFCURVE",
"757 529 OFFCURVE",
"814 530 CURVE",
"714 507 OFFCURVE",
"611 402 OFFCURVE",
"511 293 CURVE",
"449 301 OFFCURVE",
"388 306 OFFCURVE",
"326 306 CURVE SMOOTH",
"238 306 OFFCURVE",
"156 291 OFFCURVE",
"81 258 CURVE SMOOTH",
"-6 218 OFFCURVE",
"-58 144 OFFCURVE",
"-58 81 CURVE SMOOTH",
"-58 3 OFFCURVE",
"20 -31 OFFCURVE",
"91 -31 CURVE SMOOTH"
);
},
{
closed = 1;
nodes = (
"9 7 OFFCURVE",
"-35 49 OFFCURVE",
"-35 100 CURVE SMOOTH",
"-35 147 OFFCURVE",
"3 202 OFFCURVE",
"79 236 CURVE SMOOTH",
"178 282 OFFCURVE",
"287 286 OFFCURVE",
"388 286 CURVE SMOOTH",
"425 286 OFFCURVE",
"462 283 OFFCURVE",
"498 279 CURVE",
"445 221 OFFCURVE",
"393 164 OFFCURVE",
"342 118 CURVE SMOOTH",
"238 23 OFFCURVE",
"162 7 OFFCURVE",
"95 7 CURVE SMOOTH"
);
}
);
width = 653;
}
);
note = A;
unicode = 0041;
},
{
glyphname = AE;
lastChange = "2021-10-28 15:25:37 +0000";
layers = (
{
anchors = (
{
name = bottom;
position = "{486, 0}";
},
{
name = top;
position = "{962, 561}";
}
);
layerId = "E44713F8-1D5D-4793-848D-DDEAC8E4A199";
paths = (
{
closed = 1;
nodes = (
"756 -46 OFFCURVE",
"899 74 OFFCURVE",
"950 153 CURVE SMOOTH",
"966 177 OFFCURVE",
"974 201 OFFCURVE",
"974 219 CURVE SMOOTH",
"974 246 OFFCURVE",
"957 264 OFFCURVE",
"919 264 CURVE SMOOTH",
"820 264 OFFCURVE",
"721 161 OFFCURVE",
"694 89 CURVE",
"692 81 OFFCURVE",
"693 76 OFFCURVE",
"696 76 CURVE SMOOTH",
"698 76 OFFCURVE",
"699 77 OFFCURVE",
"701 78 CURVE",
"733 158 OFFCURVE",
"823 232 OFFCURVE",
"880 242 CURVE SMOOTH",
"886 243 OFFCURVE",
"892 244 OFFCURVE",
"897 244 CURVE SMOOTH",
"921 244 OFFCURVE",
"931 231 OFFCURVE",
"931 214 CURVE SMOOTH",
"931 212 OFFCURVE",
"930 209 OFFCURVE",
"930 206 CURVE",
"913 106 OFFCURVE",
"767 -28 OFFCURVE",
"650 -28 CURVE SMOOTH",
"585 -28 OFFCURVE",
"565 -1 OFFCURVE",
"565 39 CURVE SMOOTH",
"565 50 OFFCURVE",
"567 62 OFFCURVE",
"569 74 CURVE SMOOTH",
"574 105 OFFCURVE",
"586 137 OFFCURVE",
"605 166 CURVE SMOOTH",
"613 179 OFFCURVE",
"623 193 OFFCURVE",
"634 207 CURVE SMOOTH",
"679 262 OFFCURVE",
"742 305 OFFCURVE",
"805 314 CURVE",
"809 296 OFFCURVE",
"827 283 OFFCURVE",
"865 283 CURVE SMOOTH",
"880 283 OFFCURVE",
"891 287 OFFCURVE",
"894 294 CURVE",
"894 297 OFFCURVE",
"892 301 OFFCURVE",
"886 305 CURVE SMOOTH",
"870 314 OFFCURVE",
"846 319 OFFCURVE",
"821 318 CURVE",
"826 338 LINE",
"847 389 OFFCURVE",
"875 436 OFFCURVE",
"913 471 CURVE SMOOTH",
"972 525 OFFCURVE",
"1032 552 OFFCURVE",
"1075 552 CURVE SMOOTH",
"1125 552 OFFCURVE",
"1139 535 OFFCURVE",
"1139 515 CURVE SMOOTH",
"1139 511 OFFCURVE",
"1139 508 OFFCURVE",
"1138 504 CURVE SMOOTH",
"1127 458 OFFCURVE",
"1086 418 OFFCURVE",
"1028 392 CURVE SMOOTH",
"1019 388 OFFCURVE",
"1012 382 OFFCURVE",
"1012 379 CURVE SMOOTH",
"1012 377 OFFCURVE",
"1013 376 OFFCURVE",
"1017 376 CURVE SMOOTH",
"1020 376 OFFCURVE",
"1024 376 OFFCURVE",
"1030 378 CURVE SMOOTH",
"1093 397 OFFCURVE",
"1145 443 OFFCURVE",
"1162 498 CURVE SMOOTH",
"1164 505 OFFCURVE",
"1165 511 OFFCURVE",
"1165 517 CURVE SMOOTH",
"1165 554 OFFCURVE",
"1129 573 OFFCURVE",
"1086 577 CURVE SMOOTH",
"1079 578 OFFCURVE",
"1072 578 OFFCURVE",
"1066 578 CURVE SMOOTH",
"1031 578 OFFCURVE",
"997 570 OFFCURVE",
"965 556 CURVE",
"962 561 OFFCURVE",
"958 563 OFFCURVE",
"954 563 CURVE SMOOTH",
"952 563 LINE",
"937 547 OFFCURVE",
"885 542 OFFCURVE",
"826 542 CURVE SMOOTH",
"718 542 OFFCURVE",
"626 563 OFFCURVE",
"526 568 CURVE SMOOTH",
"515 569 OFFCURVE",
"504 569 OFFCURVE",
"493 569 CURVE SMOOTH",
"405 569 OFFCURVE",
"349 546 OFFCURVE",
"311 495 CURVE SMOOTH",
"303 483 OFFCURVE",
"298 466 OFFCURVE",
"298 448 CURVE SMOOTH",
"298 429 OFFCURVE",
"304 409 OFFCURVE",
"318 394 CURVE SMOOTH",
"323 389 OFFCURVE",
"333 383 OFFCURVE",
"342 383 CURVE SMOOTH",
"345 383 OFFCURVE",
"349 384 OFFCURVE",
"352 387 CURVE",
"347 387 OFFCURVE",
"339 394 OFFCURVE",
"334 400 CURVE SMOOTH",
"330 407 OFFCURVE",
"328 415 OFFCURVE",
"328 425 CURVE SMOOTH",
"328 439 OFFCURVE",
"333 456 OFFCURVE",
"345 473 CURVE SMOOTH",
"387 531 OFFCURVE",
"473 545 OFFCURVE",
"564 545 CURVE SMOOTH",
"658 545 OFFCURVE",
"757 529 OFFCURVE",
"814 530 CURVE",
"713 507 OFFCURVE",
"611 402 OFFCURVE",
"510 293 CURVE",
"449 301 OFFCURVE",
"387 306 OFFCURVE",
"326 306 CURVE SMOOTH",
"238 306 OFFCURVE",
"156 291 OFFCURVE",
"81 258 CURVE SMOOTH",
"-6 218 OFFCURVE",
"-58 144 OFFCURVE",
"-58 81 CURVE SMOOTH",
"-58 3 OFFCURVE",
"20 -31 OFFCURVE",
"91 -31 CURVE SMOOTH",
"209 -31 OFFCURVE",
"287 33 OFFCURVE",
"361 106 CURVE SMOOTH",
"410 154 OFFCURVE",
"464 215 OFFCURVE",
"519 276 CURVE",
"548 272 OFFCURVE",
"577 268 OFFCURVE",
"605 263 CURVE",
"559 208 OFFCURVE",
"525 150 OFFCURVE",
"516 91 CURVE SMOOTH",
"514 80 OFFCURVE",
"513 70 OFFCURVE",
"513 61 CURVE SMOOTH",
"513 -6 OFFCURVE",
"556 -46 OFFCURVE",
"637 -46 CURVE SMOOTH"
);
},
{
closed = 1;
nodes = (
"9 7 OFFCURVE",
"-35 49 OFFCURVE",
"-35 100 CURVE SMOOTH",
"-35 147 OFFCURVE",
"3 202 OFFCURVE",
"79 236 CURVE SMOOTH",
"178 282 OFFCURVE",
"287 286 OFFCURVE",
"388 286 CURVE SMOOTH",
"425 286 OFFCURVE",
"462 283 OFFCURVE",
"498 279 CURVE",
"445 222 OFFCURVE",
"393 164 OFFCURVE",
"342 118 CURVE SMOOTH",
"238 23 OFFCURVE",
"162 7 OFFCURVE",
"95 7 CURVE SMOOTH"
);
},
{
closed = 1;
nodes = (
"743 338 OFFCURVE",
"786 383 OFFCURVE",
"817 418 CURVE",
"807 396 OFFCURVE",
"802 374 OFFCURVE",
"802 354 CURVE SMOOTH",
"802 336 OFFCURVE",
"802 324 OFFCURVE",
"804 317 CURVE",
"772 315 OFFCURVE",
"738 306 OFFCURVE",
"703 292 CURVE"
);
},
{
closed = 1;
nodes = (
"587 281 OFFCURVE",
"559 286 OFFCURVE",
"531 290 CURVE",
"639 407 OFFCURVE",
"754 519 OFFCURVE",
"855 526 CURVE",
"866 524 OFFCURVE",
"885 521 OFFCURVE",
"904 520 CURVE",
"829 464 OFFCURVE",
"704 376 OFFCURVE",
"615 275 CURVE"
);
}
);
width = 971;
}
);
note = AE;
unicode = 00C6;
},
{
glyphname = B;
lastChange = "2021-10-28 15:25:37 +0000";
layers = (
{
layerId = "E44713F8-1D5D-4793-848D-DDEAC8E4A199";
paths = (
{
closed = 1;
nodes = (
"-16 1 OFFCURVE",
"44 10 OFFCURVE",
"101 10 CURVE SMOOTH",
"119 10 OFFCURVE",
"135 9 OFFCURVE",
"151 8 CURVE SMOOTH",
"219 2 OFFCURVE",
"287 -7 OFFCURVE",
"341 -7 CURVE SMOOTH",
"409 -7 OFFCURVE",
"473 3 OFFCURVE",
"530 35 CURVE SMOOTH",
"586 68 OFFCURVE",
"637 131 OFFCURVE",
"637 194 CURVE SMOOTH",
"637 212 OFFCURVE",
"633 230 OFFCURVE",
"623 247 CURVE SMOOTH",
"606 275 OFFCURVE",
"574 290 OFFCURVE",
"542 290 CURVE",
"656 310 OFFCURVE",
"719 391 OFFCURVE",
"719 454 CURVE SMOOTH",
"719 485 OFFCURVE",
"706 515 OFFCURVE",
"673 537 CURVE",
"711 567 OFFCURVE",
"750 586 OFFCURVE",
"788 586 CURVE SMOOTH",
"820 586 OFFCURVE",
"854 567 OFFCURVE",
"862 541 CURVE",
"862 590 OFFCURVE",
"818 603 OFFCURVE",
"783 603 CURVE SMOOTH",
"741 603 OFFCURVE",
"695 583 OFFCURVE",
"648 550 CURVE",
"615 564 OFFCURVE",
"567 572 OFFCURVE",
"503 572 CURVE SMOOTH",
"240 572 OFFCURVE",
"75 394 OFFCURVE",
"75 275 CURVE SMOOTH",
"75 219 OFFCURVE",
"111 176 OFFCURVE",
"190 170 CURVE SMOOTH",
"195 170 OFFCURVE",
"199 172 OFFCURVE",
"199 174 CURVE SMOOTH",
"199 175 OFFCURVE",
"197 177 OFFCURVE",
"192 177 CURVE SMOOTH",
"132 182 OFFCURVE",
"106 214 OFFCURVE",
"106 257 CURVE SMOOTH",
"106 369 OFFCURVE",
"281 559 OFFCURVE",
"506 559 CURVE SMOOTH",
"561 559 OFFCURVE",
"601 550 OFFCURVE",
"629 536 CURVE",
"550 475 OFFCURVE",
"470 381 OFFCURVE",
"407 290 CURVE SMOOTH",
"352 212 OFFCURVE",
"278 79 OFFCURVE",
"215 35 CURVE",
"298 39 OFFCURVE",
"374 161 OFFCURVE",
"438 250 CURVE SMOOTH",
"500 340 OFFCURVE",
"575 450 OFFCURVE",
"652 519 CURVE",
"669 503 OFFCURVE",
"677 483 OFFCURVE",
"677 461 CURVE SMOOTH",
"677 452 OFFCURVE",
"675 443 OFFCURVE",
"673 433 CURVE SMOOTH",
"657 376 OFFCURVE",
"622 333 OFFCURVE",
"550 302 CURVE SMOOTH",
"536 295 OFFCURVE",
"522 294 OFFCURVE",
"507 294 CURVE SMOOTH",
"482 292 OFFCURVE",
"469 286 OFFCURVE",
"469 274 CURVE SMOOTH",
"469 270 OFFCURVE",
"470 266 OFFCURVE",
"472 261 CURVE",
"491 278 OFFCURVE",
"509 281 OFFCURVE",
"530 281 CURVE SMOOTH",
"572 281 OFFCURVE",
"586 248 OFFCURVE",
"586 215 CURVE SMOOTH",
"586 199 OFFCURVE",
"583 182 OFFCURVE",
"578 169 CURVE SMOOTH",
"546 83 OFFCURVE",
"469 26 OFFCURVE",
"383 11 CURVE SMOOTH",
"365 8 OFFCURVE",
"348 7 OFFCURVE",
"331 7 CURVE SMOOTH",
"303 7 OFFCURVE",
"278 10 OFFCURVE",
"254 13 CURVE SMOOTH",
"147 27 OFFCURVE",
"78 44 OFFCURVE",
"32 44 CURVE SMOOTH",
"19 44 OFFCURVE",
"8 43 OFFCURVE",
"-2 40 CURVE SMOOTH",
"-35 30 OFFCURVE",
"-46 8 OFFCURVE",
"-46 -10 CURVE SMOOTH",
"-46 -19 OFFCURVE",
"-42 -27 OFFCURVE",
"-37 -31 CURVE"
);
}
);
width = 659;
}
);
note = B;
unicode = 0042;
},
{
glyphname = B_ride;
lastChange = "2021-11-03 00:41:46 +0000";
layers = (
{
layerId = "E44713F8-1D5D-4793-848D-DDEAC8E4A199";
paths = (
{
closed = 1;
nodes = (
"1414 -428 OFFCURVE",
"1550 -368 OFFCURVE",
"1550 -252 CURVE SMOOTH",
"1550 -107 OFFCURVE",
"1378 -77 OFFCURVE",
"1243 -77 CURVE SMOOTH",
"1112 -77 OFFCURVE",
"984 -107 OFFCURVE",
"843 -136 CURVE SMOOTH",
"718 -164 OFFCURVE",
"571 -207 OFFCURVE",
"433 -212 CURVE",
"459 -184 OFFCURVE",
"474 -151 OFFCURVE",
"474 -120 CURVE SMOOTH",
"474 -72 OFFCURVE",
"428 -46 OFFCURVE",
"366 -46 CURVE SMOOTH",
"297 -46 OFFCURVE",
"207 -79 OFFCURVE",
"133 -156 CURVE",
"131 -161 OFFCURVE",
"130 -162 OFFCURVE",
"130 -166 CURVE SMOOTH",
"130 -169 OFFCURVE",
"131 -171 OFFCURVE",
"133 -171 CURVE SMOOTH",
"136 -171 LINE",
"207 -97 OFFCURVE",
"292 -67 OFFCURVE",
"359 -67 CURVE SMOOTH",
"417 -67 OFFCURVE",
"458 -90 OFFCURVE",
"458 -126 CURVE SMOOTH",
"458 -159 OFFCURVE",
"441 -189 OFFCURVE",
"413 -212 CURVE",
"412 -212 LINE SMOOTH",
"353 -212 OFFCURVE",
"298 -198 OFFCURVE",
"280 -151 CURVE",
"280 -148 OFFCURVE",
"279 -148 OFFCURVE",
"276 -148 CURVE SMOOTH",
"274 -148 OFFCURVE",
"271 -149 OFFCURVE",
"271 -153 CURVE SMOOTH",
"271 -198 OFFCURVE",
"325 -226 OFFCURVE",
"387 -230 CURVE",
"344 -256 OFFCURVE",
"284 -272 OFFCURVE",
"226 -272 CURVE SMOOTH",
"118 -272 OFFCURVE",
"7 -228 OFFCURVE",
"7 -123 CURVE SMOOTH",
"7 -11 OFFCURVE",
"110 34 OFFCURVE",
"212 34 CURVE SMOOTH",
"346 34 OFFCURVE",
"449 -2 OFFCURVE",
"585 -2 CURVE SMOOTH",
"684 -2 OFFCURVE",
"841 39 OFFCURVE",
"841 189 CURVE SMOOTH",
"841 235 OFFCURVE",
"818 271 OFFCURVE",
"771 284 CURVE",
"766 287 OFFCURVE",
"753 290 OFFCURVE",
"738 290 CURVE",
"846 310 OFFCURVE",
"910 382 OFFCURVE",
"915 444 CURVE SMOOTH",
"918 477 OFFCURVE",
"909 510 OFFCURVE",
"877 533 CURVE",
"979 623 OFFCURVE",
"1105 679 OFFCURVE",
"1240 679 CURVE SMOOTH",
"1340 679 OFFCURVE",
"1385 620 OFFCURVE",
"1385 555 CURVE SMOOTH",
"1385 514 OFFCURVE",
"1367 471 OFFCURVE",
"1332 440 CURVE",
"1334 437 OFFCURVE",
"1337 436 OFFCURVE",
"1341 436 CURVE SMOOTH",
"1362 436 OFFCURVE",
"1412 474 OFFCURVE",
"1420 528 CURVE SMOOTH",
"1423 542 OFFCURVE",
"1424 554 OFFCURVE",
"1424 566 CURVE SMOOTH",
"1424 654 OFFCURVE",
"1357 702 OFFCURVE",
"1269 702 CURVE SMOOTH",
"1114 702 OFFCURVE",
"969 633 OFFCURVE",
"856 546 CURVE",
"823 563 OFFCURVE",
"772 572 OFFCURVE",
"700 572 CURVE SMOOTH",
"437 572 OFFCURVE",
"272 394 OFFCURVE",
"272 275 CURVE SMOOTH",
"272 220 OFFCURVE",
"308 177 OFFCURVE",
"387 171 CURVE SMOOTH",
"392 171 OFFCURVE",
"396 172 OFFCURVE",
"396 174 CURVE SMOOTH",
"396 175 OFFCURVE",
"394 176 OFFCURVE",
"389 177 CURVE SMOOTH",
"329 182 OFFCURVE",
"302 214 OFFCURVE",
"302 257 CURVE SMOOTH",
"302 370 OFFCURVE",
"477 559 OFFCURVE",
"702 559 CURVE SMOOTH",
"768 559 OFFCURVE",
"810 548 OFFCURVE",
"836 530 CURVE",
"705 420 OFFCURVE",
"592 271 OFFCURVE",
"490 143 CURVE SMOOTH",
"436 75 OFFCURVE",
"395 48 OFFCURVE",
"394 46 CURVE",
"489 38 OFFCURVE",
"674 338 OFFCURVE",
"854 512 CURVE",
"866 497 OFFCURVE",
"873 479 OFFCURVE",
"873 459 CURVE SMOOTH",
"873 451 OFFCURVE",
"871 442 OFFCURVE",
"869 433 CURVE SMOOTH",
"854 376 OFFCURVE",
"818 333 OFFCURVE",
"746 302 CURVE",
"733 295 OFFCURVE",
"718 294 OFFCURVE",
"704 294 CURVE SMOOTH",
"679 292 OFFCURVE",
"666 286 OFFCURVE",
"666 274 CURVE SMOOTH",
"666 270 OFFCURVE",
"667 266 OFFCURVE",
"669 261 CURVE",
"687 279 OFFCURVE",
"705 280 OFFCURVE",
"727 280 CURVE SMOOTH",
"740 280 LINE",
"774 274 OFFCURVE",
"786 246 OFFCURVE",
"786 216 CURVE SMOOTH",
"786 79 OFFCURVE",
"661 16 OFFCURVE",
"538 16 CURVE SMOOTH",
"425 16 OFFCURVE",
"298 51 OFFCURVE",
"184 51 CURVE SMOOTH",
"74 51 OFFCURVE",
"-39 2 OFFCURVE",
"-39 -121 CURVE SMOOTH",
"-39 -153 OFFCURVE",
"-28 -184 OFFCURVE",
"-3 -213 CURVE SMOOTH",
"39 -267 OFFCURVE",
"131 -290 OFFCURVE",
"218 -290 CURVE SMOOTH",
"302 -290 OFFCURVE",
"367 -266 OFFCURVE",
"412 -231 CURVE",
"551 -230 OFFCURVE",
"689 -187 OFFCURVE",
"845 -153 CURVE SMOOTH",
"961 -125 OFFCURVE",
"1087 -102 OFFCURVE",
"1227 -102 CURVE SMOOTH",
"1321 -102 OFFCURVE",
"1504 -120 OFFCURVE",
"1504 -252 CURVE SMOOTH",
"1504 -364 OFFCURVE",
"1362 -417 OFFCURVE",
"1276 -417 CURVE SMOOTH",
"1237 -417 OFFCURVE",
"1202 -408 OFFCURVE",
"1164 -397 CURVE",
"1159 -397 OFFCURVE",
"1156 -395 OFFCURVE",
"1153 -395 CURVE SMOOTH",
"1148 -395 LINE",
"1148 -412 OFFCURVE",
"1235 -428 OFFCURVE",
"1278 -428 CURVE SMOOTH"
);
},
{
closed = 1;
nodes = (
"1860 -172 OFFCURVE",
"1970 -110 OFFCURVE",
"2042 25 CURVE SMOOTH",
"2057 51 OFFCURVE",
"2071 98 OFFCURVE",
"2071 138 CURVE SMOOTH",
"2071 182 OFFCURVE",
"2053 221 OFFCURVE",
"1998 221 CURVE SMOOTH",
"1878 221 OFFCURVE",
"1819 66 OFFCURVE",
"1812 38 CURVE",
"1811 36 OFFCURVE",
"1811 34 OFFCURVE",
"1811 33 CURVE SMOOTH",
"1811 23 OFFCURVE",
"1814 11 OFFCURVE",
"1815 11 CURVE SMOOTH",
"1812 11 OFFCURVE",
"1886 210 OFFCURVE",
"1996 210 CURVE SMOOTH",
"2034 210 OFFCURVE",
"2045 184 OFFCURVE",
"2045 156 CURVE SMOOTH",
"2045 112 OFFCURVE",
"2020 54 OFFCURVE",
"2007 28 CURVE SMOOTH",
"1945 -93 OFFCURVE",
"1845 -161 OFFCURVE",
"1763 -161 CURVE SMOOTH",
"1669 -161 OFFCURVE",
"1637 -109 OFFCURVE",
"1637 -43 CURVE SMOOTH",
"1637 25 OFFCURVE",
"1659 90 OFFCURVE",
"1692 148 CURVE",
"1761 166 OFFCURVE",
"1838 208 OFFCURVE",
"1886 253 CURVE SMOOTH",
"1901 269 OFFCURVE",
"1914 285 OFFCURVE",
"1914 303 CURVE SMOOTH",
"1914 318 OFFCURVE",
"1902 335 OFFCURVE",
"1878 335 CURVE SMOOTH",
"1786 335 OFFCURVE",
"1689 249 OFFCURVE",
"1633 157 CURVE SMOOTH",
"1624 143 OFFCURVE",
"1617 126 OFFCURVE",
"1610 112 CURVE",
"1589 87 OFFCURVE",
"1568 64 OFFCURVE",
"1547 48 CURVE",
"1531 33 OFFCURVE",
"1512 22 OFFCURVE",
"1500 22 CURVE SMOOTH",
"1492 22 OFFCURVE",
"1487 27 OFFCURVE",
"1487 38 CURVE SMOOTH",
"1487 44 OFFCURVE",
"1489 52 OFFCURVE",
"1492 62 CURVE SMOOTH",
"1502 95 OFFCURVE",
"1551 179 OFFCURVE",
"1591 230 CURVE SMOOTH",
"1745 440 OFFCURVE",
"1853 587 OFFCURVE",
"2047 587 CURVE SMOOTH",
"2101 587 OFFCURVE",
"2147 561 OFFCURVE",
"2155 528 CURVE",
"2158 520 OFFCURVE",
"2159 510 OFFCURVE",
"2159 500 CURVE SMOOTH",
"2159 472 OFFCURVE",
"2150 441 OFFCURVE",
"2135 433 CURVE",
"2145 421 OFFCURVE",
"2178 449 OFFCURVE",
"2183 494 CURVE SMOOTH",
"2184 502 OFFCURVE",
"2185 509 OFFCURVE",
"2185 515 CURVE SMOOTH",
"2185 591 OFFCURVE",
"2121 620 OFFCURVE",
"2058 620 CURVE SMOOTH",
"1853 620 OFFCURVE",
"1640 366 OFFCURVE",
"1533 216 CURVE SMOOTH",
"1491 157 OFFCURVE",
"1437 102 OFFCURVE",
"1387 59 CURVE SMOOTH",
"1362 38 OFFCURVE",
"1346 30 OFFCURVE",
"1337 30 CURVE SMOOTH",
"1329 30 OFFCURVE",
"1326 37 OFFCURVE",
"1326 44 CURVE SMOOTH",
"1326 48 OFFCURVE",
"1327 53 OFFCURVE",
"1328 57 CURVE SMOOTH",
"1337 90 OFFCURVE",
"1368 143 OFFCURVE",
"1414 194 CURVE SMOOTH",
"1455 239 OFFCURVE",
"1497 279 OFFCURVE",
"1537 298 CURVE",
"1556 310 OFFCURVE",
"1581 320 OFFCURVE",
"1597 325 CURVE SMOOTH",
"1606 328 OFFCURVE",
"1611 330 OFFCURVE",
"1611 332 CURVE SMOOTH",
"1611 335 OFFCURVE",
"1606 336 OFFCURVE",
"1596 336 CURVE SMOOTH",
"1573 336 OFFCURVE",
"1558 335 OFFCURVE",
"1543 330 CURVE SMOOTH",
"1463 307 OFFCURVE",
"1378 225 OFFCURVE",
"1333 169 CURVE SMOOTH",
"1317 148 OFFCURVE",
"1304 126 OFFCURVE",
"1296 108 CURVE",
"1266 75 OFFCURVE",
"1238 48 OFFCURVE",
"1209 30 CURVE SMOOTH",
"1195 23 OFFCURVE",
"1182 19 OFFCURVE",
"1173 19 CURVE SMOOTH",
"1162 19 OFFCURVE",
"1155 24 OFFCURVE",
"1155 35 CURVE SMOOTH",
"1155 39 OFFCURVE",
"1156 45 OFFCURVE",
"1158 51 CURVE SMOOTH",
"1173 90 OFFCURVE",
"1217 153 OFFCURVE",
"1225 166 CURVE SMOOTH",
"1274 235 OFFCURVE",
"1330 302 OFFCURVE",
"1360 335 CURVE",
"1360 335 OFFCURVE",
"1309 328 OFFCURVE",
"1273 290 CURVE SMOOTH",
"1232 251 OFFCURVE",
"1168 180 OFFCURVE",
"1130 115 CURVE",
"1114 97 OFFCURVE",
"1050 20 OFFCURVE",
"1014 20 CURVE SMOOTH",
"1006 20 OFFCURVE",
"1001 24 OFFCURVE",
"1001 33 CURVE SMOOTH",
"1001 37 OFFCURVE",
"1002 43 OFFCURVE",
"1005 51 CURVE SMOOTH",
"1020 97 OFFCURVE",
"1068 161 OFFCURVE",
"1109 210 CURVE SMOOTH",
"1200 312 LINE",
"1204 315 OFFCURVE",
"1205 320 OFFCURVE",
"1192 320 CURVE",
"1182 318 OFFCURVE",
"1164 317 OFFCURVE",
"1144 317 CURVE SMOOTH",
"1118 317 OFFCURVE",
"1088 319 OFFCURVE",
"1061 323 CURVE",
"1110 387 OFFCURVE",
"1178 456 OFFCURVE",
"1246 456 CURVE",
"1257 461 OFFCURVE",
"1262 470 OFFCURVE",
"1262 479 CURVE SMOOTH",
"1262 490 OFFCURVE",
"1252 502 OFFCURVE",
"1236 502 CURVE SMOOTH",
"1198 502 OFFCURVE",
"1139 446 OFFCURVE",
"1089 387 CURVE",
"1036 317 OFFCURVE",
"927 172 OFFCURVE",
"879 112 CURVE SMOOTH",
"845 71 OFFCURVE",
"807 30 OFFCURVE",
"761 8 CURVE SMOOTH",
"753 4 OFFCURVE",
"749 2 OFFCURVE",
"749 1 CURVE SMOOTH",
"749 0 OFFCURVE",
"749 0 OFFCURVE",
"751 0 CURVE SMOOTH",
"802 0 OFFCURVE",
"851 54 OFFCURVE",
"879 87 CURVE SMOOTH",
"935 153 OFFCURVE",
"1000 244 OFFCURVE",
"1043 300 CURVE SMOOTH",
"1045 303 OFFCURVE",
"1046 307 OFFCURVE",
"1050 310 CURVE",
"1065 302 OFFCURVE",
"1102 299 OFFCURVE",
"1132 299 CURVE SMOOTH",
"1150 299 OFFCURVE",
"1165 300 OFFCURVE",
"1173 302 CURVE",
"1099 254 OFFCURVE",
"973 146 OFFCURVE",
"956 67 CURVE SMOOTH",
"954 59 OFFCURVE",
"953 51 OFFCURVE",
"953 44 CURVE SMOOTH",
"953 18 OFFCURVE",
"966 0 OFFCURVE",
"999 0 CURVE SMOOTH",
"1038 0 OFFCURVE",
"1082 43 OFFCURVE",
"1114 77 CURVE",
"1111 67 OFFCURVE",
"1110 57 OFFCURVE",
"1110 48 CURVE SMOOTH",
"1110 20 OFFCURVE",
"1123 0 OFFCURVE",
"1151 0 CURVE SMOOTH",
"1194 0 OFFCURVE",
"1235 25 OFFCURVE",
"1281 74 CURVE",
"1278 62 OFFCURVE",
"1276 51 OFFCURVE",
"1276 42 CURVE SMOOTH",
"1276 15 OFFCURVE",
"1290 -2 OFFCURVE",
"1314 -2 CURVE",
"1343 2 OFFCURVE",
"1369 23 OFFCURVE",
"1397 51 CURVE",
"1405 57 OFFCURVE",
"1438 90 OFFCURVE",
"1461 115 CURVE",
"1448 90 OFFCURVE",
"1438 61 OFFCURVE",
"1438 38 CURVE SMOOTH",
"1438 15 OFFCURVE",
"1449 -2 OFFCURVE",
"1479 -2 CURVE SMOOTH",
"1501 -2 OFFCURVE",
"1524 11 OFFCURVE",
"1542 26 CURVE SMOOTH",
"1560 39 OFFCURVE",
"1581 59 OFFCURVE",
"1597 77 CURVE",
"1592 62 OFFCURVE",
"1589 49 OFFCURVE",
"1588 38 CURVE SMOOTH",
"1585 20 OFFCURVE",
"1583 3 OFFCURVE",
"1583 -14 CURVE SMOOTH",
"1583 -102 OFFCURVE",
"1630 -172 OFFCURVE",
"1752 -172 CURVE SMOOTH"
);
},
{
closed = 1;
nodes = (
"1732 208 LINE SMOOTH",
"1783 279 OFFCURVE",
"1842 318 OFFCURVE",
"1873 318 CURVE SMOOTH",
"1886 318 OFFCURVE",
"1892 312 OFFCURVE",
"1892 304 CURVE SMOOTH",
"1892 286 OFFCURVE",
"1868 256 OFFCURVE",
"1845 239 CURVE",
"1806 215 OFFCURVE",
"1747 184 OFFCURVE",
"1704 167 CURVE"
);
}
);
width = 2080;
}
);
note = B_ride;
},
{
glyphname = C;
lastChange = "2021-10-28 15:26:12 +0000";
layers = (
{
anchors = (
{
name = bottom;
position = "{194, -34}";
},
{
name = top;
position = "{638, 567}";
}
);
layerId = "E44713F8-1D5D-4793-848D-DDEAC8E4A199";
paths = (
{
closed = 1;
nodes = (
"322 -41 OFFCURVE",
"467 78 OFFCURVE",
"518 158 CURVE SMOOTH",
"534 183 OFFCURVE",
"542 206 OFFCURVE",
"542 225 CURVE SMOOTH",
"542 251 OFFCURVE",
"525 269 OFFCURVE",
"488 270 CURVE SMOOTH",
"389 270 OFFCURVE",
"289 166 OFFCURVE",
"262 94 CURVE SMOOTH",
"260 87 OFFCURVE",
"261 82 OFFCURVE",
"264 82 CURVE SMOOTH",
"266 82 OFFCURVE",
"267 83 OFFCURVE",
"269 84 CURVE",
"301 163 OFFCURVE",
"391 238 OFFCURVE",
"448 248 CURVE SMOOTH",
"454 249 OFFCURVE",
"460 250 OFFCURVE",
"465 250 CURVE SMOOTH",
"489 250 OFFCURVE",
"499 237 OFFCURVE",
"499 220 CURVE SMOOTH",
"499 217 OFFCURVE",
"498 215 OFFCURVE",
"498 212 CURVE",
"481 110 OFFCURVE",
"335 -20 OFFCURVE",
"217 -20 CURVE SMOOTH",
"177 -20 OFFCURVE",
"143 15 OFFCURVE",
"143 80 CURVE SMOOTH",
"143 149 OFFCURVE",
"176 220 OFFCURVE",
"225 287 CURVE",
"233 287 LINE SMOOTH",
"436 287 OFFCURVE",
"717 384 OFFCURVE",
"717 513 CURVE SMOOTH",
"717 557 OFFCURVE",
"677 567 OFFCURVE",
"638 567 CURVE SMOOTH",
"520 567 OFFCURVE",
"311 454 OFFCURVE",
"185 306 CURVE",
"120 314 OFFCURVE",
"75 341 OFFCURVE",
"75 390 CURVE SMOOTH",
"75 483 OFFCURVE",
"200 493 OFFCURVE",
"254 495 CURVE SMOOTH",
"269 496 OFFCURVE",
"285 496 OFFCURVE",
"301 496 CURVE SMOOTH",
"322 496 OFFCURVE",
"344 493 OFFCURVE",
"362 493 CURVE SMOOTH",
"366 493 OFFCURVE",
"369 494 OFFCURVE",
"369 497 CURVE SMOOTH",
"369 508 OFFCURVE",
"266 511 OFFCURVE",
"252 511 CURVE SMOOTH",
"198 511 OFFCURVE",
"27 499 OFFCURVE",
"27 392 CURVE SMOOTH",
"27 331 OFFCURVE",
"87 300 OFFCURVE",
"173 290 CURVE",
"118 221 OFFCURVE",
"82 145 OFFCURVE",
"82 71 CURVE SMOOTH",
"82 -8 OFFCURVE",
"142 -41 OFFCURVE",
"202 -41 CURVE SMOOTH"
);
},
{
closed = 1;
nodes = (
"348 442 OFFCURVE",
"529 553 OFFCURVE",
"639 553 CURVE SMOOTH",
"666 553 OFFCURVE",
"694 547 OFFCURVE",
"694 516 CURVE SMOOTH",
"694 404 OFFCURVE",
"420 303 OFFCURVE",
"237 303 CURVE"
);
}
);
width = 534;
}
);
note = C;
unicode = 0043;
},
{
glyphname = D;
lastChange = "2021-10-28 15:26:12 +0000";
layers = (
{
anchors = (
{
name = bottom;
position = "{366, 0}";
},
{
name = center;
position = "{436, 300}";
},
{
name = top;
position = "{783, 603}";
}
);
layerId = "E44713F8-1D5D-4793-848D-DDEAC8E4A199";
paths = (
{
closed = 1;
nodes = (
"-16 1 OFFCURVE",
"44 10 OFFCURVE",
"101 10 CURVE SMOOTH",
"119 10 OFFCURVE",
"135 9 OFFCURVE",
"151 8 CURVE SMOOTH",
"219 2 OFFCURVE",
"287 -7 OFFCURVE",
"341 -7 CURVE SMOOTH",
"397 -7 OFFCURVE",
"450 5 OFFCURVE",
"502 21 CURVE SMOOTH",
"607 51 OFFCURVE",
"758 194 OFFCURVE",
"758 366 CURVE SMOOTH",
"758 448 OFFCURVE",
"725 502 OFFCURVE",
"670 534 CURVE",
"709 566 OFFCURVE",
"749 586 OFFCURVE",
"788 586 CURVE SMOOTH",
"820 586 OFFCURVE",
"854 567 OFFCURVE",
"862 541 CURVE",
"862 590 OFFCURVE",
"818 603 OFFCURVE",
"783 603 CURVE SMOOTH",
"740 603 OFFCURVE",
"693 581 OFFCURVE",
"644 547 CURVE",
"604 564 OFFCURVE",
"556 571 OFFCURVE",
"503 572 CURVE SMOOTH",
"240 572 OFFCURVE",
"75 394 OFFCURVE",
"75 275 CURVE SMOOTH",
"75 219 OFFCURVE",
"111 176 OFFCURVE",
"190 170 CURVE SMOOTH",
"195 170 OFFCURVE",
"199 172 OFFCURVE",
"199 174 CURVE SMOOTH",
"199 175 OFFCURVE",
"197 177 OFFCURVE",
"192 177 CURVE SMOOTH",
"132 182 OFFCURVE",
"106 214 OFFCURVE",
"106 257 CURVE SMOOTH",
"106 369 OFFCURVE",
"281 559 OFFCURVE",
"506 559 CURVE SMOOTH",
"554 559 OFFCURVE",
"594 550 OFFCURVE",
"625 533 CURVE",
"548 472 OFFCURVE",
"469 380 OFFCURVE",
"407 290 CURVE SMOOTH",
"352 212 OFFCURVE",
"278 79 OFFCURVE",
"215 35 CURVE",
"298 39 OFFCURVE",
"374 161 OFFCURVE",
"438 250 CURVE SMOOTH",
"500 338 OFFCURVE",
"573 447 OFFCURVE",
"649 517 CURVE",
"684 488 OFFCURVE",
"703 444 OFFCURVE",
"703 385 CURVE SMOOTH",
"703 369 OFFCURVE",
"702 352 OFFCURVE",
"699 334 CURVE SMOOTH",
"662 97 OFFCURVE",
"476 26 OFFCURVE",
"383 11 CURVE SMOOTH",
"365 8 OFFCURVE",
"348 7 OFFCURVE",
"331 7 CURVE SMOOTH",
"303 7 OFFCURVE",
"278 10 OFFCURVE",
"254 13 CURVE SMOOTH",
"147 27 OFFCURVE",
"78 44 OFFCURVE",
"32 44 CURVE SMOOTH",
"19 44 OFFCURVE",
"8 43 OFFCURVE",
"-2 40 CURVE SMOOTH",
"-35 30 OFFCURVE",
"-46 8 OFFCURVE",
"-46 -10 CURVE SMOOTH",
"-46 -19 OFFCURVE",
"-42 -27 OFFCURVE",
"-37 -31 CURVE"
);
}
);
width = 731;
}
);
note = D;
unicode = 0044;
},
{
glyphname = Eth;
lastChange = "2021-10-28 15:25:37 +0000";
layers = (
{
layerId = "E44713F8-1D5D-4793-848D-DDEAC8E4A199";
paths = (
{
closed = 1;
nodes = (
"-16 1 OFFCURVE",
"44 10 OFFCURVE",
"101 10 CURVE SMOOTH",
"119 10 OFFCURVE",
"135 9 OFFCURVE",
"151 8 CURVE SMOOTH",
"219 2 OFFCURVE",
"287 -7 OFFCURVE",
"341 -7 CURVE SMOOTH",
"397 -7 OFFCURVE",
"450 5 OFFCURVE",
"502 21 CURVE SMOOTH",
"607 51 OFFCURVE",
"758 194 OFFCURVE",
"758 366 CURVE SMOOTH",
"758 448 OFFCURVE",
"725 502 OFFCURVE",
"670 534 CURVE",
"709 566 OFFCURVE",
"749 586 OFFCURVE",
"788 586 CURVE SMOOTH",
"820 586 OFFCURVE",
"854 567 OFFCURVE",
"862 541 CURVE",
"862 590 OFFCURVE",
"818 603 OFFCURVE",
"783 603 CURVE SMOOTH",
"740 603 OFFCURVE",
"693 581 OFFCURVE",
"644 547 CURVE",
"604 564 OFFCURVE",
"556 571 OFFCURVE",
"503 572 CURVE SMOOTH",
"240 572 OFFCURVE",
"75 394 OFFCURVE",
"75 275 CURVE SMOOTH",
"75 219 OFFCURVE",
"111 176 OFFCURVE",
"190 170 CURVE SMOOTH",
"195 170 OFFCURVE",
"199 172 OFFCURVE",
"199 174 CURVE SMOOTH",
"199 175 OFFCURVE",
"197 177 OFFCURVE",
"192 177 CURVE SMOOTH",
"132 182 OFFCURVE",
"106 214 OFFCURVE",
"106 257 CURVE SMOOTH",
"106 369 OFFCURVE",
"281 559 OFFCURVE",
"506 559 CURVE SMOOTH",
"554 559 OFFCURVE",
"594 550 OFFCURVE",
"625 533 CURVE",
"548 472 OFFCURVE",
"469 380 OFFCURVE",
"407 290 CURVE SMOOTH",
"393 271 OFFCURVE",
"379 249 OFFCURVE",
"364 226 CURVE",
"296 226 LINE",
"279 204 LINE",
"350 204 LINE",
"306 137 OFFCURVE",
"258 65 OFFCURVE",
"215 35 CURVE",
"284 38 OFFCURVE",
"349 124 OFFCURVE",
"405 204 CURVE",
"466 204 LINE",
"483 226 LINE",
"421 226 LINE",
"438 250 LINE SMOOTH",
"500 338 OFFCURVE",
"573 447 OFFCURVE",
"649 517 CURVE",
"684 488 OFFCURVE",
"703 444 OFFCURVE",
"703 385 CURVE SMOOTH",
"703 369 OFFCURVE",
"702 352 OFFCURVE",
"699 334 CURVE SMOOTH",
"662 97 OFFCURVE",
"476 26 OFFCURVE",
"383 11 CURVE SMOOTH",
"365 8 OFFCURVE",
"348 7 OFFCURVE",
"331 7 CURVE SMOOTH",
"303 7 OFFCURVE",
"278 10 OFFCURVE",
"254 13 CURVE SMOOTH",
"147 27 OFFCURVE",
"78 44 OFFCURVE",
"32 44 CURVE SMOOTH",
"19 44 OFFCURVE",
"8 43 OFFCURVE",
"-2 40 CURVE SMOOTH",
"-35 30 OFFCURVE",
"-46 8 OFFCURVE",
"-46 -10 CURVE SMOOTH",
"-46 -19 OFFCURVE",
"-42 -27 OFFCURVE",
"-37 -31 CURVE"
);
}
);
width = 683;
}
);
note = Eth;
unicode = 00D0;
},
{
glyphname = E;
lastChange = "2021-10-28 15:26:12 +0000";
layers = (
{
anchors = (
{
name = bottom;
position = "{114, -39}";
},
{
name = ogonek;
position = "{367, 34}";
},
{
name = top;
position = "{571, 565}";
},
{
name = topleft;
position = "{20, 565}";
}
);
layerId = "E44713F8-1D5D-4793-848D-DDEAC8E4A199";
paths = (
{
closed = 1;
nodes = (
"252 -46 OFFCURVE",
"395 74 OFFCURVE",
"446 153 CURVE SMOOTH",
"462 177 OFFCURVE",
"470 201 OFFCURVE",
"470 219 CURVE SMOOTH",
"470 246 OFFCURVE",
"453 264 OFFCURVE",
"415 264 CURVE SMOOTH",
"316 264 OFFCURVE",
"217 161 OFFCURVE",
"190 89 CURVE",
"188 81 OFFCURVE",
"189 76 OFFCURVE",
"192 76 CURVE SMOOTH",
"194 76 OFFCURVE",
"195 77 OFFCURVE",
"197 78 CURVE",
"229 158 OFFCURVE",
"319 232 OFFCURVE",
"376 242 CURVE SMOOTH",
"382 243 OFFCURVE",
"388 244 OFFCURVE",
"393 244 CURVE SMOOTH",
"417 244 OFFCURVE",
"427 231 OFFCURVE",
"427 214 CURVE SMOOTH",
"427 212 OFFCURVE",
"426 209 OFFCURVE",
"426 206 CURVE",
"409 106 OFFCURVE",
"263 -28 OFFCURVE",
"146 -28 CURVE SMOOTH",
"81 -28 OFFCURVE",
"61 -1 OFFCURVE",
"61 39 CURVE SMOOTH",
"61 50 OFFCURVE",
"63 62 OFFCURVE",
"65 74 CURVE SMOOTH",
"82 181 OFFCURVE",
"193 298 OFFCURVE",
"301 314 CURVE",
"305 296 OFFCURVE",
"323 283 OFFCURVE",
"361 283 CURVE SMOOTH",
"376 283 OFFCURVE",
"387 287 OFFCURVE",
"390 294 CURVE",
"390 297 OFFCURVE",
"388 301 OFFCURVE",
"382 305 CURVE SMOOTH",
"366 314 OFFCURVE",
"342 319 OFFCURVE",
"317 318 CURVE",
"322 338 LINE",
"334 338 LINE SMOOTH",
"452 338 OFFCURVE",
"623 386 OFFCURVE",
"658 498 CURVE SMOOTH",
"660 505 OFFCURVE",
"661 511 OFFCURVE",
"661 517 CURVE SMOOTH",
"661 554 OFFCURVE",
"625 573 OFFCURVE",
"582 577 CURVE SMOOTH",
"574 578 OFFCURVE",
"565 578 OFFCURVE",
"559 578 CURVE SMOOTH",
"428 578 OFFCURVE",
"306 462 OFFCURVE",
"298 354 CURVE",
"198 363 OFFCURVE",
"114 404 OFFCURVE",
"114 473 CURVE SMOOTH",
"114 485 OFFCURVE",
"116 498 OFFCURVE",
"122 512 CURVE SMOOTH",
"138 555 OFFCURVE",
"178 565 OFFCURVE",
"209 565 CURVE SMOOTH",
"217 565 OFFCURVE",
"223 565 OFFCURVE",
"229 564 CURVE SMOOTH",
"257 562 OFFCURVE",
"286 548 OFFCURVE",
"309 524 CURVE",
"314 520 OFFCURVE",
"318 518 OFFCURVE",
"319 518 CURVE SMOOTH",
"320 518 OFFCURVE",
"321 519 OFFCURVE",
"321 520 CURVE SMOOTH",
"321 522 OFFCURVE",
"319 525 OFFCURVE",
"315 530 CURVE SMOOTH",
"288 562 OFFCURVE",
"247 578 OFFCURVE",
"217 581 CURVE SMOOTH",
"210 582 OFFCURVE",
"203 582 OFFCURVE",
"196 582 CURVE SMOOTH",
"155 582 OFFCURVE",
"107 569 OFFCURVE",
"88 518 CURVE SMOOTH",
"83 505 OFFCURVE",
"81 492 OFFCURVE",
"81 480 CURVE SMOOTH",
"81 398 OFFCURVE",
"180 349 OFFCURVE",
"298 339 CURVE",
"298 332 OFFCURVE",
"298 324 OFFCURVE",
"300 317 CURVE",
"184 313 OFFCURVE",
"30 207 OFFCURVE",
"12 91 CURVE SMOOTH",
"10 80 OFFCURVE",
"9 70 OFFCURVE",
"9 61 CURVE SMOOTH",
"9 -6 OFFCURVE",
"52 -46 OFFCURVE",
"133 -46 CURVE SMOOTH"
);
},
{
closed = 1;
nodes = (
"343 389 OFFCURVE",
"371 436 OFFCURVE",
"409 471 CURVE SMOOTH",
"468 525 OFFCURVE",
"528 552 OFFCURVE",
"571 552 CURVE SMOOTH",
"621 552 OFFCURVE",
"635 535 OFFCURVE",
"635 515 CURVE SMOOTH",
"635 511 OFFCURVE",
"635 508 OFFCURVE",
"634 504 CURVE SMOOTH",
"613 414 OFFCURVE",
"470 352 OFFCURVE",
"335 352 CURVE SMOOTH",
"328 352 LINE"
);
}
);
width = 467;
}
);
note = E;
unicode = 0045;
},
{
glyphname = F;
lastChange = "2021-10-28 15:26:12 +0000";
layers = (
{
layerId = "E44713F8-1D5D-4793-848D-DDEAC8E4A199";
paths = (
{
closed = 1;
nodes = (
"316 -24 OFFCURVE",
"426 143 OFFCURVE",
"528 306 CURVE",
"586 306 LINE",
"598 320 LINE",
"536 320 LINE",
"566 367 LINE SMOOTH",
"617 447 OFFCURVE",
"675 502 OFFCURVE",
"709 522 CURVE",
"710 522 LINE SMOOTH",
"741 519 OFFCURVE",
"773 517 OFFCURVE",
"805 517 CURVE SMOOTH",
"831 518 OFFCURVE",
"863 529 OFFCURVE",
"863 552 CURVE SMOOTH",
"863 560 OFFCURVE",
"857 563 OFFCURVE",
"852 563 CURVE SMOOTH",
"850 563 LINE",
"834 547 OFFCURVE",
"782 542 OFFCURVE",
"723 542 CURVE SMOOTH",
"616 542 OFFCURVE",
"523 563 OFFCURVE",
"424 568 CURVE SMOOTH",
"413 569 OFFCURVE",
"402 569 OFFCURVE",
"391 569 CURVE SMOOTH",
"303 569 OFFCURVE",
"246 546 OFFCURVE",
"209 495 CURVE SMOOTH",
"200 483 OFFCURVE",
"195 466 OFFCURVE",
"195 448 CURVE SMOOTH",
"195 429 OFFCURVE",
"201 409 OFFCURVE",
"215 394 CURVE SMOOTH",
"220 389 OFFCURVE",
"230 383 OFFCURVE",
"239 383 CURVE SMOOTH",
"243 383 OFFCURVE",
"247 384 OFFCURVE",
"250 387 CURVE",
"245 387 OFFCURVE",
"237 394 OFFCURVE",
"232 400 CURVE SMOOTH",
"228 407 OFFCURVE",
"225 416 OFFCURVE",
"225 426 CURVE SMOOTH",
"225 440 OFFCURVE",
"230 457 OFFCURVE",
"242 473 CURVE SMOOTH",
"284 530 OFFCURVE",
"370 546 OFFCURVE",
"460 546 CURVE SMOOTH",
"471 546 OFFCURVE",
"483 545 OFFCURVE",
"495 545 CURVE SMOOTH",
"564 542 OFFCURVE",
"629 532 OFFCURVE",
"693 524 CURVE",
"649 497 OFFCURVE",
"588 431 OFFCURVE",
"540 373 CURVE SMOOTH",
"498 320 LINE",
"418 320 LINE",
"407 306 LINE",
"487 306 LINE",
"437 240 OFFCURVE",
"392 176 OFFCURVE",
"353 135 CURVE SMOOTH",
"292 69 OFFCURVE",
"218 -7 OFFCURVE",
"129 -7 CURVE SMOOTH",
"73 -7 OFFCURVE",
"50 21 OFFCURVE",
"50 59 CURVE SMOOTH",
"50 66 OFFCURVE",
"51 73 OFFCURVE",
"52 80 CURVE SMOOTH",
"63 133 OFFCURVE",
"97 180 OFFCURVE",
"129 211 CURVE SMOOTH",
"187 270 OFFCURVE",
"281 322 OFFCURVE",
"362 322 CURVE SMOOTH",
"374 322 OFFCURVE",
"385 320 OFFCURVE",
"396 320 CURVE SMOOTH",
"400 320 OFFCURVE",
"403 321 OFFCURVE",
"403 322 CURVE SMOOTH",
"403 324 OFFCURVE",
"400 326 OFFCURVE",
"391 327 CURVE SMOOTH",
"374 330 OFFCURVE",
"357 331 OFFCURVE",
"340 331 CURVE SMOOTH",
"248 331 OFFCURVE",
"165 292 OFFCURVE",
"102 236 CURVE SMOOTH",
"48 189 OFFCURVE",
"15 128 OFFCURVE",
"15 76 CURVE SMOOTH",
"15 54 OFFCURVE",
"21 33 OFFCURVE",
"33 16 CURVE SMOOTH",
"53 -8 OFFCURVE",
"88 -24 OFFCURVE",
"141 -24 CURVE SMOOTH"
);
}
);
width = 516;
}
);
note = F;
unicode = 0046;
},
{
glyphname = G;
lastChange = "2021-10-28 15:26:12 +0000";
layers = (
{
anchors = (
{
name = bottom;
position = "{110, -213}";
},
{
name = top;
position = "{644, 565}";
}
);
layerId = "E44713F8-1D5D-4793-848D-DDEAC8E4A199";
paths = (
{
closed = 1;
nodes = (
"290 -218 OFFCURVE",
"401 -99 OFFCURVE",
"468 40 CURVE SMOOTH",
"494 94 OFFCURVE",
"514 150 OFFCURVE",
"536 202 CURVE SMOOTH",
"551 238 OFFCURVE",
"581 260 OFFCURVE",
"615 261 CURVE",
"622 264 OFFCURVE",
"626 271 OFFCURVE",
"626 278 CURVE SMOOTH",
"626 286 OFFCURVE",
"622 293 OFFCURVE",
"609 293 CURVE SMOOTH",
"574 293 OFFCURVE",
"556 259 OFFCURVE",
"530 224 CURVE SMOOTH",
"498 186 OFFCURVE",
"419 107 OFFCURVE",
"340 46 CURVE SMOOTH",
"306 20 OFFCURVE",
"242 -16 OFFCURVE",
"194 -16 CURVE SMOOTH",
"161 -16 OFFCURVE",
"135 2 OFFCURVE",
"135 57 CURVE SMOOTH",
"135 132 OFFCURVE",
"172 213 OFFCURVE",
"229 287 CURVE",
"233 287 LINE SMOOTH",
"436 287 OFFCURVE",
"717 384 OFFCURVE",
"717 513 CURVE SMOOTH",
"717 557 OFFCURVE",
"677 567 OFFCURVE",
"638 567 CURVE SMOOTH",
"520 567 OFFCURVE",
"311 454 OFFCURVE",
"185 306 CURVE",
"120 314 OFFCURVE",
"75 341 OFFCURVE",
"75 390 CURVE SMOOTH",
"75 483 OFFCURVE",
"200 493 OFFCURVE",
"254 495 CURVE SMOOTH",
"269 496 OFFCURVE",
"285 496 OFFCURVE",
"301 496 CURVE SMOOTH",
"322 496 OFFCURVE",
"344 493 OFFCURVE",
"362 493 CURVE SMOOTH",
"366 493 OFFCURVE",
"369 494 OFFCURVE",
"369 497 CURVE SMOOTH",
"369 508 OFFCURVE",
"266 511 OFFCURVE",
"252 511 CURVE SMOOTH",
"198 511 OFFCURVE",
"27 499 OFFCURVE",
"27 392 CURVE SMOOTH",
"27 331 OFFCURVE",
"87 300 OFFCURVE",
"173 290 CURVE",
"118 221 OFFCURVE",
"82 145 OFFCURVE",
"82 71 CURVE SMOOTH",
"82 -9 OFFCURVE",
"126 -37 OFFCURVE",
"180 -37 CURVE SMOOTH",
"287 -37 OFFCURVE",
"407 70 OFFCURVE",
"480 151 CURVE",
"462 124 OFFCURVE",
"442 92 OFFCURVE",
"417 51 CURVE SMOOTH",
"336 -82 OFFCURVE",
"245 -197 OFFCURVE",
"105 -197 CURVE SMOOTH",
"36 -197 OFFCURVE",
"-2 -147 OFFCURVE",
"-2 -92 CURVE SMOOTH",
"-2 -66 OFFCURVE",
"6 -39 OFFCURVE",
"18 -28 CURVE",
"17 -27 OFFCURVE",
"16 -26 OFFCURVE",
"14 -26 CURVE SMOOTH",
"-1 -26 OFFCURVE",
"-32 -58 OFFCURVE",
"-32 -102 CURVE SMOOTH",
"-32 -194 OFFCURVE",
"42 -218 OFFCURVE",
"110 -218 CURVE SMOOTH"
);
},
{
closed = 1;
nodes = (
"354 442 OFFCURVE",
"530 553 OFFCURVE",
"639 553 CURVE SMOOTH",
"666 553 OFFCURVE",
"694 547 OFFCURVE",
"694 516 CURVE SMOOTH",
"694 405 OFFCURVE",
"424 305 OFFCURVE",
"241 303 CURVE"
);
}
);
width = 584;
}
);
note = G;
unicode = 0047;
},
{
glyphname = G_room;
lastChange = "2021-11-03 00:41:46 +0000";
layers = (
{
layerId = "E44713F8-1D5D-4793-848D-DDEAC8E4A199";
paths = (
{
closed = 1;
nodes = (
"348 -262 OFFCURVE",
"454 -225 OFFCURVE",
"548 -157 CURVE SMOOTH",
"694 -46 OFFCURVE",
"782 103 OFFCURVE",
"872 238 CURVE SMOOTH",
"909 290 OFFCURVE",
"928 303 OFFCURVE",
"943 312 CURVE SMOOTH",
"959 320 OFFCURVE",
"979 323 OFFCURVE",
"995 325 CURVE",
"1002 328 OFFCURVE",
"1007 335 OFFCURVE",
"1007 341 CURVE SMOOTH",
"1007 349 OFFCURVE",
"1002 356 OFFCURVE",
"989 356 CURVE SMOOTH",
"971 356 OFFCURVE",
"954 348 OFFCURVE",
"938 336 CURVE SMOOTH",
"894 302 OFFCURVE",
"838 228 OFFCURVE",
"804 187 CURVE",
"733 110 OFFCURVE",
"620 5 OFFCURVE",
"518 5 CURVE SMOOTH",
"477 5 OFFCURVE",
"440 43 OFFCURVE",
"440 111 CURVE SMOOTH",
"440 182 OFFCURVE",
"471 257 OFFCURVE",
"522 326 CURVE",
"651 341 OFFCURVE",
"784 377 OFFCURVE",
"918 433 CURVE SMOOTH",
"976 458 OFFCURVE",
"1022 492 OFFCURVE",
"1046 528 CURVE",
"1141 543 OFFCURVE",
"1232 564 OFFCURVE",
"1279 572 CURVE SMOOTH",
"1418 595 OFFCURVE",
"1525 607 OFFCURVE",
"1632 607 CURVE SMOOTH",
"1672 607 OFFCURVE",
"1713 606 OFFCURVE",
"1755 602 CURVE SMOOTH",
"1860 594 OFFCURVE",
"2089 549 OFFCURVE",
"2076 385 CURVE SMOOTH",
"2075 378 OFFCURVE",
"2079 373 OFFCURVE",
"2083 373 CURVE SMOOTH",
"2086 373 OFFCURVE",
"2089 377 OFFCURVE",
"2089 387 CURVE SMOOTH",
"2090 395 OFFCURVE",
"2090 403 OFFCURVE",
"2090 410 CURVE SMOOTH",
"2090 571 OFFCURVE",
"1918 620 OFFCURVE",
"1774 631 CURVE SMOOTH",
"1748 633 OFFCURVE",
"1721 634 OFFCURVE",
"1692 634 CURVE SMOOTH",
"1565 634 OFFCURVE",
"1418 614 OFFCURVE",
"1291 587 CURVE SMOOTH",
"1248 577 OFFCURVE",
"1153 556 OFFCURVE",
"1053 543 CURVE",
"1059 556 OFFCURVE",
"1064 571 OFFCURVE",
"1064 585 CURVE SMOOTH",
"1064 631 OFFCURVE",
"1020 641 OFFCURVE",
"977 641 CURVE SMOOTH",
"918 641 OFFCURVE",
"840 615 OFFCURVE",
"759 572 CURVE",
"740 585 OFFCURVE",
"727 605 OFFCURVE",
"722 630 CURVE",
"720 633 OFFCURVE",
"718 633 OFFCURVE",
"715 633 CURVE SMOOTH",
"713 633 OFFCURVE",
"712 631 OFFCURVE",
"712 628 CURVE SMOOTH",
"712 599 OFFCURVE",
"722 577 OFFCURVE",
"738 561 CURVE",
"640 505 OFFCURVE",
"540 426 OFFCURVE",
"471 338 CURVE",
"451 336 OFFCURVE",
"433 336 OFFCURVE",
"413 336 CURVE SMOOTH",
"216 336 OFFCURVE",
"110 405 OFFCURVE",
"110 489 CURVE SMOOTH",
"110 564 OFFCURVE",
"182 640 OFFCURVE",
"302 640 CURVE SMOOTH",
"382 640 OFFCURVE",
"515 617 OFFCURVE",
"576 541 CURVE",
"582 536 OFFCURVE",
"582 544 OFFCURVE",
"579 553 CURVE",
"513 631 OFFCURVE",
"382 659 OFFCURVE",
"289 659 CURVE SMOOTH",
"159 659 OFFCURVE",
"69 574 OFFCURVE",
"69 489 CURVE SMOOTH",
"69 400 OFFCURVE",
"169 318 OFFCURVE",
"374 318 CURVE SMOOTH",
"402 318 OFFCURVE",
"430 318 OFFCURVE",
"459 320 CURVE",
"410 251 OFFCURVE",
"377 177 OFFCURVE",
"377 105 CURVE SMOOTH",
"377 18 OFFCURVE",
"441 -18 OFFCURVE",
"505 -18 CURVE SMOOTH",
"571 -18 OFFCURVE",
"646 23 OFFCURVE",
"708 72 CURVE",
"653 7 OFFCURVE",
"599 -52 OFFCURVE",
"544 -98 CURVE SMOOTH",
"445 -184 OFFCURVE",
"341 -245 OFFCURVE",
"241 -245 CURVE SMOOTH",
"151 -245 OFFCURVE",
"89 -193 OFFCURVE",
"67 -131 CURVE SMOOTH",
"61 -115 OFFCURVE",
"58 -95 OFFCURVE",
"58 -75 CURVE SMOOTH",
"58 -30 OFFCURVE",
"73 17 OFFCURVE",
"97 33 CURVE",
"95 35 OFFCURVE",
"92 37 OFFCURVE",
"88 37 CURVE SMOOTH",
"65 37 OFFCURVE",
"15 -16 OFFCURVE",
"15 -87 CURVE SMOOTH",
"15 -195 OFFCURVE",
"106 -248 OFFCURVE",
"202 -259 CURVE SMOOTH",
"217 -261 OFFCURVE",
"232 -262 OFFCURVE",
"248 -262 CURVE SMOOTH"
);
},
{
closed = 1;
nodes = (
"1770 -433 OFFCURVE",
"1906 -373 OFFCURVE",
"1906 -257 CURVE SMOOTH",
"1906 -112 OFFCURVE",
"1734 -82 OFFCURVE",
"1599 -82 CURVE SMOOTH",
"1468 -82 OFFCURVE",
"1340 -112 OFFCURVE",
"1199 -141 CURVE SMOOTH",
"1068 -171 OFFCURVE",
"910 -216 OFFCURVE",
"768 -216 CURVE SMOOTH",
"708 -216 OFFCURVE",
"654 -203 OFFCURVE",
"636 -156 CURVE",
"636 -153 OFFCURVE",
"635 -153 OFFCURVE",
"631 -153 CURVE SMOOTH",
"630 -153 OFFCURVE",
"626 -154 OFFCURVE",
"626 -157 CURVE SMOOTH",
"626 -208 OFFCURVE",
"690 -236 OFFCURVE",
"761 -236 CURVE SMOOTH",
"902 -236 OFFCURVE",
"1043 -194 OFFCURVE",
"1200 -157 CURVE SMOOTH",
"1317 -130 OFFCURVE",
"1443 -107 OFFCURVE",
"1583 -107 CURVE SMOOTH",
"1677 -107 OFFCURVE",
"1860 -125 OFFCURVE",
"1860 -257 CURVE SMOOTH",
"1860 -369 OFFCURVE",
"1717 -421 OFFCURVE",
"1632 -421 CURVE SMOOTH",
"1592 -421 OFFCURVE",
"1558 -413 OFFCURVE",
"1520 -402 CURVE",
"1515 -402 OFFCURVE",
"1512 -400 OFFCURVE",
"1509 -400 CURVE SMOOTH",
"1504 -400 LINE",
"1504 -417 OFFCURVE",
"1591 -433 OFFCURVE",
"1633 -433 CURVE SMOOTH"
);
},
{
closed = 1;
nodes = (
"594 423 OFFCURVE",
"676 494 OFFCURVE",
"758 544 CURVE",
"792 524 OFFCURVE",
"844 517 OFFCURVE",
"901 517 CURVE SMOOTH",
"933 517 OFFCURVE",
"968 519 OFFCURVE",
"1002 523 CURVE",
"984 502 OFFCURVE",
"956 482 OFFCURVE",
"925 464 CURVE SMOOTH",
"805 400 OFFCURVE",
"666 359 OFFCURVE",
"533 343 CURVE"
);
},
{
closed = 1;
nodes = (
"1185 13 OFFCURVE",
"1180 21 OFFCURVE",
"1180 33 CURVE SMOOTH",
"1180 101 OFFCURVE",
"1340 318 OFFCURVE",
"1405 317 CURVE SMOOTH",
"1420 316 OFFCURVE",
"1426 307 OFFCURVE",
"1426 293 CURVE SMOOTH",
"1426 220 OFFCURVE",
"1269 13 OFFCURVE",
"1198 13 CURVE SMOOTH"
);
},
{
closed = 1;
nodes = (
"870 534 OFFCURVE",
"819 540 OFFCURVE",
"781 559 CURVE",
"851 600 OFFCURVE",
"920 625 OFFCURVE",
"973 625 CURVE SMOOTH",
"1000 625 OFFCURVE",
"1030 620 OFFCURVE",
"1030 587 CURVE SMOOTH",
"1030 571 OFFCURVE",
"1023 554 OFFCURVE",
"1014 538 CURVE",
"984 535 OFFCURVE",
"955 534 OFFCURVE",
"927 534 CURVE SMOOTH"
);
},
{
closed = 1;
nodes = (
"1252 -5 OFFCURVE",
"1331 65 OFFCURVE",
"1383 141 CURVE",
"1392 137 OFFCURVE",
"1402 135 OFFCURVE",
"1412 135 CURVE SMOOTH",
"1427 135 OFFCURVE",
"1444 140 OFFCURVE",
"1461 151 CURVE",
"1439 112 OFFCURVE",
"1424 74 OFFCURVE",
"1424 45 CURVE SMOOTH",
"1424 15 OFFCURVE",
"1440 -5 OFFCURVE",
"1478 -5 CURVE SMOOTH",
"1588 -5 OFFCURVE",
"1738 195 OFFCURVE",
"1738 289 CURVE SMOOTH",
"1738 317 OFFCURVE",
"1724 336 OFFCURVE",
"1691 336 CURVE SMOOTH",
"1623 336 OFFCURVE",
"1539 263 OFFCURVE",
"1484 187 CURVE",
"1459 162 OFFCURVE",
"1430 148 OFFCURVE",
"1407 148 CURVE SMOOTH",
"1401 148 OFFCURVE",
"1396 149 OFFCURVE",
"1391 151 CURVE",
"1424 202 OFFCURVE",
"1446 254 OFFCURVE",
"1446 289 CURVE SMOOTH",
"1446 318 OFFCURVE",
"1433 336 OFFCURVE",
"1400 336 CURVE SMOOTH",
"1308 336 OFFCURVE",
"1192 211 OFFCURVE",
"1150 113 CURVE",
"1133 97 OFFCURVE",
"1069 18 OFFCURVE",
"1033 18 CURVE SMOOTH",
"1026 18 OFFCURVE",
"1021 23 OFFCURVE",
"1021 32 CURVE SMOOTH",
"1021 37 OFFCURVE",
"1022 42 OFFCURVE",
"1025 49 CURVE SMOOTH",
"1041 97 OFFCURVE",
"1087 161 OFFCURVE",
"1128 210 CURVE",
"1220 310 LINE SMOOTH",
"1223 313 OFFCURVE",
"1225 320 OFFCURVE",
"1212 320 CURVE",
"1202 317 OFFCURVE",
"1183 315 OFFCURVE",
"1162 315 CURVE SMOOTH",
"1136 315 OFFCURVE",
"1107 318 OFFCURVE",
"1081 323 CURVE",
"1130 387 OFFCURVE",
"1197 454 OFFCURVE",
"1266 454 CURVE",
"1276 460 OFFCURVE",
"1281 469 OFFCURVE",
"1281 478 CURVE SMOOTH",
"1281 490 OFFCURVE",
"1271 502 OFFCURVE",
"1255 502 CURVE SMOOTH",
"1218 502 OFFCURVE",
"1158 445 OFFCURVE",
"1109 385 CURVE SMOOTH",
"899 110 LINE",
"864 69 OFFCURVE",
"827 30 OFFCURVE",
"781 7 CURVE",
"773 4 OFFCURVE",
"769 2 OFFCURVE",
"769 1 CURVE SMOOTH",
"769 0 OFFCURVE",
"769 0 OFFCURVE",
"771 0 CURVE SMOOTH",
"822 0 OFFCURVE",
"871 54 OFFCURVE",
"899 87 CURVE SMOOTH",
"954 153 OFFCURVE",
"1020 243 OFFCURVE",
"1063 300 CURVE SMOOTH",
"1069 308 LINE",
"1085 301 OFFCURVE",
"1127 299 OFFCURVE",
"1159 299 CURVE SMOOTH",
"1173 299 OFFCURVE",
"1185 299 OFFCURVE",
"1192 300 CURVE",
"1118 254 OFFCURVE",
"992 146 OFFCURVE",
"976 66 CURVE SMOOTH",
"974 58 OFFCURVE",
"973 50 OFFCURVE",
"973 43 CURVE SMOOTH",
"973 18 OFFCURVE",
"985 0 OFFCURVE",
"1018 0 CURVE SMOOTH",
"1059 0 OFFCURVE",
"1107 46 OFFCURVE",
"1138 82 CURVE",
"1134 68 OFFCURVE",
"1132 56 OFFCURVE",
"1132 45 CURVE SMOOTH",
"1132 15 OFFCURVE",
"1148 -5 OFFCURVE",
"1187 -5 CURVE SMOOTH"
);
},
{
closed = 1;
nodes = (
"1477 13 OFFCURVE",
"1472 21 OFFCURVE",
"1472 33 CURVE SMOOTH",
"1472 101 OFFCURVE",
"1632 318 OFFCURVE",
"1697 317 CURVE SMOOTH",
"1712 316 OFFCURVE",
"1719 307 OFFCURVE",
"1719 292 CURVE SMOOTH",
"1719 219 OFFCURVE",
"1562 13 OFFCURVE",
"1490 13 CURVE SMOOTH"
);
},
{
closed = 1;
nodes = (
"2252 -236 OFFCURVE",
"2370 -166 OFFCURVE",
"2447 -18 CURVE SMOOTH",
"2463 11 OFFCURVE",
"2480 62 OFFCURVE",
"2480 107 CURVE SMOOTH",
"2480 154 OFFCURVE",
"2460 197 OFFCURVE",
"2401 197 CURVE SMOOTH",
"2270 197 OFFCURVE",
"2206 28 OFFCURVE",
"2201 -3 CURVE",
"2199 -5 OFFCURVE",
"2199 -8 OFFCURVE",
"2199 -10 CURVE SMOOTH",
"2199 -20 OFFCURVE",
"2201 -31 OFFCURVE",
"2203 -31 CURVE",
"2201 -31 OFFCURVE",
"2278 184 OFFCURVE",
"2398 184 CURVE SMOOTH",
"2439 184 OFFCURVE",
"2452 157 OFFCURVE",
"2452 125 CURVE SMOOTH",
"2452 77 OFFCURVE",
"2426 15 OFFCURVE",
"2411 -16 CURVE SMOOTH",
"2342 -149 OFFCURVE",
"2234 -223 OFFCURVE",
"2147 -223 CURVE SMOOTH",
"2040 -223 OFFCURVE",
"2005 -165 OFFCURVE",
"2005 -91 CURVE SMOOTH",
"2005 -45 OFFCURVE",
"2018 6 OFFCURVE",
"2037 54 CURVE SMOOTH",
"2065 120 OFFCURVE",
"2127 228 OFFCURVE",
"2173 277 CURVE SMOOTH",
"2186 293 OFFCURVE",
"2192 305 OFFCURVE",
"2192 315 CURVE SMOOTH",
"2192 327 OFFCURVE",
"2182 333 OFFCURVE",
"2163 333 CURVE SMOOTH",
"2144 333 OFFCURVE",
"2127 324 OFFCURVE",
"2109 313 CURVE SMOOTH",
"2057 279 OFFCURVE",
"1996 221 OFFCURVE",
"1945 164 CURVE",
"1957 182 OFFCURVE",
"1968 197 OFFCURVE",
"1978 210 CURVE",
"1978 210 OFFCURVE",
"2014 262 OFFCURVE",
"2029 282 CURVE SMOOTH",
"2038 294 OFFCURVE",
"2044 307 OFFCURVE",
"2044 317 CURVE SMOOTH",
"2044 326 OFFCURVE",
"2038 333 OFFCURVE",
"2020 333 CURVE SMOOTH",
"2002 333 OFFCURVE",
"1981 328 OFFCURVE",
"1960 315 CURVE SMOOTH",
"1906 284 OFFCURVE",
"1843 218 OFFCURVE",
"1791 154 CURVE",
"1842 233 OFFCURVE",
"1894 315 OFFCURVE",
"1907 333 CURVE",
"1907 333 OFFCURVE",
"1865 330 OFFCURVE",
"1834 289 CURVE SMOOTH",
"1794 241 OFFCURVE",
"1747 169 OFFCURVE",
"1712 112 CURVE SMOOTH",
"1700 91 OFFCURVE",
"1678 46 OFFCURVE",
"1678 20 CURVE SMOOTH",
"1678 8 OFFCURVE",
"1682 0 OFFCURVE",
"1694 0 CURVE",
"1725 52 LINE",
"1758 100 OFFCURVE",
"1835 185 OFFCURVE",
"1876 230 CURVE SMOOTH",
"1909 262 OFFCURVE",
"1983 317 OFFCURVE",
"2019 318 CURVE",
"1960 248 OFFCURVE",
"1883 166 OFFCURVE",
"1847 85 CURVE SMOOTH",
"1841 71 OFFCURVE",
"1837 58 OFFCURVE",
"1837 47 CURVE SMOOTH",
"1837 35 OFFCURVE",
"1842 25 OFFCURVE",
"1856 20 CURVE",
"1896 89 OFFCURVE",
"2019 233 OFFCURVE",
"2102 289 CURVE SMOOTH",
"2125 305 OFFCURVE",
"2150 317 OFFCURVE",
"2170 317 CURVE",
"2170 315 OFFCURVE",
"2170 315 OFFCURVE",
"2157 305 CURVE SMOOTH",
"2102 259 OFFCURVE",
"2017 161 OFFCURVE",
"1979 72 CURVE SMOOTH",
"1962 29 OFFCURVE",
"1952 -17 OFFCURVE",
"1952 -60 CURVE SMOOTH",
"1952 -155 OFFCURVE",
"2002 -236 OFFCURVE",
"2135 -236 CURVE SMOOTH"
);
}
);
width = 2467;
}
);
note = G_room;
},
{
glyphname = H;
lastChange = "2021-10-28 15:26:12 +0000";
layers = (
{
anchors = (
{
name = bottom;
position = "{369, 0}";
},
{
name = center;
position = "{369, 283}";
},
{
name = top;
position = "{884, 565}";
},
{
name = topleft;
position = "{20, 565}";
}
);
background = {
paths = (
{
closed = 0;
nodes = (
"594 -2 LINE SMOOTH",
"643 -2 OFFCURVE",
"677 19 OFFCURVE",
"738 91 CURVE SMOOTH",
"741 95 OFFCURVE",
"742 100 OFFCURVE",
"742 105 CURVE SMOOTH",
"742 108 OFFCURVE",
"741 111 OFFCURVE",
"738 111 CURVE",
"711 80 OFFCURVE",
"683 47 OFFCURVE",
"644 25 CURVE SMOOTH"
);
}
);
};
layerId = "E44713F8-1D5D-4793-848D-DDEAC8E4A199";
paths = (
{
closed = 1;
nodes = (
"319 -31 OFFCURVE",
"434 131 OFFCURVE",
"528 262 CURVE",
"677 262 LINE",
"637 212 OFFCURVE",
"601 161 OFFCURVE",
"574 114 CURVE SMOOTH",
"559 88 OFFCURVE",
"549 60 OFFCURVE",
"549 39 CURVE SMOOTH",
"549 15 OFFCURVE",
"561 -2 OFFCURVE",
"594 -2 CURVE SMOOTH",
"643 -2 OFFCURVE",
"677 19 OFFCURVE",
"738 91 CURVE SMOOTH",
"741 95 OFFCURVE",
"742 100 OFFCURVE",
"742 105 CURVE SMOOTH",
"742 108 OFFCURVE",
"741 111 OFFCURVE",
"738 111 CURVE",
"705 74 OFFCURVE",
"683 47 OFFCURVE",
"644 25 CURVE SMOOTH",
"631 18 OFFCURVE",
"622 15 OFFCURVE",
"615 15 CURVE SMOOTH",
"603 15 OFFCURVE",
"598 23 OFFCURVE",
"598 36 CURVE SMOOTH",
"598 50 OFFCURVE",
"604 69 OFFCURVE",
"614 86 CURVE SMOOTH",
"652 157 OFFCURVE",
"788 329 OFFCURVE",
"871 418 CURVE SMOOTH",
"902 451 OFFCURVE",
"944 492 OFFCURVE",
"962 506 CURVE",
"923 506 OFFCURVE",
"862 460 OFFCURVE",
"818 418 CURVE SMOOTH",
"775 375 OFFCURVE",
"730 326 OFFCURVE",
"689 276 CURVE",
"538 276 LINE",
"582 336 LINE SMOOTH",
"638 413 OFFCURVE",
"690 478 OFFCURVE",
"745 523 CURVE",
"771 522 OFFCURVE",
"796 522 OFFCURVE",
"819 525 CURVE SMOOTH",
"836 526 OFFCURVE",
"854 536 OFFCURVE",
"858 555 CURVE",
"858 560 OFFCURVE",
"855 563 OFFCURVE",
"850 563 CURVE SMOOTH",
"847 563 LINE",
"832 547 OFFCURVE",
"781 541 OFFCURVE",
"723 541 CURVE SMOOTH",
"649 541 OFFCURVE",
"564 550 OFFCURVE",
"526 556 CURVE SMOOTH",
"474 564 OFFCURVE",
"428 569 OFFCURVE",
"389 569 CURVE SMOOTH",
"301 569 OFFCURVE",
"243 546 OFFCURVE",
"206 495 CURVE SMOOTH",
"198 483 OFFCURVE",
"193 466 OFFCURVE",
"193 448 CURVE SMOOTH",
"193 429 OFFCURVE",
"199 409 OFFCURVE",
"213 394 CURVE SMOOTH",
"218 389 OFFCURVE",
"228 383 OFFCURVE",
"237 383 CURVE SMOOTH",
"241 383 OFFCURVE",
"244 384 OFFCURVE",
"247 387 CURVE",
"242 387 OFFCURVE",
"234 394 OFFCURVE",
"230 400 CURVE SMOOTH",
"225 407 OFFCURVE",
"223 416 OFFCURVE",
"223 426 CURVE SMOOTH",
"223 440 OFFCURVE",
"228 456 OFFCURVE",
"240 473 CURVE SMOOTH",
"279 527 OFFCURVE",
"358 545 OFFCURVE",
"445 545 CURVE SMOOTH",
"532 545 OFFCURVE",
"632 529 OFFCURVE",
"719 524 CURVE",
"691 510 OFFCURVE",
"661 488 OFFCURVE",
"636 464 CURVE SMOOTH",
"578 410 OFFCURVE",
"540 354 OFFCURVE",
"492 294 CURVE SMOOTH",
"420 201 OFFCURVE",
"354 104 OFFCURVE",
"265 33 CURVE SMOOTH",
"225 4 OFFCURVE",
"177 -14 OFFCURVE",
"134 -14 CURVE SMOOTH",
"79 -14 OFFCURVE",
"34 16 OFFCURVE",
"34 91 CURVE SMOOTH",
"34 188 OFFCURVE",
"148 287 OFFCURVE",
"240 287 CURVE SMOOTH",
"247 287 OFFCURVE",
"246 294 OFFCURVE",
"235 294 CURVE SMOOTH",
"123 293 OFFCURVE",
"2 196 OFFCURVE",
"2 89 CURVE SMOOTH",
"2 2 OFFCURVE",
"69 -31 OFFCURVE",
"148 -31 CURVE SMOOTH"
);
}
);
width = 738;
}
);
note = H;
unicode = 0048;
},
{
glyphname = Hbar;
lastChange = "2021-10-28 15:29:22 +0000";
layers = (
{
anchors = (
{
name = bottom;
position = "{369, 0}";
},
{
name = center;
position = "{369, 283}";
},
{
name = top;
position = "{884, 565}";
},
{
name = topleft;
position = "{20, 565}";
}
);
layerId = "E44713F8-1D5D-4793-848D-DDEAC8E4A199";
paths = (
{
closed = 1;
nodes = (
"319 -31 OFFCURVE",
"434 131 OFFCURVE",
"528 262 CURVE",
"677 262 LINE",
"637 212 OFFCURVE",
"601 161 OFFCURVE",
"574 114 CURVE SMOOTH",
"559 88 OFFCURVE",
"549 60 OFFCURVE",
"549 39 CURVE SMOOTH",
"549 15 OFFCURVE",
"561 -2 OFFCURVE",
"594 -2 CURVE SMOOTH",
"643 -2 OFFCURVE",
"677 19 OFFCURVE",
"738 91 CURVE SMOOTH",
"741 95 OFFCURVE",
"742 100 OFFCURVE",
"742 105 CURVE SMOOTH",
"742 108 OFFCURVE",
"741 111 OFFCURVE",
"738 111 CURVE",
"705 74 OFFCURVE",
"683 47 OFFCURVE",
"644 25 CURVE SMOOTH",
"631 18 OFFCURVE",
"622 15 OFFCURVE",
"615 15 CURVE SMOOTH",
"603 15 OFFCURVE",
"598 23 OFFCURVE",
"598 36 CURVE SMOOTH",
"598 50 OFFCURVE",
"604 69 OFFCURVE",
"614 86 CURVE SMOOTH",
"652 157 OFFCURVE",
"788 329 OFFCURVE",
"871 418 CURVE SMOOTH",
"902 451 OFFCURVE",
"944 492 OFFCURVE",
"962 506 CURVE",
"923 506 OFFCURVE",
"862 460 OFFCURVE",
"818 418 CURVE SMOOTH",
"775 375 OFFCURVE",
"730 326 OFFCURVE",
"689 276 CURVE",
"538 276 LINE",
"582 336 LINE SMOOTH",
"638 413 OFFCURVE",
"690 478 OFFCURVE",
"745 523 CURVE",
"771 522 OFFCURVE",
"796 522 OFFCURVE",
"819 525 CURVE SMOOTH",
"836 526 OFFCURVE",
"854 536 OFFCURVE",
"858 555 CURVE",
"858 560 OFFCURVE",
"855 563 OFFCURVE",
"850 563 CURVE SMOOTH",
"847 563 LINE",
"832 547 OFFCURVE",
"781 541 OFFCURVE",
"723 541 CURVE SMOOTH",
"649 541 OFFCURVE",
"564 550 OFFCURVE",
"526 556 CURVE SMOOTH",
"474 564 OFFCURVE",
"428 569 OFFCURVE",
"389 569 CURVE SMOOTH",
"301 569 OFFCURVE",
"243 546 OFFCURVE",
"206 495 CURVE SMOOTH",
"198 483 OFFCURVE",
"193 466 OFFCURVE",
"193 448 CURVE SMOOTH",
"193 429 OFFCURVE",
"199 409 OFFCURVE",
"213 394 CURVE SMOOTH",
"218 389 OFFCURVE",
"228 383 OFFCURVE",
"237 383 CURVE SMOOTH",
"241 383 OFFCURVE",
"244 384 OFFCURVE",
"247 387 CURVE",
"242 387 OFFCURVE",
"234 394 OFFCURVE",
"230 400 CURVE SMOOTH",
"225 407 OFFCURVE",
"223 416 OFFCURVE",
"223 426 CURVE SMOOTH",
"223 440 OFFCURVE",
"228 456 OFFCURVE",
"240 473 CURVE SMOOTH",
"279 527 OFFCURVE",
"358 545 OFFCURVE",
"445 545 CURVE SMOOTH",
"532 545 OFFCURVE",
"632 529 OFFCURVE",
"719 524 CURVE",
"691 510 OFFCURVE",
"661 488 OFFCURVE",
"636 464 CURVE SMOOTH",
"578 410 OFFCURVE",
"540 354 OFFCURVE",
"492 294 CURVE SMOOTH",
"420 201 OFFCURVE",
"354 104 OFFCURVE",
"265 33 CURVE SMOOTH",
"225 4 OFFCURVE",
"177 -14 OFFCURVE",
"134 -14 CURVE SMOOTH",
"79 -14 OFFCURVE",
"34 16 OFFCURVE",
"34 91 CURVE SMOOTH",
"34 188 OFFCURVE",
"148 287 OFFCURVE",
"240 287 CURVE SMOOTH",
"247 287 OFFCURVE",
"246 294 OFFCURVE",
"235 294 CURVE SMOOTH",
"123 293 OFFCURVE",
"2 196 OFFCURVE",
"2 89 CURVE SMOOTH",
"2 2 OFFCURVE",
"69 -31 OFFCURVE",
"148 -31 CURVE SMOOTH"
);
},
{
closed = 1;
nodes = (
"903 381 LINE",
"915 403 LINE",
"503 403 LINE",
"489 381 LINE"
);
}
);
width = 738;
}
);
unicode = 0126;
},
{
glyphname = I;
lastChange = "2021-10-28 15:26:12 +0000";
layers = (
{
anchors = (
{
name = bottom;
position = "{180, -50}";
},
{
name = ogonek;
position = "{240, -41}";
},
{
name = top;
position = "{783, 565}";
},
{
name = topleft;
position = "{20, 565}";
}
);
layerId = "E44713F8-1D5D-4793-848D-DDEAC8E4A199";
paths = (
{
closed = 1;
nodes = (
"233 -50 OFFCURVE",
"294 -26 OFFCURVE",
"330 -6 CURVE SMOOTH",
"453 57 OFFCURVE",
"538 188 OFFCURVE",
"629 338 CURVE SMOOTH",
"652 377 OFFCURVE",
"730 499 OFFCURVE",
"779 538 CURVE",
"806 534 OFFCURVE",
"827 530 OFFCURVE",
"845 530 CURVE SMOOTH",
"890 530 OFFCURVE",
"905 555 OFFCURVE",
"905 572 CURVE SMOOTH",
"905 580 OFFCURVE",
"902 586 OFFCURVE",
"898 589 CURVE",
"882 564 OFFCURVE",
"837 557 OFFCURVE",
"793 557 CURVE SMOOTH",
"760 557 OFFCURVE",
"713 564 OFFCURVE",
"664 564 CURVE SMOOTH",
"594 564 OFFCURVE",
"518 550 OFFCURVE",
"466 479 CURVE SMOOTH",
"453 462 OFFCURVE",
"445 436 OFFCURVE",
"445 411 CURVE SMOOTH",
"445 373 OFFCURVE",
"463 337 OFFCURVE",
"512 337 CURVE SMOOTH",
"517 337 OFFCURVE",
"523 338 OFFCURVE",
"528 339 CURVE SMOOTH",
"536 342 OFFCURVE",
"539 347 OFFCURVE",
"539 349 CURVE SMOOTH",
"539 350 OFFCURVE",
"539 350 OFFCURVE",
"538 350 CURVE SMOOTH",
"532 349 OFFCURVE",
"526 348 OFFCURVE",
"521 348 CURVE SMOOTH",
"490 348 OFFCURVE",
"479 370 OFFCURVE",
"479 394 CURVE SMOOTH",
"479 412 OFFCURVE",
"485 432 OFFCURVE",
"494 446 CURVE SMOOTH",
"551 532 OFFCURVE",
"639 548 OFFCURVE",
"696 548 CURVE SMOOTH",
"719 548 OFFCURVE",
"737 546 OFFCURVE",
"747 544 CURVE SMOOTH",
"765 541 LINE",
"713 512 OFFCURVE",
"617 409 OFFCURVE",
"539 297 CURVE SMOOTH",
"472 199 OFFCURVE",
"406 93 OFFCURVE",
"316 24 CURVE SMOOTH",
"274 -9 OFFCURVE",
"220 -32 OFFCURVE",
"170 -32 CURVE SMOOTH",
"114 -32 OFFCURVE",
"92 2 OFFCURVE",
"92 44 CURVE SMOOTH",
"92 79 OFFCURVE",
"107 121 OFFCURVE",
"130 154 CURVE SMOOTH",
"166 206 OFFCURVE",
"226 250 OFFCURVE",
"294 250 CURVE SMOOTH",
"301 250 OFFCURVE",
"302 257 OFFCURVE",
"291 258 CURVE SMOOTH",
"257 260 OFFCURVE",
"206 250 OFFCURVE",
"180 238 CURVE SMOOTH",
"126 211 OFFCURVE",
"87 173 OFFCURVE",
"69 124 CURVE SMOOTH",
"61 104 OFFCURVE",
"58 85 OFFCURVE",
"58 66 CURVE SMOOTH",
"58 1 OFFCURVE",
"105 -50 OFFCURVE",
"187 -50 CURVE SMOOTH"
);
}
);
width = 600;
}
);
note = I;
unicode = 0049;
},
{
glyphname = J;
lastChange = "2021-10-28 15:25:37 +0000";
layers = (
{
anchors = (
{
name = bottom;
position = "{304, 0}";
},
{
name = top;
position = "{793, 557}";
}
);
layerId = "E44713F8-1D5D-4793-848D-DDEAC8E4A199";
paths = (
{
closed = 1;
nodes = (
"201 -154 OFFCURVE",
"322 -70 OFFCURVE",
"393 9 CURVE SMOOTH",
"456 80 OFFCURVE",
"524 189 OFFCURVE",
"590 291 CURVE",
"638 296 LINE",
"638 298 OFFCURVE",
"643 304 OFFCURVE",
"643 306 CURVE SMOOTH",
"643 307 OFFCURVE",
"643 308 OFFCURVE",
"641 308 CURVE SMOOTH",
"598 304 LINE",
"667 410 OFFCURVE",
"732 505 OFFCURVE",
"785 537 CURVE",
"810 533 OFFCURVE",
"829 531 OFFCURVE",
"845 531 CURVE SMOOTH",
"890 531 OFFCURVE",
"905 555 OFFCURVE",
"905 572 CURVE SMOOTH",
"905 580 OFFCURVE",
"902 586 OFFCURVE",
"898 589 CURVE",
"882 564 OFFCURVE",
"837 557 OFFCURVE",
"793 557 CURVE SMOOTH",
"732 557 OFFCURVE",
"663 567 OFFCURVE",
"596 567 CURVE SMOOTH",
"515 567 OFFCURVE",
"439 552 OFFCURVE",
"390 486 CURVE SMOOTH",
"377 469 OFFCURVE",
"369 443 OFFCURVE",
"369 418 CURVE SMOOTH",
"369 383 OFFCURVE",
"387 350 OFFCURVE",
"435 350 CURVE SMOOTH",
"440 350 OFFCURVE",
"446 351 OFFCURVE",
"451 352 CURVE SMOOTH",
"460 355 OFFCURVE",
"463 360 OFFCURVE",
"463 362 CURVE SMOOTH",
"463 363 OFFCURVE",
"463 363 OFFCURVE",
"462 363 CURVE SMOOTH",
"456 362 OFFCURVE",
"450 361 OFFCURVE",
"445 361 CURVE SMOOTH",
"414 361 OFFCURVE",
"402 382 OFFCURVE",
"402 406 CURVE SMOOTH",
"402 425 OFFCURVE",
"409 445 OFFCURVE",
"418 459 CURVE SMOOTH",
"469 536 OFFCURVE",
"560 553 OFFCURVE",
"638 553 CURVE SMOOTH",
"682 553 OFFCURVE",
"721 549 OFFCURVE",
"747 544 CURVE SMOOTH",
"768 540 LINE",
"696 505 OFFCURVE",
"620 406 OFFCURVE",
"544 298 CURVE",
"371 278 OFFCURVE",
"204 241 OFFCURVE",
"69 149 CURVE SMOOTH",
"-20 85 OFFCURVE",
"-51 22 OFFCURVE",
"-51 -35 CURVE SMOOTH",
"-51 -111 OFFCURVE",
"6 -154 OFFCURVE",
"82 -154 CURVE SMOOTH"
);
},
{
closed = 1;
nodes = (
"10 -119 OFFCURVE",
"-32 -83 OFFCURVE",
"-32 -31 CURVE SMOOTH",
"-32 17 OFFCURVE",
"4 80 OFFCURVE",
"92 141 CURVE SMOOTH",
"205 219 OFFCURVE",
"384 262 OFFCURVE",
"534 284 CURVE",
"469 190 OFFCURVE",
"404 91 OFFCURVE",
"341 27 CURVE SMOOTH",
"263 -53 OFFCURVE",
"178 -119 OFFCURVE",
"74 -119 CURVE SMOOTH"
);
}
);
width = 607;
}
);
note = J;
unicode = 004A;
},
{
glyphname = K;
lastChange = "2021-10-28 15:26:12 +0000";
layers = (
{
anchors = (
{
name = bottom;
position = "{332, 0}";
},
{
name = top;
position = "{791, 565}";
}
);
layerId = "E44713F8-1D5D-4793-848D-DDEAC8E4A199";
paths = (
{
closed = 1;
nodes = (
"210 -37 OFFCURVE",
"313 117 OFFCURVE",
"406 246 CURVE SMOOTH",
"464 329 OFFCURVE",
"549 458 OFFCURVE",
"642 531 CURVE",
"657 530 OFFCURVE",
"669 531 OFFCURVE",
"679 534 CURVE SMOOTH",
"704 542 OFFCURVE",
"713 559 OFFCURVE",
"713 572 CURVE SMOOTH",
"713 580 OFFCURVE",
"710 586 OFFCURVE",
"706 589 CURVE",
"690 564 OFFCURVE",
"645 557 OFFCURVE",
"601 557 CURVE SMOOTH",
"540 557 OFFCURVE",
"471 567 OFFCURVE",
"404 567 CURVE SMOOTH",
"323 567 OFFCURVE",
"247 552 OFFCURVE",
"198 486 CURVE SMOOTH",
"185 469 OFFCURVE",
"177 443 OFFCURVE",
"177 418 CURVE SMOOTH",
"177 383 OFFCURVE",
"195 350 OFFCURVE",
"243 350 CURVE SMOOTH",
"248 350 OFFCURVE",
"254 351 OFFCURVE",
"259 352 CURVE SMOOTH",
"268 355 OFFCURVE",
"271 360 OFFCURVE",
"271 362 CURVE SMOOTH",
"271 363 OFFCURVE",
"271 363 OFFCURVE",
"270 363 CURVE SMOOTH",
"264 362 OFFCURVE",
"258 361 OFFCURVE",
"253 361 CURVE SMOOTH",
"222 361 OFFCURVE",
"210 382 OFFCURVE",
"210 406 CURVE SMOOTH",
"210 425 OFFCURVE",
"217 445 OFFCURVE",
"226 459 CURVE SMOOTH",
"277 536 OFFCURVE",
"368 553 OFFCURVE",
"446 553 CURVE SMOOTH",
"490 553 OFFCURVE",
"529 548 OFFCURVE",
"555 544 CURVE SMOOTH",
"581 539 OFFCURVE",
"603 536 OFFCURVE",
"621 533 CURVE",
"530 460 OFFCURVE",
"446 348 OFFCURVE",
"390 269 CURVE SMOOTH",
"298 144 OFFCURVE",
"170 10 OFFCURVE",
"69 10 CURVE SMOOTH",
"29 10 OFFCURVE",
"11 28 OFFCURVE",
"10 51 CURVE SMOOTH",
"10 60 OFFCURVE",
"12 74 OFFCURVE",
"17 80 CURVE",
"-3 79 OFFCURVE",
"-17 51 OFFCURVE",
"-17 32 CURVE SMOOTH",
"-17 -21 OFFCURVE",
"34 -37 OFFCURVE",
"70 -37 CURVE SMOOTH"
);
},
{
closed = 1;
nodes = (
"574 -39 OFFCURVE",
"613 -22 OFFCURVE",
"630 3 CURVE SMOOTH",
"634 10 OFFCURVE",
"629 10 OFFCURVE",
"628 10 CURVE",
"613 -2 OFFCURVE",
"595 -14 OFFCURVE",
"570 -14 CURVE SMOOTH",
"540 -14 OFFCURVE",
"531 18 OFFCURVE",
"531 58 CURVE SMOOTH",
"531 110 OFFCURVE",
"547 175 OFFCURVE",
"551 195 CURVE SMOOTH",
"557 224 OFFCURVE",
"560 249 OFFCURVE",
"560 268 CURVE SMOOTH",
"560 276 OFFCURVE",
"560 283 OFFCURVE",
"558 289 CURVE",
"706 325 OFFCURVE",
"916 601 OFFCURVE",
"1048 613 CURVE SMOOTH",
"1081 615 OFFCURVE",
"1128 600 OFFCURVE",
"1128 562 CURVE SMOOTH",
"1128 558 OFFCURVE",
"1134 565 OFFCURVE",
"1134 574 CURVE SMOOTH",
"1134 622 OFFCURVE",
"1096 640 OFFCURVE",
"1052 640 CURVE SMOOTH",
"897 640 OFFCURVE",
"712 347 OFFCURVE",
"557 295 CURVE",
"552 307 OFFCURVE",
"544 314 OFFCURVE",
"530 314 CURVE SMOOTH",
"523 314 OFFCURVE",
"520 310 OFFCURVE",
"520 306 CURVE SMOOTH",
"520 298 OFFCURVE",
"529 287 OFFCURVE",
"546 285 CURVE",
"547 283 OFFCURVE",
"548 280 OFFCURVE",
"548 277 CURVE SMOOTH",
"548 238 OFFCURVE",
"476 114 OFFCURVE",
"473 46 CURVE SMOOTH",
"470 -27 OFFCURVE",
"507 -39 OFFCURVE",
"542 -39 CURVE SMOOTH"
);
}
);
width = 633;
}
);
note = K;
unicode = 004B;
},
{
glyphname = L;
lastChange = "2021-10-28 15:26:12 +0000";
layers = (
{
anchors = (
{
name = bottom;
position = "{457, -70}";
},
{
name = center;
position = "{443, 283}";
},
{
name = top;
position = "{891, 600}";
},
{
name = topright;
position = "{1014, 565}";
}
);
layerId = "E44713F8-1D5D-4793-848D-DDEAC8E4A199";
paths = (
{
closed = 1;
nodes = (
"761 -88 OFFCURVE",
"855 -54 OFFCURVE",
"855 27 CURVE SMOOTH",
"855 91 OFFCURVE",
"774 110 OFFCURVE",
"731 110 CURVE SMOOTH",
"684 110 OFFCURVE",
"603 79 OFFCURVE",
"603 60 CURVE SMOOTH",
"603 59 OFFCURVE",
"604 58 OFFCURVE",
"606 58 CURVE SMOOTH",
"608 58 OFFCURVE",
"610 59 OFFCURVE",
"613 61 CURVE SMOOTH",
"642 82 OFFCURVE",
"687 94 OFFCURVE",
"722 94 CURVE SMOOTH",
"772 94 OFFCURVE",
"813 75 OFFCURVE",
"813 29 CURVE SMOOTH",
"813 -46 OFFCURVE",
"736 -68 OFFCURVE",
"673 -68 CURVE SMOOTH",
"561 -68 OFFCURVE",
"457 -14 OFFCURVE",
"360 37 CURVE",
"433 82 OFFCURVE",
"493 146 OFFCURVE",
"546 215 CURVE",
"816 235 OFFCURVE",
"967 421 OFFCURVE",
"967 527 CURVE SMOOTH",
"967 570 OFFCURVE",
"943 600 OFFCURVE",
"891 600 CURVE SMOOTH",
"797 600 OFFCURVE",
"713 523 OFFCURVE",
"641 435 CURVE",
"602 450 OFFCURVE",
"555 459 OFFCURVE",
"503 459 CURVE SMOOTH",
"414 459 OFFCURVE",
"300 421 OFFCURVE",
"300 334 CURVE SMOOTH",
"300 257 OFFCURVE",
"406 220 OFFCURVE",
"477 214 CURVE",
"428 153 OFFCURVE",
"378 98 OFFCURVE",
"327 55 CURVE",
"252 94 OFFCURVE",
"183 128 OFFCURVE",
"119 128 CURVE SMOOTH",
"45 128 OFFCURVE",
"2 83 OFFCURVE",
"2 39 CURVE SMOOTH",
"2 -5 OFFCURVE",
"42 -42 OFFCURVE",
"130 -42 CURVE SMOOTH",
"202 -40 OFFCURVE",
"270 -13 OFFCURVE",
"327 17 CURVE",
"440 -30 OFFCURVE",
"562 -88 OFFCURVE",
"682 -88 CURVE SMOOTH"
);
},
{
closed = 1;
nodes = (
"67 -26 OFFCURVE",
"25 10 OFFCURVE",
"25 40 CURVE SMOOTH",
"25 62 OFFCURVE",
"47 81 OFFCURVE",
"102 81 CURVE SMOOTH",
"161 81 OFFCURVE",
"226 59 OFFCURVE",
"295 31 CURVE",
"244 -4 OFFCURVE",
"190 -26 OFFCURVE",
"130 -26 CURVE SMOOTH"
);
},
{
closed = 1;
nodes = (
"426 233 OFFCURVE",
"340 265 OFFCURVE",
"340 330 CURVE SMOOTH",
"340 404 OFFCURVE",
"438 444 OFFCURVE",
"498 444 CURVE SMOOTH",
"546 444 OFFCURVE",
"591 436 OFFCURVE",
"630 421 CURVE",
"574 352 OFFCURVE",
"527 277 OFFCURVE",
"489 230 CURVE"
);
},
{
closed = 1;
nodes = (
"601 289 OFFCURVE",
"638 347 OFFCURVE",
"674 400 CURVE",
"697 386 OFFCURVE",
"716 369 OFFCURVE",
"731 350 CURVE",
"732 348 OFFCURVE",
"733 347 OFFCURVE",
"734 347 CURVE SMOOTH",
"735 347 OFFCURVE",
"736 350 OFFCURVE",
"736 353 CURVE SMOOTH",
"736 357 OFFCURVE",
"735 363 OFFCURVE",
"732 367 CURVE SMOOTH",
"719 384 OFFCURVE",
"702 400 OFFCURVE",
"683 413 CURVE",
"710 451 LINE SMOOTH",
"740 494 OFFCURVE",
"826 585 OFFCURVE",
"892 585 CURVE SMOOTH",
"926 585 OFFCURVE",
"943 565 OFFCURVE",
"943 534 CURVE SMOOTH",
"943 443 OFFCURVE",
"799 260 OFFCURVE",
"560 233 CURVE"
);
}
);
width = 885;
}
);
note = L;
unicode = 004C;
},
{
glyphname = Lslash;
lastChange = "2021-10-28 15:26:12 +0000";
layers = (
{
anchors = (
{
name = bottom;
position = "{457, -70}";
},
{
name = center;
position = "{443, 283}";
},
{
name = top;
position = "{891, 600}";
},
{
name = topright;
position = "{1014, 565}";
}
);
layerId = "E44713F8-1D5D-4793-848D-DDEAC8E4A199";
paths = (
{
closed = 1;
nodes = (
"761 -88 OFFCURVE",
"855 -54 OFFCURVE",
"855 27 CURVE SMOOTH",
"855 91 OFFCURVE",
"774 110 OFFCURVE",
"731 110 CURVE SMOOTH",
"684 110 OFFCURVE",
"603 79 OFFCURVE",
"603 60 CURVE SMOOTH",
"603 59 OFFCURVE",
"604 58 OFFCURVE",
"606 58 CURVE SMOOTH",
"608 58 OFFCURVE",
"610 59 OFFCURVE",
"613 61 CURVE SMOOTH",
"642 82 OFFCURVE",
"687 94 OFFCURVE",
"722 94 CURVE SMOOTH",
"772 94 OFFCURVE",
"813 75 OFFCURVE",
"813 29 CURVE SMOOTH",
"813 -46 OFFCURVE",
"736 -68 OFFCURVE",
"673 -68 CURVE SMOOTH",
"561 -68 OFFCURVE",
"457 -14 OFFCURVE",
"360 37 CURVE",
"433 82 OFFCURVE",
"493 146 OFFCURVE",
"546 215 CURVE",
"816 235 OFFCURVE",
"967 421 OFFCURVE",
"967 527 CURVE SMOOTH",
"967 570 OFFCURVE",
"943 600 OFFCURVE",
"891 600 CURVE SMOOTH",
"797 600 OFFCURVE",
"713 523 OFFCURVE",
"641 435 CURVE",
"602 450 OFFCURVE",
"555 459 OFFCURVE",
"503 459 CURVE SMOOTH",
"414 459 OFFCURVE",
"300 421 OFFCURVE",
"300 334 CURVE SMOOTH",
"300 257 OFFCURVE",
"406 220 OFFCURVE",
"477 214 CURVE",
"428 153 OFFCURVE",
"378 98 OFFCURVE",
"327 55 CURVE",
"252 94 OFFCURVE",
"183 128 OFFCURVE",
"119 128 CURVE SMOOTH",
"45 128 OFFCURVE",
"2 83 OFFCURVE",
"2 39 CURVE SMOOTH",
"2 -5 OFFCURVE",
"42 -42 OFFCURVE",
"130 -42 CURVE SMOOTH",
"202 -40 OFFCURVE",
"270 -13 OFFCURVE",
"327 17 CURVE",
"440 -30 OFFCURVE",
"562 -88 OFFCURVE",
"682 -88 CURVE SMOOTH"
);
},
{
closed = 1;
nodes = (
"67 -26 OFFCURVE",
"25 10 OFFCURVE",
"25 40 CURVE SMOOTH",
"25 62 OFFCURVE",
"47 81 OFFCURVE",
"102 81 CURVE SMOOTH",
"161 81 OFFCURVE",
"226 59 OFFCURVE",
"295 31 CURVE",
"244 -4 OFFCURVE",
"190 -26 OFFCURVE",
"130 -26 CURVE SMOOTH"
);
},
{
closed = 1;
nodes = (
"522 130 LINE",
"531 132 OFFCURVE",
"537 146 OFFCURVE",
"537 154 CURVE SMOOTH",
"537 155 OFFCURVE",
"537 155 OFFCURVE",
"537 156 CURVE SMOOTH",
"537 158 OFFCURVE",
"535 159 OFFCURVE",
"534 159 CURVE SMOOTH",
"341 138 LINE SMOOTH",
"332 137 OFFCURVE",
"324 122 OFFCURVE",
"324 114 CURVE SMOOTH",
"324 114 OFFCURVE",
"324 113 OFFCURVE",
"324 113 CURVE SMOOTH",
"325 110 OFFCURVE",
"326 109 OFFCURVE",
"328 109 CURVE SMOOTH"
);
},
{
closed = 1;
nodes = (
"426 233 OFFCURVE",
"340 265 OFFCURVE",
"340 330 CURVE SMOOTH",
"340 404 OFFCURVE",
"438 444 OFFCURVE",
"498 444 CURVE SMOOTH",
"546 444 OFFCURVE",
"591 436 OFFCURVE",
"630 421 CURVE",
"574 352 OFFCURVE",
"527 277 OFFCURVE",
"489 230 CURVE"
);
},
{
closed = 1;
nodes = (
"601 289 OFFCURVE",
"638 347 OFFCURVE",
"674 400 CURVE",
"697 386 OFFCURVE",
"716 369 OFFCURVE",
"731 350 CURVE",
"732 348 OFFCURVE",
"733 347 OFFCURVE",
"734 347 CURVE SMOOTH",
"735 347 OFFCURVE",
"736 350 OFFCURVE",
"736 353 CURVE SMOOTH",
"736 357 OFFCURVE",
"735 363 OFFCURVE",
"732 367 CURVE SMOOTH",
"719 384 OFFCURVE",
"702 400 OFFCURVE",
"683 413 CURVE",
"710 451 LINE SMOOTH",
"740 494 OFFCURVE",
"826 585 OFFCURVE",
"892 585 CURVE SMOOTH",
"926 585 OFFCURVE",
"943 565 OFFCURVE",
"943 534 CURVE SMOOTH",
"943 443 OFFCURVE",
"799 260 OFFCURVE",
"560 233 CURVE"
);
}
);
width = 885;
}
);
unicode = 0141;
},
{
glyphname = M;
lastChange = "2021-10-28 15:25:37 +0000";
layers = (
{
layerId = "E44713F8-1D5D-4793-848D-DDEAC8E4A199";
paths = (
{
closed = 1;
nodes = (
"50 -76 OFFCURVE",
"168 73 OFFCURVE",
"267 198 CURVE SMOOTH",
"340 291 OFFCURVE",
"426 389 OFFCURVE",
"481 436 CURVE SMOOTH",
"518 467 OFFCURVE",
"581 506 OFFCURVE",
"624 508 CURVE SMOOTH",
"639 508 LINE",
"603 486 OFFCURVE",
"564 454 OFFCURVE",
"534 423 CURVE SMOOTH",
"465 353 OFFCURVE",
"281 130 OFFCURVE",
"281 44 CURVE SMOOTH",
"281 40 OFFCURVE",
"281 36 OFFCURVE",
"282 33 CURVE SMOOTH",
"283 29 OFFCURVE",
"285 27 OFFCURVE",
"287 27 CURVE",
"287 26 OFFCURVE",
"287 26 OFFCURVE",
"288 26 CURVE SMOOTH",
"336 20 OFFCURVE",
"467 159 OFFCURVE",
"578 288 CURVE SMOOTH",
"682 406 OFFCURVE",
"834 548 OFFCURVE",
"940 548 CURVE SMOOTH",
"982 548 OFFCURVE",
"1001 531 OFFCURVE",
"1001 508 CURVE SMOOTH",
"1000 498 OFFCURVE",
"997 483 OFFCURVE",
"991 477 CURVE",
"1010 481 OFFCURVE",
"1019 504 OFFCURVE",
"1019 519 CURVE SMOOTH",
"1019 564 OFFCURVE",
"978 576 OFFCURVE",
"942 576 CURVE SMOOTH",
"834 576 OFFCURVE",
"674 423 OFFCURVE",
"566 299 CURVE SMOOTH",
"472 191 OFFCURVE",
"362 74 OFFCURVE",
"310 44 CURVE",
"349 99 OFFCURVE",
"390 161 OFFCURVE",
"434 222 CURVE SMOOTH",
"503 320 OFFCURVE",
"578 419 OFFCURVE",
"674 506 CURVE",
"690 513 OFFCURVE",
"706 514 OFFCURVE",
"710 530 CURVE SMOOTH",
"711 535 OFFCURVE",
"709 539 OFFCURVE",
"704 539 CURVE SMOOTH",
"702 539 LINE",
"693 526 OFFCURVE",
"646 520 OFFCURVE",
"588 520 CURVE SMOOTH",
"536 520 OFFCURVE",
"475 525 OFFCURVE",
"422 533 CURVE SMOOTH",
"369 541 OFFCURVE",
"324 546 OFFCURVE",
"285 546 CURVE SMOOTH",
"196 546 OFFCURVE",
"139 523 OFFCURVE",
"102 472 CURVE SMOOTH",
"93 460 OFFCURVE",
"88 443 OFFCURVE",
"88 425 CURVE SMOOTH",
"88 406 OFFCURVE",
"94 386 OFFCURVE",
"108 371 CURVE SMOOTH",
"113 366 OFFCURVE",
"123 360 OFFCURVE",
"132 360 CURVE SMOOTH",
"136 360 OFFCURVE",
"139 361 OFFCURVE",
"142 364 CURVE",
"138 364 OFFCURVE",
"130 371 OFFCURVE",
"125 377 CURVE SMOOTH",
"120 384 OFFCURVE",
"118 393 OFFCURVE",
"118 403 CURVE SMOOTH",
"118 417 OFFCURVE",
"123 433 OFFCURVE",
"135 450 CURVE SMOOTH",
"173 503 OFFCURVE",
"252 522 OFFCURVE",
"333 522 CURVE SMOOTH",
"363 522 OFFCURVE",
"393 519 OFFCURVE",
"421 515 CURVE SMOOTH",
"471 508 OFFCURVE",
"528 505 OFFCURVE",
"577 506 CURVE",
"528 489 OFFCURVE",
"496 463 OFFCURVE",
"483 454 CURVE SMOOTH",
"423 412 OFFCURVE",
"333 309 OFFCURVE",
"254 210 CURVE SMOOTH",
"160 93 OFFCURVE",
"29 -34 OFFCURVE",
"-71 -34 CURVE SMOOTH",
"-115 -34 OFFCURVE",
"-134 -15 OFFCURVE",
"-134 9 CURVE SMOOTH",
"-134 18 OFFCURVE",
"-130 32 OFFCURVE",
"-126 38 CURVE",
"-146 38 OFFCURVE",
"-162 8 OFFCURVE",
"-162 -11 CURVE SMOOTH",
"-162 -62 OFFCURVE",
"-118 -76 OFFCURVE",
"-82 -76 CURVE SMOOTH"
);
},
{
closed = 1;
nodes = (
"577 0 OFFCURVE",
"622 31 OFFCURVE",
"674 92 CURVE",
"676 97 OFFCURVE",
"683 109 OFFCURVE",
"683 114 CURVE SMOOTH",
"683 116 OFFCURVE",
"682 117 OFFCURVE",
"680 117 CURVE",
"647 80 OFFCURVE",
"619 49 OFFCURVE",
"586 30 CURVE SMOOTH",
"570 22 OFFCURVE",
"559 18 OFFCURVE",
"551 18 CURVE SMOOTH",
"539 18 OFFCURVE",
"534 26 OFFCURVE",
"534 37 CURVE SMOOTH",
"534 51 OFFCURVE",
"541 70 OFFCURVE",
"550 86 CURVE SMOOTH",
"589 157 OFFCURVE",
"725 329 OFFCURVE",
"808 418 CURVE SMOOTH",
"839 451 OFFCURVE",
"881 492 OFFCURVE",
"898 506 CURVE",
"860 506 OFFCURVE",
"798 460 OFFCURVE",
"755 418 CURVE SMOOTH",
"666 329 OFFCURVE",
"568 213 OFFCURVE",
"511 114 CURVE SMOOTH",
"496 87 OFFCURVE",
"485 59 OFFCURVE",
"485 37 CURVE SMOOTH",
"485 15 OFFCURVE",
"496 0 OFFCURVE",
"528 0 CURVE SMOOTH"
);
}
);
width = 674;
}
);
note = M;
unicode = 004D;
},
{
glyphname = N;
lastChange = "2021-10-28 15:26:12 +0000";
layers = (
{
anchors = (
{
name = bottom;
position = "{167, 0}";
},
{
name = top;
position = "{767, 565}";
}
);
layerId = "E44713F8-1D5D-4793-848D-DDEAC8E4A199";
paths = (
{
closed = 1;
nodes = (
"50 -76 OFFCURVE",
"168 73 OFFCURVE",
"267 198 CURVE SMOOTH",
"340 291 OFFCURVE",
"426 389 OFFCURVE",
"481 436 CURVE SMOOTH",
"509 460 OFFCURVE",
"551 488 OFFCURVE",
"589 501 CURVE",
"589 501 OFFCURVE",
"606 506 OFFCURVE",
"618 506 CURVE",
"454 395 OFFCURVE",
"372 203 OFFCURVE",
"313 50 CURVE SMOOTH",
"299 13 OFFCURVE",
"279 6 OFFCURVE",
"264 6 CURVE SMOOTH",
"256 6 OFFCURVE",
"249 8 OFFCURVE",
"246 9 CURVE",
"248 -9 OFFCURVE",
"262 -15 OFFCURVE",
"276 -15 CURVE SMOOTH",
"292 -15 OFFCURVE",
"310 -9 OFFCURVE",
"318 -3 CURVE SMOOTH",
"380 38 OFFCURVE",
"484 161 OFFCURVE",
"561 260 CURVE SMOOTH",
"658 383 OFFCURVE",
"807 566 OFFCURVE",
"914 566 CURVE SMOOTH",
"953 566 OFFCURVE",
"971 550 OFFCURVE",
"973 528 CURVE",
"972 518 OFFCURVE",
"970 502 OFFCURVE",
"965 496 CURVE",
"982 501 OFFCURVE",
"990 522 OFFCURVE",
"990 537 CURVE SMOOTH",
"988 578 OFFCURVE",
"963 595 OFFCURVE",
"925 595 CURVE SMOOTH",
"920 595 OFFCURVE",
"915 595 OFFCURVE",
"909 594 CURVE SMOOTH",
"802 581 OFFCURVE",
"647 398 OFFCURVE",
"548 270 CURVE SMOOTH",
"470 171 OFFCURVE",
"378 70 OFFCURVE",
"322 28 CURVE",
"346 56 OFFCURVE",
"366 92 OFFCURVE",
"380 118 CURVE SMOOTH",
"444 242 OFFCURVE",
"575 478 OFFCURVE",
"653 505 CURVE SMOOTH",
"669 511 OFFCURVE",
"684 512 OFFCURVE",
"688 529 CURVE",
"690 534 OFFCURVE",
"687 538 OFFCURVE",
"681 538 CURVE",
"672 525 OFFCURVE",
"633 519 OFFCURVE",
"582 519 CURVE SMOOTH",
"534 519 OFFCURVE",
"476 524 OFFCURVE",
"422 533 CURVE SMOOTH",
"369 541 OFFCURVE",
"324 546 OFFCURVE",
"285 546 CURVE SMOOTH",
"196 546 OFFCURVE",
"139 523 OFFCURVE",
"102 472 CURVE SMOOTH",
"93 460 OFFCURVE",
"88 443 OFFCURVE",
"88 425 CURVE SMOOTH",
"88 406 OFFCURVE",
"94 386 OFFCURVE",
"108 371 CURVE SMOOTH",
"113 366 OFFCURVE",
"123 360 OFFCURVE",
"132 360 CURVE SMOOTH",
"136 360 OFFCURVE",
"139 361 OFFCURVE",
"142 364 CURVE",
"138 364 OFFCURVE",
"130 371 OFFCURVE",
"125 377 CURVE SMOOTH",
"120 384 OFFCURVE",
"118 393 OFFCURVE",
"118 403 CURVE SMOOTH",
"118 417 OFFCURVE",
"123 433 OFFCURVE",
"135 450 CURVE SMOOTH",
"173 503 OFFCURVE",
"252 522 OFFCURVE",
"333 522 CURVE SMOOTH",
"363 522 OFFCURVE",
"393 519 OFFCURVE",
"421 515 CURVE SMOOTH",
"471 508 OFFCURVE",
"528 505 OFFCURVE",
"577 506 CURVE",
"528 489 OFFCURVE",
"496 463 OFFCURVE",
"483 454 CURVE SMOOTH",
"423 412 OFFCURVE",
"333 309 OFFCURVE",
"254 210 CURVE SMOOTH",
"160 93 OFFCURVE",
"29 -34 OFFCURVE",
"-71 -34 CURVE SMOOTH",
"-115 -34 OFFCURVE",
"-134 -15 OFFCURVE",
"-134 9 CURVE SMOOTH",
"-134 18 OFFCURVE",
"-130 32 OFFCURVE",
"-126 38 CURVE",
"-146 38 OFFCURVE",
"-162 8 OFFCURVE",
"-162 -11 CURVE SMOOTH",
"-162 -62 OFFCURVE",
"-118 -76 OFFCURVE",
"-82 -76 CURVE SMOOTH"
);
}
);
width = 546;
}
);
note = N;
unicode = 004E;
},
{
glyphname = Eng;
lastChange = "2021-10-28 15:25:37 +0000";
layers = (
{
layerId = "E44713F8-1D5D-4793-848D-DDEAC8E4A199";
paths = (
{
closed = 1;
nodes = (
"69 -377 OFFCURVE",
"212 -230 OFFCURVE",
"308 -102 CURVE SMOOTH",
"394 16 OFFCURVE",
"554 234 OFFCURVE",
"646 361 CURVE",
"730 465 OFFCURVE",
"828 560 OFFCURVE",
"915 560 CURVE SMOOTH",
"923 560 OFFCURVE",
"931 560 OFFCURVE",
"939 558 CURVE SMOOTH",
"946 557 OFFCURVE",
"953 556 OFFCURVE",
"959 556 CURVE SMOOTH",
"972 556 OFFCURVE",
"980 559 OFFCURVE",
"980 562 CURVE SMOOTH",
"980 565 OFFCURVE",
"972 570 OFFCURVE",
"949 574 CURVE SMOOTH",
"941 576 OFFCURVE",
"932 576 OFFCURVE",
"923 576 CURVE SMOOTH",
"804 576 OFFCURVE",
"661 429 OFFCURVE",
"566 299 CURVE SMOOTH",
"530 249 OFFCURVE",
"451 140 OFFCURVE",
"382 46 CURVE",
"392 68 OFFCURVE",
"401 93 OFFCURVE",
"407 106 CURVE SMOOTH",
"460 235 OFFCURVE",
"575 478 OFFCURVE",
"653 505 CURVE SMOOTH",
"669 511 OFFCURVE",
"684 512 OFFCURVE",
"688 529 CURVE",
"690 534 OFFCURVE",
"687 538 OFFCURVE",
"681 538 CURVE",
"672 525 OFFCURVE",
"633 519 OFFCURVE",
"582 519 CURVE SMOOTH",
"534 519 OFFCURVE",
"476 524 OFFCURVE",
"422 533 CURVE SMOOTH",
"369 541 OFFCURVE",
"324 546 OFFCURVE",
"285 546 CURVE SMOOTH",
"196 546 OFFCURVE",
"139 523 OFFCURVE",
"102 472 CURVE SMOOTH",
"93 460 OFFCURVE",
"88 443 OFFCURVE",
"88 425 CURVE SMOOTH",
"88 406 OFFCURVE",
"94 386 OFFCURVE",
"108 371 CURVE SMOOTH",
"113 366 OFFCURVE",
"123 360 OFFCURVE",
"132 360 CURVE SMOOTH",
"136 360 OFFCURVE",
"139 361 OFFCURVE",
"142 364 CURVE",
"138 364 OFFCURVE",
"130 371 OFFCURVE",
"125 377 CURVE SMOOTH",
"120 384 OFFCURVE",
"118 393 OFFCURVE",
"118 403 CURVE SMOOTH",
"118 417 OFFCURVE",
"123 433 OFFCURVE",
"135 450 CURVE SMOOTH",
"173 503 OFFCURVE",
"252 522 OFFCURVE",
"333 522 CURVE SMOOTH",
"363 522 OFFCURVE",
"393 519 OFFCURVE",
"421 515 CURVE SMOOTH",
"471 508 OFFCURVE",
"528 505 OFFCURVE",
"577 506 CURVE",
"528 489 OFFCURVE",
"496 463 OFFCURVE",
"483 454 CURVE SMOOTH",
"423 412 OFFCURVE",
"333 309 OFFCURVE",
"254 210 CURVE SMOOTH",
"160 93 OFFCURVE",
"29 -34 OFFCURVE",
"-71 -34 CURVE SMOOTH",
"-115 -34 OFFCURVE",
"-134 -15 OFFCURVE",
"-134 9 CURVE SMOOTH",
"-134 18 OFFCURVE",
"-130 32 OFFCURVE",
"-126 38 CURVE",
"-146 38 OFFCURVE",
"-162 8 OFFCURVE",
"-162 -11 CURVE SMOOTH",
"-162 -62 OFFCURVE",
"-118 -76 OFFCURVE",
"-82 -76 CURVE SMOOTH",
"50 -76 OFFCURVE",
"168 73 OFFCURVE",
"267 198 CURVE SMOOTH",
"340 291 OFFCURVE",
"426 389 OFFCURVE",
"481 436 CURVE SMOOTH",
"509 460 OFFCURVE",
"551 488 OFFCURVE",
"589 501 CURVE",
"589 501 OFFCURVE",
"606 506 OFFCURVE",
"618 506 CURVE",
"454 395 OFFCURVE",
"391 190 OFFCURVE",
"346 33 CURVE SMOOTH",
"339 9 OFFCURVE",
"337 -6 OFFCURVE",
"338 -15 CURVE",
"297 -71 OFFCURVE",
"266 -113 OFFCURVE",
"263 -118 CURVE",
"171 -238 OFFCURVE",
"57 -361 OFFCURVE",
"-43 -361 CURVE SMOOTH",
"-51 -361 OFFCURVE",
"-59 -361 OFFCURVE",
"-67 -359 CURVE SMOOTH",
"-104 -352 OFFCURVE",
"-120 -315 OFFCURVE",
"-120 -271 CURVE SMOOTH",
"-120 -226 OFFCURVE",
"-85 -143 OFFCURVE",
"-58 -122 CURVE",
"-63 -108 OFFCURVE",
"-119 -148 OFFCURVE",
"-143 -212 CURVE SMOOTH",
"-152 -237 OFFCURVE",
"-156 -259 OFFCURVE",
"-156 -278 CURVE SMOOTH",
"-156 -336 OFFCURVE",
"-119 -366 OFFCURVE",
"-77 -374 CURVE SMOOTH",
"-68 -376 OFFCURVE",
"-59 -377 OFFCURVE",
"-50 -377 CURVE SMOOTH"
);
}
);
width = 546;
}
);
unicode = 014A;
},
{
glyphname = O;
lastChange = "2021-10-28 15:26:12 +0000";
layers = (
{
anchors = (
{
name = bottom;
position = "{136, -20}";
},
{
name = center;
position = "{267, 283}";
},
{
name = ogonek;
position = "{201, -18}";
},
{
name = top;
position = "{595, 565}";
},
{
name = topleft;
position = "{20, 565}";
},
{
name = topright;
position = "{616, 544}";
}
);
layerId = "E44713F8-1D5D-4793-848D-DDEAC8E4A199";
paths = (
{
closed = 1;
nodes = (
"340 -30 OFFCURVE",
"579 203 OFFCURVE",
"633 373 CURVE SMOOTH",
"640 396 OFFCURVE",
"643 415 OFFCURVE",
"643 432 CURVE SMOOTH",
"643 451 OFFCURVE",
"639 465 OFFCURVE",
"632 477 CURVE",
"645 494 OFFCURVE",
"651 510 OFFCURVE",
"651 525 CURVE SMOOTH",
"651 551 OFFCURVE",
"630 570 OFFCURVE",
"584 570 CURVE SMOOTH",
"472 570 OFFCURVE",
"319 482 OFFCURVE",
"210 356 CURVE",
"96 359 OFFCURVE",
"47 391 OFFCURVE",
"47 433 CURVE SMOOTH",
"47 508 OFFCURVE",
"157 518 OFFCURVE",
"206 519 CURVE SMOOTH",
"234 519 OFFCURVE",
"271 518 OFFCURVE",
"299 514 CURVE",
"306 512 OFFCURVE",
"308 518 OFFCURVE",
"302 520 CURVE SMOOTH",
"253 531 OFFCURVE",
"210 534 OFFCURVE",
"173 534 CURVE SMOOTH",
"112 532 OFFCURVE",
"14 509 OFFCURVE",
"14 438 CURVE SMOOTH",
"14 384 OFFCURVE",
"84 346 OFFCURVE",
"199 342 CURVE",
"148 280 OFFCURVE",
"109 209 OFFCURVE",
"90 135 CURVE SMOOTH",
"84 112 OFFCURVE",
"81 91 OFFCURVE",
"81 73 CURVE SMOOTH",
"81 9 OFFCURVE",
"115 -30 OFFCURVE",
"183 -30 CURVE SMOOTH"
);
},
{
closed = 1;
nodes = (
"145 -17 OFFCURVE",
"126 8 OFFCURVE",
"126 50 CURVE SMOOTH",
"126 67 OFFCURVE",
"129 87 OFFCURVE",
"135 110 CURVE SMOOTH",
"154 184 OFFCURVE",
"204 268 OFFCURVE",
"266 344 CURVE",
"281 345 OFFCURVE",
"297 346 OFFCURVE",
"313 348 CURVE",
"266 292 OFFCURVE",
"173 164 OFFCURVE",
"173 67 CURVE SMOOTH",
"173 49 OFFCURVE",
"176 32 OFFCURVE",
"183 17 CURVE",
"172 121 OFFCURVE",
"267 266 OFFCURVE",
"343 353 CURVE",
"427 366 OFFCURVE",
"521 392 OFFCURVE",
"586 434 CURVE SMOOTH",
"595 440 OFFCURVE",
"603 446 OFFCURVE",
"610 453 CURVE",
"611 448 OFFCURVE",
"611 443 OFFCURVE",
"611 437 CURVE SMOOTH",
"611 423 OFFCURVE",
"608 404 OFFCURVE",
"601 382 CURVE SMOOTH",
"547 214 OFFCURVE",
"335 -17 OFFCURVE",
"187 -17 CURVE SMOOTH"
);
},
{
closed = 1;
nodes = (
"424 439 OFFCURVE",
"494 484 OFFCURVE",
"563 487 CURVE SMOOTH",
"579 487 OFFCURVE",
"592 483 OFFCURVE",
"600 474 CURVE",
"590 464 OFFCURVE",
"577 454 OFFCURVE",
"562 446 CURVE SMOOTH",
"508 416 OFFCURVE",
"432 391 OFFCURVE",
"363 375 CURVE"
);
},
{
closed = 1;
nodes = (
"375 471 OFFCURVE",
"496 560 OFFCURVE",
"576 561 CURVE SMOOTH",
"613 561 OFFCURVE",
"629 547 OFFCURVE",
"629 527 CURVE SMOOTH",
"629 516 OFFCURVE",
"625 504 OFFCURVE",
"616 492 CURVE",
"604 501 OFFCURVE",
"587 505 OFFCURVE",
"569 505 CURVE SMOOTH",
"491 503 OFFCURVE",
"403 446 OFFCURVE",
"330 368 CURVE",
"312 364 OFFCURVE",
"295 362 OFFCURVE",
"279 360 CURVE"
);
}
);
width = 534;
}
);
note = O;
unicode = 004F;
},
{
glyphname = Oslash;
lastChange = "2021-10-28 15:25:37 +0000";
layers = (
{
anchors = (
{
name = bottom;
position = "{267, 0}";
},
{
name = top;
position = "{587, 560}";
}
);
layerId = "E44713F8-1D5D-4793-848D-DDEAC8E4A199";
paths = (
{
closed = 1;
nodes = (
"106 -76 LINE",
"145 -25 LINE",
"157 -28 OFFCURVE",
"172 -30 OFFCURVE",
"188 -30 CURVE SMOOTH",
"346 -25 OFFCURVE",
"566 201 OFFCURVE",
"617 363 CURVE SMOOTH",
"624 384 OFFCURVE",
"627 403 OFFCURVE",
"627 418 CURVE SMOOTH",
"627 435 OFFCURVE",
"623 449 OFFCURVE",
"617 460 CURVE",
"639 482 OFFCURVE",
"651 506 OFFCURVE",
"651 525 CURVE SMOOTH",
"651 549 OFFCURVE",
"633 567 OFFCURVE",
"594 569 CURVE",
"616 598 LINE",
"587 598 LINE",
"565 569 LINE",
"455 560 OFFCURVE",
"313 475 OFFCURVE",
"210 356 CURVE",
"96 359 OFFCURVE",
"47 391 OFFCURVE",
"47 433 CURVE SMOOTH",
"47 508 OFFCURVE",
"157 518 OFFCURVE",
"206 519 CURVE SMOOTH",
"234 519 OFFCURVE",
"271 518 OFFCURVE",
"299 514 CURVE",
"306 512 OFFCURVE",
"308 518 OFFCURVE",
"302 520 CURVE SMOOTH",
"253 531 OFFCURVE",
"210 534 OFFCURVE",
"173 534 CURVE SMOOTH",
"112 532 OFFCURVE",
"14 509 OFFCURVE",
"14 438 CURVE SMOOTH",
"14 384 OFFCURVE",
"84 346 OFFCURVE",
"199 342 CURVE",
"148 280 OFFCURVE",
"109 209 OFFCURVE",
"90 135 CURVE SMOOTH",
"84 112 OFFCURVE",
"81 91 OFFCURVE",
"81 73 CURVE SMOOTH",
"81 31 OFFCURVE",
"95 1 OFFCURVE",
"123 -15 CURVE",
"78 -76 LINE"
);
},
{
closed = 1;
nodes = (
"130 15 OFFCURVE",
"126 31 OFFCURVE",
"126 50 CURVE SMOOTH",
"126 67 OFFCURVE",
"129 87 OFFCURVE",
"135 110 CURVE SMOOTH",
"154 184 OFFCURVE",
"204 268 OFFCURVE",
"266 344 CURVE",
"310 347 OFFCURVE",
"361 355 OFFCURVE",
"412 366 CURVE",
"138 4 LINE"
);
},
{
closed = 1;
nodes = (
"176 -17 OFFCURVE",
"165 -15 OFFCURVE",
"156 -10 CURVE",
"448 375 LINE",
"499 389 OFFCURVE",
"547 409 OFFCURVE",
"586 434 CURVE SMOOTH",
"589 436 OFFCURVE",
"592 438 OFFCURVE",
"595 441 CURVE",
"596 437 OFFCURVE",
"596 433 OFFCURVE",
"596 428 CURVE SMOOTH",
"596 413 OFFCURVE",
"593 395 OFFCURVE",
"586 372 CURVE SMOOTH",
"535 210 OFFCURVE",
"338 -12 OFFCURVE",
"190 -17 CURVE SMOOTH"
);
},
{
closed = 1;
nodes = (
"369 463 OFFCURVE",
"479 547 OFFCURVE",
"558 559 CURVE",
"432 393 LINE",
"378 377 OFFCURVE",
"324 365 OFFCURVE",
"279 360 CURVE"
);
},
{
closed = 1;
nodes = (
"587 560 LINE",
"617 558 OFFCURVE",
"630 545 OFFCURVE",
"630 527 CURVE SMOOTH",
"630 512 OFFCURVE",
"620 494 OFFCURVE",
"603 477 CURVE",
"591 486 OFFCURVE",
"574 490 OFFCURVE",
"556 490 CURVE",
"544 485 OFFCURVE",
"538 481 OFFCURVE",
"538 478 CURVE SMOOTH",
"538 476 OFFCURVE",
"542 474 OFFCURVE",
"550 473 CURVE SMOOTH",
"565 473 OFFCURVE",
"577 470 OFFCURVE",
"585 461 CURVE",
"578 455 OFFCURVE",
"570 450 OFFCURVE",
"562 446 CURVE SMOOTH",
"536 431 OFFCURVE",
"504 418 OFFCURVE",
"471 406 CURVE"
);
}
);
width = 534;
}
);
note = Oslash;
unicode = 00D8;
},
{
glyphname = OE;
lastChange = "2021-10-28 15:26:12 +0000";
layers = (
{
layerId = "E44713F8-1D5D-4793-848D-DDEAC8E4A199";
paths = (
{
closed = 1;
nodes = (
"594 -46 OFFCURVE",
"737 74 OFFCURVE",
"787 153 CURVE SMOOTH",
"803 178 OFFCURVE",
"812 201 OFFCURVE",
"812 220 CURVE SMOOTH",
"812 246 OFFCURVE",
"795 264 OFFCURVE",
"757 264 CURVE SMOOTH",
"657 264 OFFCURVE",
"558 161 OFFCURVE",
"531 89 CURVE",
"530 81 OFFCURVE",
"531 76 OFFCURVE",
"534 76 CURVE SMOOTH",
"535 76 OFFCURVE",
"536 77 OFFCURVE",
"538 78 CURVE",
"570 158 OFFCURVE",
"661 232 OFFCURVE",
"718 242 CURVE SMOOTH",
"725 243 OFFCURVE",
"730 244 OFFCURVE",
"736 244 CURVE SMOOTH",
"759 244 OFFCURVE",
"768 231 OFFCURVE",
"768 215 CURVE SMOOTH",
"768 212 OFFCURVE",
"768 209 OFFCURVE",
"767 206 CURVE",
"750 106 OFFCURVE",
"605 -28 OFFCURVE",
"487 -28 CURVE SMOOTH",
"422 -28 OFFCURVE",
"403 0 OFFCURVE",
"403 41 CURVE SMOOTH",
"403 51 OFFCURVE",
"404 62 OFFCURVE",
"406 74 CURVE SMOOTH",
"423 181 OFFCURVE",
"534 298 OFFCURVE",
"642 314 CURVE",
"647 296 OFFCURVE",
"665 283 OFFCURVE",
"702 283 CURVE SMOOTH",
"719 283 OFFCURVE",
"731 287 OFFCURVE",
"731 295 CURVE SMOOTH",
"731 298 OFFCURVE",
"729 302 OFFCURVE",
"723 305 CURVE SMOOTH",
"707 314 OFFCURVE",
"684 319 OFFCURVE",
"658 318 CURVE",
"659 324 OFFCURVE",
"662 330 OFFCURVE",
"664 338 CURVE",
"685 389 OFFCURVE",
"713 436 OFFCURVE",
"750 471 CURVE SMOOTH",
"809 525 OFFCURVE",
"870 552 OFFCURVE",
"913 552 CURVE SMOOTH",
"962 552 OFFCURVE",
"977 535 OFFCURVE",
"977 514 CURVE SMOOTH",
"977 511 OFFCURVE",
"977 507 OFFCURVE",
"976 504 CURVE SMOOTH",
"965 458 OFFCURVE",
"923 418 OFFCURVE",
"866 392 CURVE SMOOTH",
"856 388 OFFCURVE",
"850 382 OFFCURVE",
"850 378 CURVE SMOOTH",
"850 377 OFFCURVE",
"851 376 OFFCURVE",
"854 376 CURVE SMOOTH",
"857 376 OFFCURVE",
"861 376 OFFCURVE",
"867 378 CURVE SMOOTH",
"930 397 OFFCURVE",
"982 443 OFFCURVE",
"999 498 CURVE SMOOTH",
"1001 505 OFFCURVE",
"1002 512 OFFCURVE",
"1002 518 CURVE SMOOTH",
"1002 554 OFFCURVE",
"967 573 OFFCURVE",
"923 577 CURVE SMOOTH",
"916 578 OFFCURVE",
"908 578 OFFCURVE",
"900 578 CURVE SMOOTH",
"769 578 OFFCURVE",
"639 454 OFFCURVE",
"639 354 CURVE SMOOTH",
"639 336 OFFCURVE",
"640 324 OFFCURVE",
"642 317 CURVE",
"627 316 OFFCURVE",
"612 314 OFFCURVE",
"596 311 CURVE",
"605 328 OFFCURVE",
"611 346 OFFCURVE",
"617 363 CURVE SMOOTH",
"623 384 OFFCURVE",
"626 402 OFFCURVE",
"626 417 CURVE SMOOTH",
"626 434 OFFCURVE",
"623 448 OFFCURVE",
"617 459 CURVE",
"640 482 OFFCURVE",
"651 506 OFFCURVE",
"651 525 CURVE SMOOTH",
"651 551 OFFCURVE",
"630 570 OFFCURVE",
"584 570 CURVE SMOOTH",
"472 570 OFFCURVE",
"319 482 OFFCURVE",
"210 356 CURVE",
"96 359 OFFCURVE",
"47 391 OFFCURVE",
"47 433 CURVE SMOOTH",
"47 508 OFFCURVE",
"157 518 OFFCURVE",
"206 519 CURVE SMOOTH",
"234 519 OFFCURVE",
"271 518 OFFCURVE",
"299 514 CURVE",
"306 512 OFFCURVE",
"308 518 OFFCURVE",
"302 520 CURVE SMOOTH",
"253 531 OFFCURVE",
"210 534 OFFCURVE",
"173 534 CURVE SMOOTH",
"112 532 OFFCURVE",
"14 509 OFFCURVE",
"14 438 CURVE SMOOTH",
"14 384 OFFCURVE",
"84 346 OFFCURVE",
"199 342 CURVE",
"148 280 OFFCURVE",
"109 209 OFFCURVE",
"90 135 CURVE SMOOTH",
"84 112 OFFCURVE",
"81 91 OFFCURVE",
"81 73 CURVE SMOOTH",
"81 8 OFFCURVE",
"116 -30 OFFCURVE",
"184 -30 CURVE SMOOTH",
"236 -30 OFFCURVE",
"295 -5 OFFCURVE",
"354 34 CURVE",
"364 -16 OFFCURVE",
"404 -46 OFFCURVE",
"474 -46 CURVE SMOOTH"
);
},
{
closed = 1;
nodes = (
"145 -17 OFFCURVE",
"126 8 OFFCURVE",
"126 50 CURVE SMOOTH",
"126 67 OFFCURVE",
"129 87 OFFCURVE",
"135 110 CURVE SMOOTH",
"154 184 OFFCURVE",
"204 268 OFFCURVE",
"266 344 CURVE",
"366 351 OFFCURVE",
"500 378 OFFCURVE",
"586 434 CURVE SMOOTH",
"594 440 LINE",
"595 435 OFFCURVE",
"595 429 OFFCURVE",
"595 423 CURVE SMOOTH",
"595 409 OFFCURVE",
"593 393 OFFCURVE",
"586 372 CURVE SMOOTH",
"579 348 OFFCURVE",
"568 323 OFFCURVE",
"554 298 CURVE",
"460 262 OFFCURVE",
"367 179 OFFCURVE",
"354 91 CURVE SMOOTH",
"352 77 OFFCURVE",
"351 65 OFFCURVE",
"351 53 CURVE",
"296 11 OFFCURVE",
"238 -17 OFFCURVE",
"187 -17 CURVE SMOOTH"
);
},
{
closed = 1;
nodes = (
"375 471 OFFCURVE",
"496 560 OFFCURVE",
"576 561 CURVE SMOOTH",
"614 561 OFFCURVE",
"630 547 OFFCURVE",
"630 527 CURVE SMOOTH",
"630 502 OFFCURVE",
"604 469 OFFCURVE",
"562 446 CURVE SMOOTH",
"485 403 OFFCURVE",
"364 370 OFFCURVE",
"279 360 CURVE"
);
}
);
width = 1002;
}
);
note = OE;
unicode = 0152;
},
{
glyphname = P;
lastChange = "2021-10-28 15:25:37 +0000";
layers = (
{
layerId = "E44713F8-1D5D-4793-848D-DDEAC8E4A199";
paths = (
{
closed = 1;
nodes = (
"391 -35 OFFCURVE",
"499 -2 OFFCURVE",
"499 89 CURVE SMOOTH",
"499 116 OFFCURVE",
"477 140 OFFCURVE",
"451 140 CURVE SMOOTH",
"447 140 OFFCURVE",
"442 139 OFFCURVE",
"439 137 CURVE",
"455 133 OFFCURVE",
"462 113 OFFCURVE",
"462 99 CURVE SMOOTH",
"462 20 OFFCURVE",
"351 -16 OFFCURVE",
"270 -16 CURVE SMOOTH",
"218 -16 OFFCURVE",
"189 -8 OFFCURVE",
"156 -2 CURVE SMOOTH",
"145 0 LINE",
"197 3 OFFCURVE",
"227 30 OFFCURVE",
"268 66 CURVE SMOOTH",
"319 113 OFFCURVE",
"377 178 OFFCURVE",
"430 253 CURVE SMOOTH",
"500 353 OFFCURVE",
"585 480 OFFCURVE",
"669 545 CURVE",
"712 520 OFFCURVE",
"731 482 OFFCURVE",
"731 441 CURVE SMOOTH",
"731 344 OFFCURVE",
"626 231 OFFCURVE",
"500 231 CURVE SMOOTH",
"482 231 OFFCURVE",
"465 233 OFFCURVE",
"447 238 CURVE SMOOTH",
"441 240 OFFCURVE",
"439 238 OFFCURVE",
"439 236 CURVE SMOOTH",
"439 234 OFFCURVE",
"443 229 OFFCURVE",
"443 229 CURVE",
"473 220 OFFCURVE",
"503 217 OFFCURVE",
"530 217 CURVE SMOOTH",
"678 217 OFFCURVE",
"783 326 OFFCURVE",
"783 426 CURVE SMOOTH",
"783 479 OFFCURVE",
"754 528 OFFCURVE",
"688 559 CURVE",
"716 577 OFFCURVE",
"743 588 OFFCURVE",
"770 588 CURVE SMOOTH",
"811 588 OFFCURVE",
"846 564 OFFCURVE",
"854 543 CURVE",
"854 592 OFFCURVE",
"814 607 OFFCURVE",
"779 607 CURVE SMOOTH",
"743 607 OFFCURVE",
"705 593 OFFCURVE",
"665 568 CURVE",
"626 582 OFFCURVE",
"578 590 OFFCURVE",
"518 590 CURVE SMOOTH",
"238 590 OFFCURVE",
"80 421 OFFCURVE",
"80 303 CURVE SMOOTH",
"80 244 OFFCURVE",
"119 198 OFFCURVE",
"202 192 CURVE SMOOTH",
"208 191 OFFCURVE",
"211 193 OFFCURVE",
"211 195 CURVE SMOOTH",
"211 197 OFFCURVE",
"209 198 OFFCURVE",
"205 198 CURVE SMOOTH",
"143 203 OFFCURVE",
"115 238 OFFCURVE",
"115 284 CURVE SMOOTH",
"115 395 OFFCURVE",
"280 576 OFFCURVE",
"522 576 CURVE SMOOTH",
"573 576 OFFCURVE",
"614 568 OFFCURVE",
"645 556 CURVE",
"558 496 OFFCURVE",
"468 392 OFFCURVE",
"399 292 CURVE SMOOTH",
"350 222 OFFCURVE",
"300 154 OFFCURVE",
"257 102 CURVE SMOOTH",
"210 46 OFFCURVE",
"185 10 OFFCURVE",
"113 10 CURVE SMOOTH",
"90 10 LINE",
"68 13 OFFCURVE",
"48 16 OFFCURVE",
"28 16 CURVE SMOOTH",
"17 16 LINE SMOOTH",
"0 15 OFFCURVE",
"-22 8 OFFCURVE",
"-23 -12 CURVE SMOOTH",
"-23 -18 OFFCURVE",
"-22 -24 OFFCURVE",
"-16 -24 CURVE",
"1 -5 OFFCURVE",
"25 2 OFFCURVE",
"53 2 CURVE SMOOTH",
"82 2 OFFCURVE",
"115 -6 OFFCURVE",
"149 -13 CURVE SMOOTH",
"218 -28 OFFCURVE",
"276 -35 OFFCURVE",
"324 -35 CURVE SMOOTH"
);
}
);
width = 667;
}
);
note = P;
unicode = 0050;
},
{
glyphname = Thorn;
lastChange = "2021-10-28 15:25:37 +0000";
layers = (
{
layerId = "E44713F8-1D5D-4793-848D-DDEAC8E4A199";
paths = (
{
closed = 1;
nodes = (
"-10 -157 OFFCURVE",
"8 -154 OFFCURVE",
"20 -150 CURVE SMOOTH",
"147 -112 OFFCURVE",
"252 8 OFFCURVE",
"337 134 CURVE",
"364 131 OFFCURVE",
"390 129 OFFCURVE",
"412 130 CURVE SMOOTH",
"578 133 OFFCURVE",
"701 265 OFFCURVE",
"701 378 CURVE SMOOTH",
"701 436 OFFCURVE",
"668 489 OFFCURVE",
"591 517 CURVE",
"632 559 OFFCURVE",
"682 590 OFFCURVE",
"741 591 CURVE SMOOTH",
"768 591 OFFCURVE",
"786 586 OFFCURVE",
"801 574 CURVE",
"796 589 OFFCURVE",
"784 598 OFFCURVE",
"772 602 CURVE SMOOTH",
"758 608 OFFCURVE",
"741 610 OFFCURVE",
"725 610 CURVE SMOOTH",
"707 610 OFFCURVE",
"691 608 OFFCURVE",
"680 604 CURVE SMOOTH",
"633 590 OFFCURVE",
"591 563 OFFCURVE",
"553 527 CURVE",
"526 533 OFFCURVE",
"494 537 OFFCURVE",
"458 537 CURVE SMOOTH",
"212 537 OFFCURVE",
"97 424 OFFCURVE",
"97 338 CURVE SMOOTH",
"97 290 OFFCURVE",
"133 251 OFFCURVE",
"204 246 CURVE SMOOTH",
"212 246 OFFCURVE",
"214 250 OFFCURVE",
"206 250 CURVE SMOOTH",
"153 254 OFFCURVE",
"128 283 OFFCURVE",
"128 320 CURVE SMOOTH",
"128 401 OFFCURVE",
"248 524 OFFCURVE",
"462 524 CURVE SMOOTH",
"493 524 OFFCURVE",
"519 521 OFFCURVE",
"542 517 CURVE",
"450 425 OFFCURVE",
"380 283 OFFCURVE",
"305 154 CURVE",
"254 161 OFFCURVE",
"215 167 OFFCURVE",
"187 167 CURVE SMOOTH",
"175 167 OFFCURVE",
"166 166 OFFCURVE",
"158 164 CURVE SMOOTH",
"135 156 OFFCURVE",
"127 140 OFFCURVE",
"127 128 CURVE SMOOTH",
"127 121 OFFCURVE",
"129 115 OFFCURVE",
"133 112 CURVE",
"149 135 OFFCURVE",
"193 142 OFFCURVE",
"235 142 CURVE SMOOTH",
"247 142 OFFCURVE",
"258 142 OFFCURVE",
"269 141 CURVE SMOOTH",
"296 138 LINE",
"207 -11 OFFCURVE",
"111 -139 OFFCURVE",
"-36 -139 CURVE SMOOTH",
"-63 -140 OFFCURVE",
"-80 -134 OFFCURVE",
"-95 -122 CURVE",
"-91 -138 OFFCURVE",
"-78 -146 OFFCURVE",
"-67 -151 CURVE SMOOTH",
"-55 -156 OFFCURVE",
"-41 -157 OFFCURVE",
"-28 -157 CURVE SMOOTH"
);
},
{
closed = 1;
nodes = (
"369 147 OFFCURVE",
"362 147 OFFCURVE",
"354 148 CURVE SMOOTH",
"352 148 OFFCURVE",
"349 148 OFFCURVE",
"347 149 CURVE",
"410 243 OFFCURVE",
"462 339 OFFCURVE",
"505 405 CURVE SMOOTH",
"527 438 OFFCURVE",
"552 474 OFFCURVE",
"580 506 CURVE",
"637 485 OFFCURVE",
"660 446 OFFCURVE",
"660 402 CURVE SMOOTH",
"660 292 OFFCURVE",
"514 147 OFFCURVE",
"377 147 CURVE SMOOTH"
);
}
);
width = 683;
}
);
note = Thorn;
unicode = 00DE;
},
{
glyphname = Q;
lastChange = "2021-10-28 15:25:37 +0000";
layers = (
{
layerId = "E44713F8-1D5D-4793-848D-DDEAC8E4A199";
paths = (
{
closed = 1;
nodes = (
"540 -209 OFFCURVE",
"595 -179 OFFCURVE",
"595 -122 CURVE SMOOTH",
"595 -73 OFFCURVE",
"541 -40 OFFCURVE",
"500 -29 CURVE SMOOTH",
"478 -23 OFFCURVE",
"443 -20 OFFCURVE",
"421 -20 CURVE SMOOTH",
"415 -20 OFFCURVE",
"399 -22 OFFCURVE",
"400 -26 CURVE",
"426 -26 OFFCURVE",
"468 -33 OFFCURVE",
"497 -42 CURVE SMOOTH",
"539 -55 OFFCURVE",
"557 -80 OFFCURVE",
"557 -105 CURVE SMOOTH",
"557 -150 OFFCURVE",
"513 -168 OFFCURVE",
"476 -168 CURVE SMOOTH",
"429 -168 OFFCURVE",
"374 -149 OFFCURVE",
"337 -130 CURVE SMOOTH",
"271 -97 OFFCURVE",
"183 -48 OFFCURVE",
"124 -21 CURVE",
"295 -6 OFFCURVE",
"542 188 OFFCURVE",
"599 413 CURVE SMOOTH",
"605 436 OFFCURVE",
"608 457 OFFCURVE",
"608 475 CURVE SMOOTH",
"608 540 OFFCURVE",
"573 578 OFFCURVE",
"505 578 CURVE SMOOTH",
"345 578 OFFCURVE",
"122 348 OFFCURVE",
"72 185 CURVE SMOOTH",
"65 163 OFFCURVE",
"62 144 OFFCURVE",
"62 128 CURVE SMOOTH",
"62 81 OFFCURVE",
"89 58 OFFCURVE",
"129 58 CURVE SMOOTH",
"264 58 OFFCURVE",
"461 276 OFFCURVE",
"496 430 CURVE SMOOTH",
"499 441 OFFCURVE",
"495 450 OFFCURVE",
"492 450 CURVE SMOOTH",
"490 450 OFFCURVE",
"488 447 OFFCURVE",
"487 442 CURVE SMOOTH",
"445 261 OFFCURVE",
"242 75 OFFCURVE",
"135 75 CURVE SMOOTH",
"110 75 OFFCURVE",
"92 88 OFFCURVE",
"92 122 CURVE SMOOTH",
"92 136 OFFCURVE",
"95 154 OFFCURVE",
"102 176 CURVE SMOOTH",
"154 339 OFFCURVE",
"354 565 OFFCURVE",
"502 565 CURVE SMOOTH",
"544 565 OFFCURVE",
"563 540 OFFCURVE",
"563 498 CURVE SMOOTH",
"563 481 OFFCURVE",
"560 461 OFFCURVE",
"554 438 CURVE SMOOTH",
"506 251 OFFCURVE",
"248 0 OFFCURVE",
"109 -14 CURVE",
"73 -1 OFFCURVE",
"47 2 OFFCURVE",
"26 5 CURVE SMOOTH",
"12 6 OFFCURVE",
"-5 8 OFFCURVE",
"-20 8 CURVE SMOOTH",
"-46 8 OFFCURVE",
"-69 4 OFFCURVE",
"-76 -11 CURVE",
"-76 -12 OFFCURVE",
"-77 -13 OFFCURVE",
"-77 -14 CURVE",
"-85 -24 OFFCURVE",
"-70 -47 OFFCURVE",
"-13 -47 CURVE SMOOTH",
"-7 -47 OFFCURVE",
"0 -47 OFFCURVE",
"7 -46 CURVE",
"31 -46 OFFCURVE",
"72 -38 OFFCURVE",
"96 -26 CURVE",
"157 -26 OFFCURVE",
"335 -209 OFFCURVE",
"471 -209 CURVE SMOOTH"
);
}
);
width = 494;
}
);
note = Q;
unicode = 0051;
},
{
glyphname = R;
lastChange = "2021-10-28 15:26:12 +0000";
layers = (
{
anchors = (
{
name = bottom;
position = "{361, 0}";
},
{
name = top;
position = "{787, 607}";
}
);
background = {
paths = (
{
closed = 0;
nodes = (
"577 -2 LINE SMOOTH",
"626 -2 OFFCURVE",
"660 19 OFFCURVE",
"721 91 CURVE SMOOTH",
"724 95 OFFCURVE",
"725 100 OFFCURVE",
"725 105 CURVE SMOOTH",
"725 108 OFFCURVE",
"724 111 OFFCURVE",
"721 111 CURVE",
"694 80 OFFCURVE",
"666 47 OFFCURVE",
"627 25 CURVE SMOOTH"
);
}
);
};
layerId = "E44713F8-1D5D-4793-848D-DDEAC8E4A199";
paths = (
{
closed = 1;
nodes = (
"210 -37 OFFCURVE",
"313 117 OFFCURVE",
"406 246 CURVE SMOOTH",
"471 336 OFFCURVE",
"568 485 OFFCURVE",
"673 553 CURVE",
"704 529 OFFCURVE",
"718 498 OFFCURVE",
"718 466 CURVE SMOOTH",
"718 395 OFFCURVE",
"639 301 OFFCURVE",
"558 292 CURVE",
"554 306 OFFCURVE",
"544 314 OFFCURVE",
"530 314 CURVE SMOOTH",
"523 314 OFFCURVE",
"520 310 OFFCURVE",
"520 306 CURVE SMOOTH",
"520 298 OFFCURVE",
"529 287 OFFCURVE",
"546 285 CURVE",
"548 283 OFFCURVE",
"548 279 OFFCURVE",
"548 275 CURVE SMOOTH",
"548 237 OFFCURVE",
"489 128 OFFCURVE",
"489 62 CURVE SMOOTH",
"489 2 OFFCURVE",
"519 -14 OFFCURVE",
"550 -14 CURVE SMOOTH",
"613 -14 OFFCURVE",
"660 19 OFFCURVE",
"721 91 CURVE SMOOTH",
"724 95 OFFCURVE",
"725 100 OFFCURVE",
"725 105 CURVE SMOOTH",
"725 108 OFFCURVE",
"724 111 OFFCURVE",
"721 111 CURVE",
"694 80 OFFCURVE",
"635 11 OFFCURVE",
"586 11 CURVE SMOOTH",
"550 11 OFFCURVE",
"540 52 OFFCURVE",
"540 97 CURVE SMOOTH",
"540 136 OFFCURVE",
"548 178 OFFCURVE",
"551 195 CURVE SMOOTH",
"557 225 OFFCURVE",
"560 250 OFFCURVE",
"560 269 CURVE SMOOTH",
"560 275 OFFCURVE",
"560 281 OFFCURVE",
"559 286 CURVE",
"669 286 OFFCURVE",
"762 371 OFFCURVE",
"762 454 CURVE SMOOTH",
"762 495 OFFCURVE",
"742 536 OFFCURVE",
"695 565 CURVE",
"722 579 OFFCURVE",
"750 588 OFFCURVE",
"778 588 CURVE SMOOTH",
"819 588 OFFCURVE",
"854 564 OFFCURVE",
"862 543 CURVE",
"862 592 OFFCURVE",
"822 607 OFFCURVE",
"787 607 CURVE SMOOTH",
"752 607 OFFCURVE",
"715 595 OFFCURVE",
"680 574 CURVE",
"641 593 OFFCURVE",
"587 606 OFFCURVE",
"514 606 CURVE SMOOTH",
"244 606 OFFCURVE",
"81 431 OFFCURVE",
"81 312 CURVE SMOOTH",
"81 255 OFFCURVE",
"118 211 OFFCURVE",
"198 205 CURVE SMOOTH",
"204 204 OFFCURVE",
"207 206 OFFCURVE",
"207 208 CURVE SMOOTH",
"207 209 OFFCURVE",
"205 211 OFFCURVE",
"201 211 CURVE SMOOTH",
"140 216 OFFCURVE",
"114 249 OFFCURVE",
"114 293 CURVE SMOOTH",
"114 406 OFFCURVE",
"286 593 OFFCURVE",
"518 593 CURVE SMOOTH",
"582 593 OFFCURVE",
"628 581 OFFCURVE",
"660 562 CURVE",
"555 493 OFFCURVE",
"454 359 OFFCURVE",
"390 269 CURVE SMOOTH",
"298 144 OFFCURVE",
"170 10 OFFCURVE",
"69 10 CURVE SMOOTH",
"29 10 OFFCURVE",
"11 28 OFFCURVE",
"10 51 CURVE SMOOTH",
"10 60 OFFCURVE",
"12 74 OFFCURVE",
"17 80 CURVE",
"-3 79 OFFCURVE",
"-17 51 OFFCURVE",
"-17 32 CURVE SMOOTH",
"-17 -21 OFFCURVE",
"34 -37 OFFCURVE",
"70 -37 CURVE SMOOTH"
);
}
);
width = 721;
}
);
note = R;
unicode = 0052;
},
{
glyphname = S;
lastChange = "2021-10-28 15:26:12 +0000";
layers = (
{
anchors = (
{
name = bottom;
position = "{100, -70}";
},
{
name = top;
position = "{657, 556}";
}
);
layerId = "E44713F8-1D5D-4793-848D-DDEAC8E4A199";
paths = (
{
closed = 1;
nodes = (
"289 -162 OFFCURVE",
"331 -147 OFFCURVE",
"331 -132 CURVE SMOOTH",
"331 -129 OFFCURVE",
"330 -126 OFFCURVE",
"328 -126 CURVE SMOOTH",
"327 -126 OFFCURVE",
"326 -127 OFFCURVE",
"326 -127 CURVE",
"302 -143 OFFCURVE",
"285 -148 OFFCURVE",
"264 -148 CURVE SMOOTH",
"193 -148 OFFCURVE",
"161 -105 OFFCURVE",
"151 -51 CURVE",
"159 -52 OFFCURVE",
"168 -53 OFFCURVE",
"177 -53 CURVE SMOOTH",
"231 -53 OFFCURVE",
"294 -33 OFFCURVE",
"345 8 CURVE SMOOTH",
"446 89 OFFCURVE",
"481 217 OFFCURVE",
"521 337 CURVE",
"603 375 OFFCURVE",
"714 435 OFFCURVE",
"714 509 CURVE SMOOTH",
"714 535 OFFCURVE",
"698 556 OFFCURVE",
"657 556 CURVE SMOOTH",
"611 556 OFFCURVE",
"572 521 OFFCURVE",
"546 484 CURVE SMOOTH",
"514 438 OFFCURVE",
"490 385 OFFCURVE",
"467 330 CURVE",
"453 324 LINE SMOOTH",
"436 317 OFFCURVE",
"419 309 OFFCURVE",
"403 301 CURVE",
"405 314 OFFCURVE",
"407 327 OFFCURVE",
"407 340 CURVE SMOOTH",
"407 404 OFFCURVE",
"377 472 OFFCURVE",
"295 472 CURVE SMOOTH",
"121 472 OFFCURVE",
"1 275 OFFCURVE",
"1 123 CURVE SMOOTH",
"1 43 OFFCURVE",
"35 -23 OFFCURVE",
"116 -45 CURVE",
"130 -121 OFFCURVE",
"191 -162 OFFCURVE",
"259 -162 CURVE SMOOTH"
);
},
{
closed = 1;
nodes = (
"61 -12 OFFCURVE",
"42 44 OFFCURVE",
"42 112 CURVE SMOOTH",
"42 257 OFFCURVE",
"153 458 OFFCURVE",
"292 458 CURVE SMOOTH",
"360 458 OFFCURVE",
"381 392 OFFCURVE",
"381 335 CURVE SMOOTH",
"381 319 OFFCURVE",
"379 303 OFFCURVE",
"375 288 CURVE",
"229 214 OFFCURVE",
"113 117 OFFCURVE",
"113 -11 CURVE SMOOTH",
"113 -17 OFFCURVE",
"113 -24 OFFCURVE",
"114 -30 CURVE"
);
},
{
closed = 1;
nodes = (
"148 -28 OFFCURVE",
"148 -20 OFFCURVE",
"148 -12 CURVE SMOOTH",
"148 100 OFFCURVE",
"254 194 OFFCURVE",
"368 261 CURVE",
"342 182 OFFCURVE",
"278 111 OFFCURVE",
"219 67 CURVE SMOOTH",
"217 65 OFFCURVE",
"217 64 OFFCURVE",
"217 62 CURVE SMOOTH",
"217 60 OFFCURVE",
"219 59 OFFCURVE",
"222 59 CURVE SMOOTH",
"226 59 OFFCURVE",
"231 61 OFFCURVE",
"235 64 CURVE SMOOTH",
"304 115 OFFCURVE",
"372 195 OFFCURVE",
"397 277 CURVE",
"458 309 LINE",
"421 216 OFFCURVE",
"385 121 OFFCURVE",
"319 52 CURVE SMOOTH",
"255 -15 OFFCURVE",
"197 -36 OFFCURVE",
"153 -36 CURVE SMOOTH",
"149 -36 LINE"
);
},
{
closed = 1;
nodes = (
"541 396 OFFCURVE",
"556 434 OFFCURVE",
"574 468 CURVE SMOOTH",
"591 499 OFFCURVE",
"624 543 OFFCURVE",
"663 543 CURVE SMOOTH",
"686 543 OFFCURVE",
"693 526 OFFCURVE",
"693 508 CURVE SMOOTH",
"693 448 OFFCURVE",
"605 394 OFFCURVE",
"528 357 CURVE"
);
}
);
width = 509;
}
);
note = S;
unicode = 0053;
},
{
glyphname = Germandbls;
lastChange = "2021-10-28 15:25:37 +0000";
layers = (
{
layerId = "E44713F8-1D5D-4793-848D-DDEAC8E4A199";
paths = (
{
closed = 1;
nodes = (
"-86 -93 OFFCURVE",
"-66 -81 OFFCURVE",
"-53 -66 CURVE SMOOTH",
"8 4 OFFCURVE",
"130 173 OFFCURVE",
"196 284 CURVE SMOOTH",
"287 437 OFFCURVE",
"368 552 OFFCURVE",
"459 552 CURVE SMOOTH",
"508 552 OFFCURVE",
"523 524 OFFCURVE",
"523 492 CURVE SMOOTH",
"523 460 OFFCURVE",
"507 423 OFFCURVE",
"496 407 CURVE SMOOTH",
"472 372 OFFCURVE",
"432 348 OFFCURVE",
"398 336 CURVE SMOOTH",
"375 328 OFFCURVE",
"336 319 OFFCURVE",
"323 319 CURVE SMOOTH",
"312 319 OFFCURVE",
"309 316 OFFCURVE",
"309 313 CURVE SMOOTH",
"309 310 OFFCURVE",
"312 306 OFFCURVE",
"314 304 CURVE",
"318 294 OFFCURVE",
"320 277 OFFCURVE",
"320 257 CURVE SMOOTH",
"320 210 OFFCURVE",
"310 147 OFFCURVE",
"299 123 CURVE SMOOTH",
"274 71 OFFCURVE",
"242 19 OFFCURVE",
"196 19 CURVE SMOOTH",
"168 19 OFFCURVE",
"145 35 OFFCURVE",
"145 54 CURVE SMOOTH",
"145 60 OFFCURVE",
"147 65 OFFCURVE",
"151 71 CURVE",
"152 82 OFFCURVE",
"145 88 OFFCURVE",
"137 88 CURVE SMOOTH",
"128 88 OFFCURVE",
"116 78 OFFCURVE",
"116 54 CURVE SMOOTH",
"116 16 OFFCURVE",
"151 2 OFFCURVE",
"196 2 CURVE SMOOTH",
"251 2 OFFCURVE",
"311 43 OFFCURVE",
"338 101 CURVE SMOOTH",
"356 139 OFFCURVE",
"362 178 OFFCURVE",
"362 213 CURVE SMOOTH",
"362 255 OFFCURVE",
"353 291 OFFCURVE",
"345 309 CURVE",
"441 330 OFFCURVE",
"571 402 OFFCURVE",
"571 498 CURVE SMOOTH",
"571 549 OFFCURVE",
"526 568 OFFCURVE",
"471 568 CURVE SMOOTH",
"392 568 OFFCURVE",
"319 514 OFFCURVE",
"269 463 CURVE SMOOTH",
"94 288 OFFCURVE",
"70 121 OFFCURVE",
"-88 -80 CURVE SMOOTH",
"-93 -86 OFFCURVE",
"-95 -89 OFFCURVE",
"-95 -91 CURVE SMOOTH",
"-95 -92 OFFCURVE",
"-94 -93 OFFCURVE",
"-93 -93 CURVE SMOOTH"
);
}
);
width = 430;
}
);
unicode = 1E9E;
},
{
glyphname = Schwa;
lastChange = "2021-10-28 15:25:37 +0000";
layers = (
{
layerId = "E44713F8-1D5D-4793-848D-DDEAC8E4A199";
paths = (
{
closed = 1;
nodes = (
"213 -27 OFFCURVE",
"345 112 OFFCURVE",
"421 208 CURVE SMOOTH",
"485 288 OFFCURVE",
"531 375 OFFCURVE",
"531 450 CURVE SMOOTH",
"531 526 OFFCURVE",
"477 575 OFFCURVE",
"396 575 CURVE SMOOTH",
"268 575 OFFCURVE",
"190 488 OFFCURVE",
"121 409 CURVE",
"119 402 OFFCURVE",
"115 397 OFFCURVE",
"115 394 CURVE SMOOTH",
"115 392 OFFCURVE",
"117 391 OFFCURVE",
"126 391 CURVE",
"195 471 OFFCURVE",
"269 555 OFFCURVE",
"376 555 CURVE SMOOTH",
"426 555 OFFCURVE",
"462 523 OFFCURVE",
"462 461 CURVE SMOOTH",
"462 281 OFFCURVE",
"254 -3 OFFCURVE",
"88 -4 CURVE SMOOTH",
"62 -4 OFFCURVE",
"48 10 OFFCURVE",
"48 32 CURVE SMOOTH",
"48 77 OFFCURVE",
"124 150 OFFCURVE",
"145 167 CURVE SMOOTH",
"206 220 OFFCURVE",
"365 294 OFFCURVE",
"450 319 CURVE",
"460 342 LINE",
"372 323 OFFCURVE",
"225 256 OFFCURVE",
"147 196 CURVE SMOOTH",
"77 144 OFFCURVE",
"23 87 OFFCURVE",
"23 27 CURVE SMOOTH",
"23 -18 OFFCURVE",
"50 -27 OFFCURVE",
"77 -27 CURVE SMOOTH"
);
}
);
width = 581;
}
);
unicode = 018F;
},
{
glyphname = T;
lastChange = "2021-10-28 15:26:12 +0000";
layers = (
{
anchors = (
{
name = bottom;
position = "{100, -18}";
},
{
name = center;
position = "{570, 419}";
},
{
name = top;
position = "{698, 550}";
}
);
layerId = "E44713F8-1D5D-4793-848D-DDEAC8E4A199";
paths = (
{
closed = 1;
nodes = (
"343 -25 OFFCURVE",
"448 190 OFFCURVE",
"553 370 CURVE SMOOTH",
"598 448 OFFCURVE",
"652 503 OFFCURVE",
"685 525 CURVE",
"724 520 OFFCURVE",
"764 517 OFFCURVE",
"805 517 CURVE SMOOTH",
"831 518 OFFCURVE",
"863 529 OFFCURVE",
"863 552 CURVE SMOOTH",
"863 560 OFFCURVE",
"857 563 OFFCURVE",
"852 563 CURVE SMOOTH",
"850 563 LINE",
"834 547 OFFCURVE",
"782 542 OFFCURVE",
"723 542 CURVE SMOOTH",
"616 542 OFFCURVE",
"523 563 OFFCURVE",
"424 568 CURVE SMOOTH",
"413 569 OFFCURVE",
"402 569 OFFCURVE",
"391 569 CURVE SMOOTH",
"303 569 OFFCURVE",
"246 546 OFFCURVE",
"209 495 CURVE SMOOTH",
"200 483 OFFCURVE",
"195 466 OFFCURVE",
"195 448 CURVE SMOOTH",
"195 429 OFFCURVE",
"201 409 OFFCURVE",
"215 394 CURVE SMOOTH",
"220 389 OFFCURVE",
"230 383 OFFCURVE",
"239 383 CURVE SMOOTH",
"243 383 OFFCURVE",
"247 384 OFFCURVE",
"250 387 CURVE",
"245 387 OFFCURVE",
"237 394 OFFCURVE",
"232 400 CURVE SMOOTH",
"228 407 OFFCURVE",
"225 416 OFFCURVE",
"225 426 CURVE SMOOTH",
"225 440 OFFCURVE",
"230 457 OFFCURVE",
"242 473 CURVE SMOOTH",
"284 530 OFFCURVE",
"370 546 OFFCURVE",
"460 546 CURVE SMOOTH",
"471 546 OFFCURVE",
"483 545 OFFCURVE",
"495 545 CURVE SMOOTH",
"556 543 OFFCURVE",
"613 534 OFFCURVE",
"670 527 CURVE",
"627 498 OFFCURVE",
"570 434 OFFCURVE",
"526 376 CURVE SMOOTH",
"460 289 OFFCURVE",
"399 193 OFFCURVE",
"350 137 CURVE SMOOTH",
"291 71 OFFCURVE",
"220 -8 OFFCURVE",
"132 -8 CURVE SMOOTH",
"75 -8 OFFCURVE",
"51 23 OFFCURVE",
"51 63 CURVE SMOOTH",
"51 68 OFFCURVE",
"51 73 OFFCURVE",
"52 79 CURVE SMOOTH",
"61 132 OFFCURVE",
"92 179 OFFCURVE",
"122 211 CURVE SMOOTH",
"179 271 OFFCURVE",
"271 324 OFFCURVE",
"353 324 CURVE SMOOTH",
"364 324 OFFCURVE",
"374 322 OFFCURVE",
"383 322 CURVE SMOOTH",
"389 322 OFFCURVE",
"392 323 OFFCURVE",
"392 325 CURVE SMOOTH",
"392 326 OFFCURVE",
"389 328 OFFCURVE",
"380 330 CURVE SMOOTH",
"364 332 OFFCURVE",
"349 333 OFFCURVE",
"334 333 CURVE SMOOTH",
"239 333 OFFCURVE",
"156 293 OFFCURVE",
"94 235 CURVE SMOOTH",
"44 190 OFFCURVE",
"14 131 OFFCURVE",
"14 79 CURVE SMOOTH",
"14 55 OFFCURVE",
"21 33 OFFCURVE",
"35 15 CURVE SMOOTH",
"57 -9 OFFCURVE",
"91 -25 OFFCURVE",
"144 -25 CURVE SMOOTH"
);
}
);
width = 516;
}
);
note = T;
unicode = 0054;
},
{
glyphname = U;
lastChange = "2021-10-28 15:26:12 +0000";
layers = (
{
anchors = (
{
name = bottom;
position = "{173, 0}";
},
{
name = ogonek;
position = "{415, 10}";
},
{
name = top;
position = "{585, 545}";
},
{
name = topright;
position = "{556, 458}";
}
);
background = {
paths = (
{
closed = 0;
nodes = (
"331 -2 LINE SMOOTH",
"380 -2 OFFCURVE",
"414 19 OFFCURVE",
"475 91 CURVE SMOOTH",
"478 95 OFFCURVE",
"479 100 OFFCURVE",
"479 105 CURVE SMOOTH",
"479 108 OFFCURVE",
"478 111 OFFCURVE",
"475 111 CURVE",
"448 80 OFFCURVE",
"420 47 OFFCURVE",
"381 25 CURVE SMOOTH"
);
}
);
};
layerId = "E44713F8-1D5D-4793-848D-DDEAC8E4A199";
paths = (
{
closed = 1;
nodes = (
"122 -9 OFFCURVE",
"169 17 OFFCURVE",
"210 57 CURVE SMOOTH",
"272 116 OFFCURVE",
"306 168 OFFCURVE",
"363 233 CURVE",
"336 195 OFFCURVE",
"312 155 OFFCURVE",
"298 120 CURVE SMOOTH",
"292 103 OFFCURVE",
"286 79 OFFCURVE",
"286 57 CURVE SMOOTH",
"286 26 OFFCURVE",
"298 -2 OFFCURVE",
"334 -2 CURVE SMOOTH",
"380 -2 OFFCURVE",
"414 19 OFFCURVE",
"475 91 CURVE SMOOTH",
"478 95 OFFCURVE",
"479 100 OFFCURVE",
"479 105 CURVE SMOOTH",
"479 108 OFFCURVE",
"478 111 OFFCURVE",
"475 111 CURVE",
"442 74 OFFCURVE",
"420 47 OFFCURVE",
"381 25 CURVE SMOOTH",
"371 20 OFFCURVE",
"364 18 OFFCURVE",
"358 18 CURVE SMOOTH",
"342 18 OFFCURVE",
"337 32 OFFCURVE",
"337 49 CURVE SMOOTH",
"337 58 OFFCURVE",
"338 67 OFFCURVE",
"340 75 CURVE SMOOTH",
"361 174 OFFCURVE",
"442 283 OFFCURVE",
"533 391 CURVE SMOOTH",
"557 419 OFFCURVE",
"587 446 OFFCURVE",
"600 458 CURVE",
"570 458 OFFCURVE",
"525 424 OFFCURVE",
"491 390 CURVE SMOOTH",
"483 382 LINE SMOOTH",
"454 353 OFFCURVE",
"426 325 OFFCURVE",
"398 296 CURVE SMOOTH",
"330 220 OFFCURVE",
"273 138 OFFCURVE",
"202 70 CURVE SMOOTH",
"165 33 OFFCURVE",
"130 10 OFFCURVE",
"104 10 CURVE SMOOTH",
"93 10 OFFCURVE",
"88 14 OFFCURVE",
"88 27 CURVE SMOOTH",
"88 48 OFFCURVE",
"103 87 OFFCURVE",
"130 130 CURVE SMOOTH",
"198 241 OFFCURVE",
"324 390 OFFCURVE",
"342 410 CURVE SMOOTH",
"362 434 OFFCURVE",
"415 494 OFFCURVE",
"464 533 CURVE",
"486 535 OFFCURVE",
"493 557 OFFCURVE",
"486 558 CURVE",
"469 555 OFFCURVE",
"452 554 OFFCURVE",
"434 554 CURVE SMOOTH",
"391 554 OFFCURVE",
"346 560 OFFCURVE",
"308 563 CURVE SMOOTH",
"281 565 OFFCURVE",
"254 567 OFFCURVE",
"228 567 CURVE SMOOTH",
"198 567 OFFCURVE",
"169 564 OFFCURVE",
"142 558 CURVE SMOOTH",
"69 542 OFFCURVE",
"2 497 OFFCURVE",
"2 423 CURVE SMOOTH",
"2 386 OFFCURVE",
"18 350 OFFCURVE",
"68 350 CURVE SMOOTH",
"73 350 OFFCURVE",
"79 351 OFFCURVE",
"84 352 CURVE SMOOTH",
"92 355 OFFCURVE",
"95 360 OFFCURVE",
"95 362 CURVE SMOOTH",
"95 363 OFFCURVE",
"95 363 OFFCURVE",
"94 363 CURVE SMOOTH",
"88 362 OFFCURVE",
"83 361 OFFCURVE",
"78 361 CURVE SMOOTH",
"46 361 OFFCURVE",
"35 385 OFFCURVE",
"35 411 CURVE SMOOTH",
"35 430 OFFCURVE",
"42 446 OFFCURVE",
"50 459 CURVE SMOOTH",
"101 535 OFFCURVE",
"197 552 OFFCURVE",
"276 552 CURVE SMOOTH",
"319 552 OFFCURVE",
"358 547 OFFCURVE",
"380 544 CURVE SMOOTH",
"399 541 OFFCURVE",
"434 534 OFFCURVE",
"446 535 CURVE",
"398 517 OFFCURVE",
"323 452 OFFCURVE",
"295 423 CURVE SMOOTH",
"210 338 OFFCURVE",
"100 200 OFFCURVE",
"55 94 CURVE SMOOTH",
"46 73 OFFCURVE",
"42 55 OFFCURVE",
"42 40 CURVE SMOOTH",
"42 8 OFFCURVE",
"60 -9 OFFCURVE",
"84 -9 CURVE SMOOTH"
);
}
);
width = 475;
}
);
note = U;
unicode = 0055;
},
{
glyphname = V;
lastChange = "2021-10-28 15:25:37 +0000";
layers = (
{
layerId = "E44713F8-1D5D-4793-848D-DDEAC8E4A199";
paths = (
{
closed = 1;
nodes = (
"150 -54 OFFCURVE",
"182 -39 OFFCURVE",
"210 -18 CURVE",
"261 -18 OFFCURVE",
"397 115 OFFCURVE",
"517 255 CURVE SMOOTH",
"631 387 OFFCURVE",
"798 558 OFFCURVE",
"916 558 CURVE SMOOTH",
"962 558 OFFCURVE",
"983 542 OFFCURVE",
"983 514 CURVE SMOOTH",
"983 503 OFFCURVE",
"978 486 OFFCURVE",
"973 479 CURVE",
"992 483 OFFCURVE",
"1003 506 OFFCURVE",
"1003 524 CURVE SMOOTH",
"1003 576 OFFCURVE",
"958 590 OFFCURVE",
"918 590 CURVE SMOOTH",
"798 590 OFFCURVE",
"625 410 OFFCURVE",
"506 272 CURVE SMOOTH",
"410 160 OFFCURVE",
"300 47 OFFCURVE",
"241 7 CURVE",
"365 116 OFFCURVE",
"461 266 OFFCURVE",
"492 425 CURVE SMOOTH",
"495 440 OFFCURVE",
"496 454 OFFCURVE",
"496 467 CURVE SMOOTH",
"496 536 OFFCURVE",
"457 583 OFFCURVE",
"381 583 CURVE SMOOTH",
"224 583 OFFCURVE",
"27 367 OFFCURVE",
"0 206 CURVE SMOOTH",
"-2 193 OFFCURVE",
"-3 181 OFFCURVE",
"-3 170 CURVE SMOOTH",
"-3 106 OFFCURVE",
"31 75 OFFCURVE",
"78 75 CURVE SMOOTH",
"213 75 OFFCURVE",
"394 291 OFFCURVE",
"394 458 CURVE SMOOTH",
"394 469 OFFCURVE",
"387 480 OFFCURVE",
"383 480 CURVE SMOOTH",
"381 480 OFFCURVE",
"380 477 OFFCURVE",
"380 472 CURVE SMOOTH",
"378 276 OFFCURVE",
"183 95 OFFCURVE",
"78 95 CURVE SMOOTH",
"47 95 OFFCURVE",
"28 110 OFFCURVE",
"28 154 CURVE SMOOTH",
"28 166 OFFCURVE",
"29 179 OFFCURVE",
"32 195 CURVE SMOOTH",
"60 355 OFFCURVE",
"231 567 OFFCURVE",
"379 570 CURVE SMOOTH",
"428 570 OFFCURVE",
"450 535 OFFCURVE",
"450 482 CURVE SMOOTH",
"450 468 OFFCURVE",
"448 452 OFFCURVE",
"445 435 CURVE SMOOTH",
"412 266 OFFCURVE",
"277 53 OFFCURVE",
"149 -44 CURVE SMOOTH",
"143 -48 OFFCURVE",
"141 -51 OFFCURVE",
"141 -53 CURVE SMOOTH",
"141 -54 OFFCURVE",
"142 -54 OFFCURVE",
"143 -54 CURVE SMOOTH"
);
}
);
width = 504;
}
);
note = V;
unicode = 0056;
},
{
glyphname = W;
lastChange = "2021-10-28 15:26:12 +0000";
layers = (
{
anchors = (
{
name = bottom;
position = "{333, 0}";
},
{
name = top;
position = "{732, 565}";
}
);
layerId = "E44713F8-1D5D-4793-848D-DDEAC8E4A199";
paths = (
{
closed = 1;
nodes = (
"134 -54 OFFCURVE",
"173 -34 OFFCURVE",
"202 -10 CURVE SMOOTH",
"212 -1 OFFCURVE",
"223 7 OFFCURVE",
"233 17 CURVE",
"339 95 OFFCURVE",
"480 269 OFFCURVE",
"570 378 CURVE SMOOTH",
"598 412 OFFCURVE",
"630 454 OFFCURVE",
"648 470 CURVE SMOOTH",
"656 476 OFFCURVE",
"662 478 OFFCURVE",
"665 478 CURVE SMOOTH",
"668 478 OFFCURVE",
"669 476 OFFCURVE",
"669 473 CURVE SMOOTH",
"669 468 OFFCURVE",
"666 460 OFFCURVE",
"663 455 CURVE SMOOTH",
"617 366 OFFCURVE",
"556 272 OFFCURVE",
"494 184 CURVE SMOOTH",
"450 122 OFFCURVE",
"405 60 OFFCURVE",
"367 5 CURVE SMOOTH",
"362 -3 OFFCURVE",
"358 -10 OFFCURVE",
"358 -16 CURVE SMOOTH",
"358 -20 OFFCURVE",
"361 -23 OFFCURVE",
"366 -23 CURVE SMOOTH",
"367 -23 LINE SMOOTH",
"374 -23 OFFCURVE",
"382 -19 OFFCURVE",
"390 -14 CURVE",
"451 9 OFFCURVE",
"571 130 OFFCURVE",
"679 255 CURVE SMOOTH",
"794 387 OFFCURVE",
"961 558 OFFCURVE",
"1078 558 CURVE SMOOTH",
"1125 558 OFFCURVE",
"1146 542 OFFCURVE",
"1146 514 CURVE SMOOTH",
"1146 503 OFFCURVE",
"1141 486 OFFCURVE",
"1135 479 CURVE",
"1154 483 OFFCURVE",
"1166 506 OFFCURVE",
"1166 524 CURVE SMOOTH",
"1166 576 OFFCURVE",
"1120 590 OFFCURVE",
"1080 590 CURVE SMOOTH",
"961 590 OFFCURVE",
"787 410 OFFCURVE",
"669 272 CURVE SMOOTH",
"597 188 OFFCURVE",
"518 105 OFFCURVE",
"458 51 CURVE",
"536 145 OFFCURVE",
"623 300 OFFCURVE",
"653 354 CURVE SMOOTH",
"660 367 OFFCURVE",
"705 439 OFFCURVE",
"705 476 CURVE SMOOTH",
"705 489 OFFCURVE",
"699 498 OFFCURVE",
"684 498 CURVE SMOOTH",
"657 498 OFFCURVE",
"622 465 OFFCURVE",
"569 400 CURVE SMOOTH",
"506 322 OFFCURVE",
"412 205 OFFCURVE",
"326 116 CURVE",
"399 207 OFFCURVE",
"453 314 OFFCURVE",
"474 425 CURVE SMOOTH",
"477 439 OFFCURVE",
"478 453 OFFCURVE",
"478 466 CURVE SMOOTH",
"478 536 OFFCURVE",
"439 583 OFFCURVE",
"363 583 CURVE SMOOTH",
"205 583 OFFCURVE",
"9 367 OFFCURVE",
"-18 206 CURVE SMOOTH",
"-20 192 OFFCURVE",
"-22 180 OFFCURVE",
"-22 169 CURVE SMOOTH",
"-22 106 OFFCURVE",
"13 75 OFFCURVE",
"60 75 CURVE SMOOTH",
"194 75 OFFCURVE",
"376 291 OFFCURVE",
"376 458 CURVE SMOOTH",
"376 469 OFFCURVE",
"369 480 OFFCURVE",
"365 480 CURVE SMOOTH",
"363 480 OFFCURVE",
"362 477 OFFCURVE",
"362 472 CURVE SMOOTH",
"360 276 OFFCURVE",
"165 95 OFFCURVE",
"59 95 CURVE SMOOTH",
"29 95 OFFCURVE",
"10 109 OFFCURVE",
"10 154 CURVE SMOOTH",
"10 165 OFFCURVE",
"11 179 OFFCURVE",
"14 195 CURVE SMOOTH",
"42 355 OFFCURVE",
"213 567 OFFCURVE",
"361 570 CURVE SMOOTH",
"409 570 OFFCURVE",
"431 536 OFFCURVE",
"431 483 CURVE SMOOTH",
"431 468 OFFCURVE",
"430 452 OFFCURVE",
"426 435 CURVE SMOOTH",
"394 266 OFFCURVE",
"258 53 OFFCURVE",
"130 -44 CURVE",
"125 -49 OFFCURVE",
"122 -52 OFFCURVE",
"122 -53 CURVE SMOOTH",
"122 -54 OFFCURVE",
"123 -54 OFFCURVE",
"124 -54 CURVE SMOOTH"
);
}
);
width = 666;
}
);
note = W;
unicode = 0057;
},
{
glyphname = X;
lastChange = "2021-10-28 15:25:37 +0000";
layers = (
{
layerId = "E44713F8-1D5D-4793-848D-DDEAC8E4A199";
paths = (
{
closed = 1;
nodes = (
"22 -24 OFFCURVE",
"66 -18 OFFCURVE",
"108 2 CURVE SMOOTH",
"202 45 OFFCURVE",
"300 118 OFFCURVE",
"381 203 CURVE",
"360 154 OFFCURVE",
"348 105 OFFCURVE",
"348 61 CURVE SMOOTH",
"348 8 OFFCURVE",
"381 -12 OFFCURVE",
"414 -12 CURVE SMOOTH",
"512 -12 OFFCURVE",
"630 98 OFFCURVE",
"682 171 CURVE SMOOTH",
"701 198 OFFCURVE",
"711 223 OFFCURVE",
"711 242 CURVE SMOOTH",
"711 262 OFFCURVE",
"700 275 OFFCURVE",
"677 275 CURVE SMOOTH",
"610 275 OFFCURVE",
"514 177 OFFCURVE",
"479 110 CURVE",
"478 109 OFFCURVE",
"478 107 OFFCURVE",
"478 106 CURVE SMOOTH",
"478 102 OFFCURVE",
"480 102 OFFCURVE",
"482 102 CURVE SMOOTH",
"484 102 OFFCURVE",
"486 102 OFFCURVE",
"487 103 CURVE",
"532 186 OFFCURVE",
"621 256 OFFCURVE",
"658 256 CURVE SMOOTH",
"670 256 OFFCURVE",
"675 249 OFFCURVE",
"675 239 CURVE SMOOTH",
"675 234 OFFCURVE",
"674 228 OFFCURVE",
"672 222 CURVE SMOOTH",
"638 128 OFFCURVE",
"511 9 OFFCURVE",
"430 6 CURVE SMOOTH",
"408 6 OFFCURVE",
"394 22 OFFCURVE",
"394 55 CURVE SMOOTH",
"394 217 OFFCURVE",
"664 596 OFFCURVE",
"834 596 CURVE SMOOTH",
"875 596 OFFCURVE",
"909 574 OFFCURVE",
"915 552 CURVE",
"915 558 LINE SMOOTH",
"915 602 OFFCURVE",
"878 615 OFFCURVE",
"846 615 CURVE SMOOTH",
"755 615 OFFCURVE",
"630 532 OFFCURVE",
"528 422 CURVE",
"535 443 OFFCURVE",
"539 463 OFFCURVE",
"539 482 CURVE SMOOTH",
"539 545 OFFCURVE",
"504 587 OFFCURVE",
"430 587 CURVE SMOOTH",
"227 587 OFFCURVE",
"9 393 OFFCURVE",
"9 232 CURVE SMOOTH",
"9 187 OFFCURVE",
"32 165 OFFCURVE",
"83 165 CURVE SMOOTH",
"188 165 OFFCURVE",
"386 298 OFFCURVE",
"433 458 CURVE SMOOTH",
"434 462 OFFCURVE",
"434 465 OFFCURVE",
"434 467 CURVE SMOOTH",
"434 475 OFFCURVE",
"431 482 OFFCURVE",
"428 482 CURVE SMOOTH",
"426 482 OFFCURVE",
"425 479 OFFCURVE",
"423 474 CURVE SMOOTH",
"366 292 OFFCURVE",
"184 183 OFFCURVE",
"82 183 CURVE SMOOTH",
"58 183 OFFCURVE",
"36 195 OFFCURVE",
"36 224 CURVE SMOOTH",
"36 371 OFFCURVE",
"292 573 OFFCURVE",
"431 573 CURVE SMOOTH",
"480 573 OFFCURVE",
"504 551 OFFCURVE",
"504 499 CURVE SMOOTH",
"504 467 OFFCURVE",
"494 427 OFFCURVE",
"474 387 CURVE SMOOTH",
"393 228 OFFCURVE",
"245 87 OFFCURVE",
"94 18 CURVE SMOOTH",
"50 -2 OFFCURVE",
"3 -15 OFFCURVE",
"-22 -22 CURVE",
"-19 -23 OFFCURVE",
"-13 -24 OFFCURVE",
"-3 -24 CURVE SMOOTH"
);
}
);
width = 663;
}
);
note = X;
unicode = 0058;
},
{
glyphname = Y;
lastChange = "2021-10-28 15:26:12 +0000";
layers = (
{
anchors = (
{
name = bottom;
position = "{373, 0}";
},
{
name = top;
position = "{541, 538}";
},
{
name = topleft;
position = "{20, 565}";
}
);
layerId = "E44713F8-1D5D-4793-848D-DDEAC8E4A199";
paths = (
{
closed = 1;
nodes = (
"235 -272 OFFCURVE",
"426 185 OFFCURVE",
"501 415 CURVE SMOOTH",
"503 422 OFFCURVE",
"501 425 OFFCURVE",
"497 425 CURVE SMOOTH",
"491 425 OFFCURVE",
"482 417 OFFCURVE",
"478 405 CURVE SMOOTH",
"476 398 OFFCURVE",
"473 391 OFFCURVE",
"470 384 CURVE",
"391 284 OFFCURVE",
"285 159 OFFCURVE",
"202 70 CURVE SMOOTH",
"165 33 OFFCURVE",
"130 10 OFFCURVE",
"104 10 CURVE SMOOTH",
"93 10 OFFCURVE",
"88 13 OFFCURVE",
"88 26 CURVE SMOOTH",
"88 34 OFFCURVE",
"89 44 OFFCURVE",
"93 55 CURVE",
"103 57 OFFCURVE",
"114 58 OFFCURVE",
"124 58 CURVE SMOOTH",
"132 58 OFFCURVE",
"141 56 OFFCURVE",
"149 56 CURVE SMOOTH",
"153 56 OFFCURVE",
"155 57 OFFCURVE",
"155 58 CURVE SMOOTH",
"155 59 OFFCURVE",
"152 61 OFFCURVE",
"145 62 CURVE SMOOTH",
"129 65 OFFCURVE",
"113 66 OFFCURVE",
"97 66 CURVE",
"104 85 OFFCURVE",
"115 107 OFFCURVE",
"130 130 CURVE SMOOTH",
"198 241 OFFCURVE",
"324 390 OFFCURVE",
"342 410 CURVE SMOOTH",
"362 434 OFFCURVE",
"415 494 OFFCURVE",
"464 533 CURVE",
"486 535 OFFCURVE",
"493 557 OFFCURVE",
"486 558 CURVE",
"469 555 OFFCURVE",
"452 554 OFFCURVE",
"434 554 CURVE SMOOTH",
"391 554 OFFCURVE",
"346 560 OFFCURVE",
"308 563 CURVE SMOOTH",
"281 565 OFFCURVE",
"254 567 OFFCURVE",
"228 567 CURVE SMOOTH",
"198 567 OFFCURVE",
"169 564 OFFCURVE",
"142 558 CURVE SMOOTH",
"69 542 OFFCURVE",
"2 497 OFFCURVE",
"2 423 CURVE SMOOTH",
"2 386 OFFCURVE",
"18 350 OFFCURVE",
"68 350 CURVE SMOOTH",
"73 350 OFFCURVE",
"79 351 OFFCURVE",
"84 352 CURVE SMOOTH",
"92 355 OFFCURVE",
"95 360 OFFCURVE",
"95 362 CURVE SMOOTH",
"95 363 OFFCURVE",
"95 363 OFFCURVE",
"94 363 CURVE SMOOTH",
"88 362 OFFCURVE",
"83 361 OFFCURVE",
"78 361 CURVE SMOOTH",
"46 361 OFFCURVE",
"35 385 OFFCURVE",
"35 411 CURVE SMOOTH",
"35 430 OFFCURVE",
"42 446 OFFCURVE",
"50 459 CURVE SMOOTH",
"101 535 OFFCURVE",
"197 552 OFFCURVE",
"276 552 CURVE SMOOTH",
"319 552 OFFCURVE",
"358 547 OFFCURVE",
"380 544 CURVE SMOOTH",
"399 541 OFFCURVE",
"434 534 OFFCURVE",
"446 535 CURVE",
"398 517 OFFCURVE",
"323 452 OFFCURVE",
"295 423 CURVE SMOOTH",
"210 338 OFFCURVE",
"100 200 OFFCURVE",
"55 94 CURVE SMOOTH",
"49 81 OFFCURVE",
"45 70 OFFCURVE",
"43 60 CURVE",
"-13 46 OFFCURVE",
"-67 14 OFFCURVE",
"-106 -27 CURVE SMOOTH",
"-144 -67 OFFCURVE",
"-170 -125 OFFCURVE",
"-170 -174 CURVE SMOOTH",
"-170 -228 OFFCURVE",
"-140 -272 OFFCURVE",
"-61 -272 CURVE SMOOTH"
);
},
{
closed = 1;
nodes = (
"-118 -256 OFFCURVE",
"-137 -225 OFFCURVE",
"-135 -183 CURVE SMOOTH",
"-135 -135 OFFCURVE",
"-106 -83 OFFCURVE",
"-76 -48 CURVE SMOOTH",
"-48 -12 OFFCURVE",
"-4 20 OFFCURVE",
"41 40 CURVE",
"41 7 OFFCURVE",
"61 -9 OFFCURVE",
"86 -9 CURVE SMOOTH",
"124 -8 OFFCURVE",
"170 18 OFFCURVE",
"210 57 CURVE SMOOTH",
"290 133 OFFCURVE",
"389 253 OFFCURVE",
"462 363 CURVE",
"401 218 OFFCURVE",
"260 -2 OFFCURVE",
"156 -114 CURVE SMOOTH",
"93 -182 OFFCURVE",
"18 -256 OFFCURVE",
"-70 -256 CURVE SMOOTH"
);
}
);
width = 435;
}
);
note = Y;
unicode = 0059;
},
{
glyphname = Z;
lastChange = "2021-10-28 15:26:12 +0000";
layers = (
{
anchors = (
{
name = bottom;
position = "{317, 0}";
},
{
name = center;
position = "{317, 283}";
},
{
name = top;
position = "{616, 565}";
}
);
layerId = "E44713F8-1D5D-4793-848D-DDEAC8E4A199";
paths = (
{
closed = 1;
nodes = (
"512 -38 OFFCURVE",
"585 0 OFFCURVE",
"585 73 CURVE SMOOTH",
"585 77 OFFCURVE",
"584 82 OFFCURVE",
"584 86 CURVE SMOOTH",
"579 131 OFFCURVE",
"533 190 OFFCURVE",
"446 190 CURVE SMOOTH",
"438 190 OFFCURVE",
"429 186 OFFCURVE",
"429 181 CURVE",
"498 181 OFFCURVE",
"554 137 OFFCURVE",
"554 96 CURVE SMOOTH",
"554 11 OFFCURVE",
"466 1 OFFCURVE",
"416 1 CURVE SMOOTH",
"304 1 OFFCURVE",
"235 59 OFFCURVE",
"142 101 CURVE",
"242 156 OFFCURVE",
"384 246 OFFCURVE",
"442 293 CURVE SMOOTH",
"510 349 OFFCURVE",
"657 460 OFFCURVE",
"717 508 CURVE",
"750 508 LINE SMOOTH",
"773 508 OFFCURVE",
"800 521 OFFCURVE",
"800 546 CURVE SMOOTH",
"800 555 OFFCURVE",
"794 558 OFFCURVE",
"788 558 CURVE",
"775 541 OFFCURVE",
"739 528 OFFCURVE",
"689 528 CURVE SMOOTH",
"598 528 OFFCURVE",
"513 558 OFFCURVE",
"429 562 CURVE SMOOTH",
"419 563 OFFCURVE",
"409 563 OFFCURVE",
"399 563 CURVE SMOOTH",
"325 563 OFFCURVE",
"278 539 OFFCURVE",
"247 486 CURVE SMOOTH",
"240 474 OFFCURVE",
"236 455 OFFCURVE",
"236 436 CURVE SMOOTH",
"236 416 OFFCURVE",
"241 394 OFFCURVE",
"253 378 CURVE SMOOTH",
"257 373 OFFCURVE",
"266 369 OFFCURVE",
"274 369 CURVE SMOOTH",
"278 369 OFFCURVE",
"282 370 OFFCURVE",
"285 373 CURVE",
"281 373 OFFCURVE",
"275 380 OFFCURVE",
"271 387 CURVE SMOOTH",
"268 393 OFFCURVE",
"266 402 OFFCURVE",
"266 412 CURVE SMOOTH",
"266 426 OFFCURVE",
"270 443 OFFCURVE",
"279 460 CURVE SMOOTH",
"311 519 OFFCURVE",
"373 533 OFFCURVE",
"447 533 CURVE SMOOTH",
"457 533 OFFCURVE",
"468 533 OFFCURVE",
"479 532 CURVE SMOOTH",
"551 529 OFFCURVE",
"624 515 OFFCURVE",
"696 510 CURVE",
"592 446 OFFCURVE",
"488 379 OFFCURVE",
"400 315 CURVE SMOOTH",
"294 239 OFFCURVE",
"209 168 OFFCURVE",
"115 112 CURVE",
"102 117 OFFCURVE",
"87 120 OFFCURVE",
"71 123 CURVE SMOOTH",
"61 125 OFFCURVE",
"49 127 OFFCURVE",
"39 127 CURVE SMOOTH",
"22 127 OFFCURVE",
"7 122 OFFCURVE",
"3 106 CURVE SMOOTH",
"2 102 LINE",
"-3 91 OFFCURVE",
"8 64 OFFCURVE",
"46 64 CURVE SMOOTH",
"50 64 OFFCURVE",
"54 64 OFFCURVE",
"59 65 CURVE SMOOTH",
"75 66 OFFCURVE",
"98 77 OFFCURVE",
"122 90 CURVE",
"236 46 OFFCURVE",
"330 -38 OFFCURVE",
"450 -38 CURVE SMOOTH"
);
}
);
width = 634;
}
);
note = Z;
unicode = 005A;
},
{
glyphname = A.ornm;
lastChange = "2021-11-03 00:41:46 +0000";
layers = (
{
layerId = "E44713F8-1D5D-4793-848D-DDEAC8E4A199";
paths = (
{
closed = 1;
nodes = (
"581 -318 LINE SMOOTH",
"635 -318 OFFCURVE",
"682 -285 OFFCURVE",
"686 -230 CURVE",
"754 -230 LINE SMOOTH",
"777 -230 OFFCURVE",
"793 -216 OFFCURVE",
"793 -194 CURVE SMOOTH",
"793 -141 LINE SMOOTH",
"793 -123 OFFCURVE",
"833 -142 OFFCURVE",
"833 -111 CURVE SMOOTH",
"833 106 LINE SMOOTH",
"833 133 OFFCURVE",
"843 180 OFFCURVE",
"881 180 CURVE",
"881 194 LINE",
"842 194 OFFCURVE",
"833 267 OFFCURVE",
"833 294 CURVE SMOOTH",
"833 429 LINE SMOOTH",
"833 462 OFFCURVE",
"793 440 OFFCURVE",
"793 463 CURVE SMOOTH",
"793 511 LINE SMOOTH",
"793 534 OFFCURVE",
"777 548 OFFCURVE",
"754 548 CURVE SMOOTH",
"686 548 LINE",
"682 602 OFFCURVE",
"636 640 OFFCURVE",
"581 640 CURVE SMOOTH",
"352 640 LINE SMOOTH",
"297 640 OFFCURVE",
"255 600 OFFCURVE",
"252 548 CURVE",
"183 548 LINE SMOOTH",
"158 548 OFFCURVE",
"145 535 OFFCURVE",
"145 511 CURVE SMOOTH",
"145 463 LINE SMOOTH",
"145 441 OFFCURVE",
"104 466 OFFCURVE",
"104 429 CURVE SMOOTH",
"104 294 LINE SMOOTH",
"104 266 OFFCURVE",
"90 194 OFFCURVE",
"50 194 CURVE",
"50 180 LINE",
"89 180 OFFCURVE",
"104 134 OFFCURVE",
"104 106 CURVE SMOOTH",
"104 -111 LINE SMOOTH",
"104 -145 OFFCURVE",
"145 -123 OFFCURVE",
"145 -141 CURVE SMOOTH",
"145 -194 LINE SMOOTH",
"145 -218 OFFCURVE",
"158 -230 OFFCURVE",
"183 -230 CURVE SMOOTH",
"252 -230 LINE",
"255 -283 OFFCURVE",
"298 -318 OFFCURVE",
"352 -318 CURVE SMOOTH"
);
},
{
closed = 1;
nodes = (
"123 176 OFFCURVE",
"128 181 OFFCURVE",
"128 186 CURVE SMOOTH",
"128 192 OFFCURVE",
"123 196 OFFCURVE",
"117 196 CURVE SMOOTH",
"111 196 OFFCURVE",
"107 192 OFFCURVE",
"107 186 CURVE SMOOTH",
"107 181 OFFCURVE",
"111 176 OFFCURVE",
"117 176 CURVE SMOOTH"
);
},
{
closed = 1;
nodes = (
"303 -304 OFFCURVE",
"267 -271 OFFCURVE",
"267 -224 CURVE SMOOTH",
"267 -216 LINE",
"183 -216 LINE SMOOTH",
"166 -216 OFFCURVE",
"160 -210 OFFCURVE",
"160 -194 CURVE SMOOTH",
"160 -141 LINE SMOOTH",
"160 -124 OFFCURVE",
"141 -118 OFFCURVE",
"126 -118 CURVE SMOOTH",
"124 -118 OFFCURVE",
"122 -118 OFFCURVE",
"120 -117 CURVE",
"119 -114 OFFCURVE",
"119 -63 OFFCURVE",
"119 -10 CURVE SMOOTH",
"119 106 LINE SMOOTH",
"119 137 OFFCURVE",
"106 170 OFFCURVE",
"76 187 CURVE",
"107 207 OFFCURVE",
"119 260 OFFCURVE",
"119 294 CURVE SMOOTH",
"119 429 LINE SMOOTH",
"119 431 OFFCURVE",
"119 435 OFFCURVE",
"120 435 CURVE",
"123 438 OFFCURVE",
"160 434 OFFCURVE",
"160 463 CURVE SMOOTH",
"160 511 LINE SMOOTH",
"160 527 OFFCURVE",
"166 534 OFFCURVE",
"183 534 CURVE SMOOTH",
"267 534 LINE",
"267 542 LINE SMOOTH",
"267 587 OFFCURVE",
"302 626 OFFCURVE",
"352 626 CURVE SMOOTH",
"581 626 LINE SMOOTH",
"631 626 OFFCURVE",
"671 589 OFFCURVE",
"671 542 CURVE SMOOTH",
"671 534 LINE",
"754 534 LINE SMOOTH",
"769 534 OFFCURVE",
"778 526 OFFCURVE",
"778 511 CURVE SMOOTH",
"778 463 LINE SMOOTH",
"778 426 OFFCURVE",
"818 445 OFFCURVE",
"818 429 CURVE SMOOTH",
"818 294 LINE SMOOTH",
"818 261 OFFCURVE",
"826 207 OFFCURVE",
"856 187 CURVE",
"827 170 OFFCURVE",
"818 136 OFFCURVE",
"818 106 CURVE SMOOTH",
"818 -111 LINE SMOOTH",
"818 -124 OFFCURVE",
"778 -109 OFFCURVE",
"778 -141 CURVE SMOOTH",
"778 -194 LINE SMOOTH",
"778 -208 OFFCURVE",
"769 -216 OFFCURVE",
"754 -216 CURVE SMOOTH",
"671 -216 LINE",
"671 -224 LINE SMOOTH",
"671 -273 OFFCURVE",
"630 -304 OFFCURVE",
"581 -304 CURVE SMOOTH",
"352 -304 LINE SMOOTH"
);
},
{
closed = 1;
nodes = (
"581 -287 LINE SMOOTH",
"603 -287 OFFCURVE",
"659 -262 OFFCURVE",
"660 -192 CURVE",
"725 -192 LINE SMOOTH",
"736 -192 OFFCURVE",
"756 -187 OFFCURVE",
"756 -163 CURVE SMOOTH",
"756 -106 LINE SMOOTH",
"756 -95 OFFCURVE",
"762 -91 OFFCURVE",
"772 -91 CURVE SMOOTH",
"786 -91 OFFCURVE",
"792 -85 OFFCURVE",
"792 -76 CURVE SMOOTH",
"792 402 LINE SMOOTH",
"792 412 OFFCURVE",
"786 417 OFFCURVE",
"772 417 CURVE SMOOTH",
"762 417 OFFCURVE",
"756 421 OFFCURVE",
"756 433 CURVE SMOOTH",
"756 486 LINE SMOOTH",
"756 511 OFFCURVE",
"736 516 OFFCURVE",
"725 516 CURVE SMOOTH",
"660 516 LINE",
"659 586 OFFCURVE",
"603 613 OFFCURVE",
"581 613 CURVE SMOOTH",
"351 613 LINE SMOOTH",
"329 613 OFFCURVE",
"278 586 OFFCURVE",
"277 516 CURVE",
"211 516 LINE SMOOTH",
"196 516 OFFCURVE",
"181 510 OFFCURVE",
"181 486 CURVE SMOOTH",
"181 433 LINE SMOOTH",
"181 422 OFFCURVE",
"170 417 OFFCURVE",
"160 417 CURVE SMOOTH",
"145 417 OFFCURVE",
"145 411 OFFCURVE",
"145 402 CURVE SMOOTH",
"145 -76 LINE SMOOTH",
"145 -84 OFFCURVE",
"145 -91 OFFCURVE",
"160 -91 CURVE SMOOTH",
"170 -91 OFFCURVE",
"181 -96 OFFCURVE",
"181 -106 CURVE SMOOTH",
"181 -163 LINE SMOOTH",
"181 -186 OFFCURVE",
"196 -192 OFFCURVE",
"211 -192 CURVE SMOOTH",
"277 -192 LINE",
"278 -262 OFFCURVE",
"329 -287 OFFCURVE",
"351 -287 CURVE SMOOTH"
);
},
{
closed = 1;
nodes = (
"332 -282 OFFCURVE",
"282 -258 OFFCURVE",
"282 -189 CURVE SMOOTH",
"282 -187 LINE",
"211 -187 LINE SMOOTH",
"198 -187 OFFCURVE",
"186 -184 OFFCURVE",
"186 -163 CURVE SMOOTH",
"186 -106 LINE SMOOTH",
"186 -91 OFFCURVE",
"170 -86 OFFCURVE",
"160 -86 CURVE SMOOTH",
"150 -86 OFFCURVE",
"150 -83 OFFCURVE",
"150 -76 CURVE SMOOTH",
"150 407 LINE",
"151 412 OFFCURVE",
"155 412 OFFCURVE",
"160 412 CURVE SMOOTH",
"170 412 OFFCURVE",
"186 417 OFFCURVE",
"186 433 CURVE SMOOTH",
"186 486 LINE SMOOTH",
"186 507 OFFCURVE",
"198 511 OFFCURVE",
"211 511 CURVE SMOOTH",
"282 511 LINE",
"282 513 LINE SMOOTH",
"282 583 OFFCURVE",
"332 608 OFFCURVE",
"351 608 CURVE SMOOTH",
"581 608 LINE SMOOTH",
"601 608 OFFCURVE",
"655 582 OFFCURVE",
"655 513 CURVE SMOOTH",
"655 511 LINE",
"725 511 LINE SMOOTH",
"735 511 OFFCURVE",
"751 506 OFFCURVE",
"751 486 CURVE SMOOTH",
"751 433 LINE SMOOTH",
"751 418 OFFCURVE",
"761 412 OFFCURVE",
"772 412 CURVE SMOOTH",
"784 412 OFFCURVE",
"787 408 OFFCURVE",
"787 402 CURVE SMOOTH",
"787 -76 LINE SMOOTH",
"787 -81 OFFCURVE",
"784 -86 OFFCURVE",
"772 -86 CURVE SMOOTH",
"761 -86 OFFCURVE",
"751 -92 OFFCURVE",
"751 -106 CURVE SMOOTH",
"751 -163 LINE SMOOTH",
"751 -183 OFFCURVE",
"735 -187 OFFCURVE",
"725 -187 CURVE SMOOTH",
"655 -187 LINE",
"655 -189 LINE SMOOTH",
"655 -258 OFFCURVE",
"601 -282 OFFCURVE",
"581 -282 CURVE SMOOTH",
"351 -282 LINE SMOOTH"
);
},
{
closed = 1;
nodes = (
"825 176 OFFCURVE",
"830 181 OFFCURVE",
"830 186 CURVE SMOOTH",
"830 192 OFFCURVE",
"825 196 OFFCURVE",
"819 196 CURVE SMOOTH",
"813 196 OFFCURVE",
"808 192 OFFCURVE",
"808 186 CURVE SMOOTH",
"808 181 OFFCURVE",
"813 176 OFFCURVE",
"819 176 CURVE SMOOTH"
);
}
);
width = 931;
}
);
note = panel1;
},
{
glyphname = B.ornm;
lastChange = "2021-11-03 00:41:46 +0000";
layers = (
{
layerId = "E44713F8-1D5D-4793-848D-DDEAC8E4A199";
paths = (
{
closed = 1;
nodes = (
"472 -318 LINE",
"472 -274 OFFCURVE",
"541 -254 OFFCURVE",
"588 -254 CURVE SMOOTH",
"665 -254 LINE SMOOTH",
"678 -254 OFFCURVE",
"684 -250 OFFCURVE",
"684 -233 CURVE SMOOTH",
"684 -218 OFFCURVE",
"689 -207 OFFCURVE",
"700 -207 CURVE SMOOTH",
"756 -207 LINE SMOOTH",
"786 -207 OFFCURVE",
"791 -183 OFFCURVE",
"791 -169 CURVE SMOOTH",
"791 -84 LINE",
"878 -82 OFFCURVE",
"889 3 OFFCURVE",
"889 26 CURVE SMOOTH",
"889 296 LINE SMOOTH",
"889 320 OFFCURVE",
"878 405 OFFCURVE",
"791 407 CURVE",
"791 492 LINE SMOOTH",
"791 505 OFFCURVE",
"786 530 OFFCURVE",
"756 530 CURVE SMOOTH",
"700 530 LINE SMOOTH",
"689 530 OFFCURVE",
"684 541 OFFCURVE",
"684 556 CURVE SMOOTH",
"684 573 OFFCURVE",
"678 577 OFFCURVE",
"665 577 CURVE SMOOTH",
"588 577 LINE SMOOTH",
"541 577 OFFCURVE",
"472 597 OFFCURVE",
"472 641 CURVE",
"468 641 LINE",
"468 597 OFFCURVE",
"399 577 OFFCURVE",
"351 577 CURVE SMOOTH",
"274 577 LINE SMOOTH",
"261 577 OFFCURVE",
"255 573 OFFCURVE",
"255 556 CURVE SMOOTH",
"255 541 OFFCURVE",
"251 530 OFFCURVE",
"239 530 CURVE SMOOTH",
"184 530 LINE SMOOTH",
"154 530 OFFCURVE",
"149 505 OFFCURVE",
"149 492 CURVE SMOOTH",
"149 407 LINE",
"62 405 OFFCURVE",
"50 320 OFFCURVE",
"50 296 CURVE SMOOTH",
"50 26 LINE SMOOTH",
"50 3 OFFCURVE",
"62 -82 OFFCURVE",
"149 -84 CURVE",
"149 -169 LINE SMOOTH",
"149 -183 OFFCURVE",
"154 -207 OFFCURVE",
"184 -207 CURVE SMOOTH",
"239 -207 LINE SMOOTH",
"251 -207 OFFCURVE",
"255 -218 OFFCURVE",
"255 -233 CURVE SMOOTH",
"255 -250 OFFCURVE",
"261 -254 OFFCURVE",
"274 -254 CURVE SMOOTH",
"351 -254 LINE SMOOTH",
"399 -254 OFFCURVE",
"468 -274 OFFCURVE",
"468 -318 CURVE"
);
},
{
closed = 1;
nodes = (
"457 -264 OFFCURVE",
"393 -249 OFFCURVE",
"351 -249 CURVE SMOOTH",
"274 -249 LINE SMOOTH",
"263 -249 OFFCURVE",
"260 -247 OFFCURVE",
"260 -233 CURVE SMOOTH",
"260 -218 OFFCURVE",
"255 -202 OFFCURVE",
"239 -202 CURVE SMOOTH",
"184 -202 LINE SMOOTH",
"157 -202 OFFCURVE",
"153 -182 OFFCURVE",
"153 -169 CURVE SMOOTH",
"153 -79 LINE",
"151 -79 LINE SMOOTH",
"67 -79 OFFCURVE",
"55 4 OFFCURVE",
"55 26 CURVE SMOOTH",
"55 296 LINE SMOOTH",
"55 319 OFFCURVE",
"67 402 OFFCURVE",
"151 402 CURVE SMOOTH",
"153 402 LINE",
"153 492 LINE SMOOTH",
"153 505 OFFCURVE",
"157 525 OFFCURVE",
"184 525 CURVE SMOOTH",
"239 525 LINE SMOOTH",
"255 525 OFFCURVE",
"260 541 OFFCURVE",
"260 556 CURVE SMOOTH",
"260 570 OFFCURVE",
"263 572 OFFCURVE",
"274 572 CURVE SMOOTH",
"351 572 LINE SMOOTH",
"393 572 OFFCURVE",
"457 588 OFFCURVE",
"470 627 CURVE",
"483 588 OFFCURVE",
"547 572 OFFCURVE",
"588 572 CURVE SMOOTH",
"665 572 LINE SMOOTH",
"676 572 OFFCURVE",
"680 570 OFFCURVE",
"680 556 CURVE SMOOTH",
"680 541 OFFCURVE",
"684 525 OFFCURVE",
"700 525 CURVE SMOOTH",
"756 525 LINE SMOOTH",
"782 525 OFFCURVE",
"786 505 OFFCURVE",
"786 492 CURVE SMOOTH",
"786 402 LINE",
"788 402 LINE SMOOTH",
"873 402 OFFCURVE",
"885 319 OFFCURVE",
"885 296 CURVE SMOOTH",
"885 26 LINE SMOOTH",
"885 4 OFFCURVE",
"873 -79 OFFCURVE",
"788 -79 CURVE SMOOTH",
"786 -79 LINE",
"786 -169 LINE SMOOTH",
"786 -182 OFFCURVE",
"782 -202 OFFCURVE",
"756 -202 CURVE SMOOTH",
"700 -202 LINE SMOOTH",
"684 -202 OFFCURVE",
"680 -218 OFFCURVE",
"680 -233 CURVE SMOOTH",
"680 -247 OFFCURVE",
"676 -249 OFFCURVE",
"665 -249 CURVE SMOOTH",
"588 -249 LINE SMOOTH",
"547 -249 OFFCURVE",
"483 -264 OFFCURVE",
"470 -304 CURVE"
);
},
{
closed = 1;
nodes = (
"473 -278 LINE",
"473 -238 OFFCURVE",
"553 -226 OFFCURVE",
"579 -226 CURVE SMOOTH",
"649 -226 LINE SMOOTH",
"664 -226 OFFCURVE",
"674 -220 OFFCURVE",
"674 -200 CURVE SMOOTH",
"674 -186 OFFCURVE",
"677 -183 OFFCURVE",
"681 -183 CURVE SMOOTH",
"733 -183 LINE SMOOTH",
"765 -183 OFFCURVE",
"771 -155 OFFCURVE",
"771 -141 CURVE SMOOTH",
"771 -70 LINE",
"851 -65 OFFCURVE",
"861 18 OFFCURVE",
"861 39 CURVE SMOOTH",
"861 286 LINE SMOOTH",
"861 307 OFFCURVE",
"851 389 OFFCURVE",
"771 394 CURVE",
"771 466 LINE SMOOTH",
"771 480 OFFCURVE",
"765 508 OFFCURVE",
"733 508 CURVE SMOOTH",
"681 508 LINE SMOOTH",
"677 508 OFFCURVE",
"674 510 OFFCURVE",
"674 524 CURVE SMOOTH",
"674 545 OFFCURVE",
"664 551 OFFCURVE",
"649 551 CURVE SMOOTH",
"579 551 LINE SMOOTH",
"553 551 OFFCURVE",
"473 563 OFFCURVE",
"473 603 CURVE",
"466 603 LINE",
"466 563 OFFCURVE",
"386 551 OFFCURVE",
"361 551 CURVE SMOOTH",
"290 551 LINE SMOOTH",
"275 551 OFFCURVE",
"266 545 OFFCURVE",
"266 524 CURVE SMOOTH",
"266 510 OFFCURVE",
"262 508 OFFCURVE",
"259 508 CURVE SMOOTH",
"207 508 LINE SMOOTH",
"174 508 OFFCURVE",
"169 480 OFFCURVE",
"169 466 CURVE SMOOTH",
"169 394 LINE",
"89 389 OFFCURVE",
"78 307 OFFCURVE",
"78 286 CURVE SMOOTH",
"78 39 LINE SMOOTH",
"78 18 OFFCURVE",
"89 -65 OFFCURVE",
"169 -70 CURVE",
"169 -141 LINE SMOOTH",
"169 -155 OFFCURVE",
"174 -183 OFFCURVE",
"207 -183 CURVE SMOOTH",
"259 -183 LINE SMOOTH",
"262 -183 OFFCURVE",
"266 -186 OFFCURVE",
"266 -200 CURVE SMOOTH",
"266 -220 OFFCURVE",
"275 -226 OFFCURVE",
"290 -226 CURVE SMOOTH",
"361 -226 LINE SMOOTH",
"382 -226 OFFCURVE",
"408 -231 OFFCURVE",
"428 -240 CURVE SMOOTH",
"450 -250 OFFCURVE",
"466 -262 OFFCURVE",
"466 -278 CURVE"
);
},
{
closed = 1;
nodes = (
"462 -238 OFFCURVE",
"449 -229 OFFCURVE",
"435 -222 CURVE SMOOTH",
"411 -212 OFFCURVE",
"383 -207 OFFCURVE",
"361 -207 CURVE SMOOTH",
"290 -207 LINE SMOOTH",
"288 -207 OFFCURVE",
"286 -208 OFFCURVE",
"284 -207 CURVE",
"284 -205 OFFCURVE",
"283 -203 OFFCURVE",
"283 -200 CURVE SMOOTH",
"283 -186 OFFCURVE",
"280 -164 OFFCURVE",
"259 -164 CURVE SMOOTH",
"207 -164 LINE SMOOTH",
"189 -164 OFFCURVE",
"186 -152 OFFCURVE",
"186 -141 CURVE SMOOTH",
"186 -51 LINE",
"178 -51 LINE SMOOTH",
"106 -51 OFFCURVE",
"96 18 OFFCURVE",
"96 39 CURVE SMOOTH",
"96 286 LINE SMOOTH",
"96 306 OFFCURVE",
"106 375 OFFCURVE",
"178 375 CURVE SMOOTH",
"186 375 LINE",
"186 466 LINE SMOOTH",
"186 477 OFFCURVE",
"189 489 OFFCURVE",
"207 489 CURVE SMOOTH",
"259 489 LINE SMOOTH",
"280 489 OFFCURVE",
"283 510 OFFCURVE",
"283 524 CURVE SMOOTH",
"283 527 OFFCURVE",
"284 529 OFFCURVE",
"284 530 CURVE",
"287 532 OFFCURVE",
"287 532 OFFCURVE",
"290 532 CURVE SMOOTH",
"361 532 LINE SMOOTH",
"394 532 OFFCURVE",
"448 543 OFFCURVE",
"470 574 CURVE",
"491 543 OFFCURVE",
"546 532 OFFCURVE",
"579 532 CURVE SMOOTH",
"649 532 LINE SMOOTH",
"651 532 OFFCURVE",
"654 532 OFFCURVE",
"655 531 CURVE",
"655 530 OFFCURVE",
"656 527 OFFCURVE",
"656 524 CURVE SMOOTH",
"656 510 OFFCURVE",
"660 489 OFFCURVE",
"681 489 CURVE SMOOTH",
"733 489 LINE SMOOTH",
"750 489 OFFCURVE",
"753 477 OFFCURVE",
"753 466 CURVE SMOOTH",
"753 375 LINE",
"762 375 LINE SMOOTH",
"834 375 OFFCURVE",
"844 306 OFFCURVE",
"844 286 CURVE SMOOTH",
"844 39 LINE SMOOTH",
"844 18 OFFCURVE",
"834 -51 OFFCURVE",
"762 -51 CURVE SMOOTH",
"753 -51 LINE",
"753 -141 LINE SMOOTH",
"753 -152 OFFCURVE",
"750 -164 OFFCURVE",
"733 -164 CURVE SMOOTH",
"681 -164 LINE SMOOTH",
"660 -164 OFFCURVE",
"656 -186 OFFCURVE",
"656 -200 CURVE SMOOTH",
"656 -203 OFFCURVE",
"656 -205 OFFCURVE",
"655 -206 CURVE SMOOTH",
"653 -207 OFFCURVE",
"653 -207 OFFCURVE",
"649 -207 CURVE SMOOTH",
"579 -207 LINE SMOOTH",
"546 -207 OFFCURVE",
"491 -218 OFFCURVE",
"470 -250 CURVE"
);
}
);
width = 939;
}
);
note = panel2;
},
{
glyphname = C.ornm;
lastChange = "2021-11-03 00:41:46 +0000";
layers = (
{
layerId = "E44713F8-1D5D-4793-848D-DDEAC8E4A199";
paths = (
{
closed = 1;
nodes = (
"588 -268 OFFCURVE",
"657 -249 OFFCURVE",
"702 -249 CURVE SMOOTH",
"846 -249 OFFCURVE",
"768 -200 OFFCURVE",
"814 -200 CURVE SMOOTH",
"869 -200 LINE SMOOTH",
"897 -200 OFFCURVE",
"902 -176 OFFCURVE",
"902 -163 CURVE SMOOTH",
"902 -101 LINE",
"930 -72 OFFCURVE",
"953 -30 OFFCURVE",
"969 13 CURVE",
"1061 13 LINE SMOOTH",
"1089 13 OFFCURVE",
"1111 35 OFFCURVE",
"1111 63 CURVE SMOOTH",
"1111 271 LINE SMOOTH",
"1111 299 OFFCURVE",
"1089 321 OFFCURVE",
"1061 321 CURVE SMOOTH",
"964 321 LINE",
"948 364 OFFCURVE",
"925 399 OFFCURVE",
"902 422 CURVE",
"902 484 LINE SMOOTH",
"902 498 OFFCURVE",
"897 521 OFFCURVE",
"869 521 CURVE SMOOTH",
"814 521 LINE SMOOTH",
"772 521 OFFCURVE",
"846 570 OFFCURVE",
"702 570 CURVE SMOOTH",
"657 570 OFFCURVE",
"588 589 OFFCURVE",
"585 636 CURVE",
"581 589 OFFCURVE",
"512 570 OFFCURVE",
"467 570 CURVE SMOOTH",
"323 570 OFFCURVE",
"401 521 OFFCURVE",
"356 521 CURVE SMOOTH",
"300 521 LINE SMOOTH",
"272 521 OFFCURVE",
"268 498 OFFCURVE",
"268 484 CURVE SMOOTH",
"268 422 LINE",
"244 399 OFFCURVE",
"222 364 OFFCURVE",
"205 321 CURVE",
"100 321 LINE SMOOTH",
"73 321 OFFCURVE",
"50 299 OFFCURVE",
"50 271 CURVE SMOOTH",
"50 63 LINE SMOOTH",
"50 35 OFFCURVE",
"73 13 OFFCURVE",
"100 13 CURVE SMOOTH",
"200 13 LINE",
"216 -30 OFFCURVE",
"239 -72 OFFCURVE",
"268 -101 CURVE",
"268 -163 LINE SMOOTH",
"268 -176 OFFCURVE",
"272 -200 OFFCURVE",
"300 -200 CURVE SMOOTH",
"356 -200 LINE SMOOTH",
"397 -200 OFFCURVE",
"323 -249 OFFCURVE",
"467 -249 CURVE SMOOTH",
"512 -249 OFFCURVE",
"581 -268 OFFCURVE",
"585 -314 CURVE"
);
},
{
closed = 1;
nodes = (
"297 -175 OFFCURVE",
"293 -170 OFFCURVE",
"293 -165 CURVE SMOOTH",
"293 -160 OFFCURVE",
"297 -155 OFFCURVE",
"303 -155 CURVE SMOOTH",
"308 -155 OFFCURVE",
"312 -160 OFFCURVE",
"312 -165 CURVE SMOOTH",
"312 -170 OFFCURVE",
"308 -175 OFFCURVE",
"303 -175 CURVE SMOOTH"
);
},
{
closed = 1;
nodes = (
"414 -249 OFFCURVE",
"269 -140 OFFCURVE",
"215 13 CURVE",
"954 13 LINE",
"901 -140 OFFCURVE",
"755 -249 OFFCURVE",
"585 -249 CURVE SMOOTH"
);
},
{
closed = 1;
nodes = (
"586 -189 LINE",
"587 -70 LINE",
"591 -69 OFFCURVE",
"595 -66 OFFCURVE",
"596 -62 CURVE",
"784 -61 LINE",
"784 -59 LINE",
"597 -55 LINE",
"596 -50 OFFCURVE",
"592 -47 OFFCURVE",
"587 -46 CURVE",
"586 -27 LINE",
"583 -27 LINE",
"583 -46 LINE",
"578 -47 OFFCURVE",
"574 -50 OFFCURVE",
"573 -55 CURVE",
"385 -59 LINE",
"385 -61 LINE",
"573 -62 LINE",
"575 -66 OFFCURVE",
"578 -69 OFFCURVE",
"583 -70 CURVE",
"584 -189 LINE"
);
},
{
closed = 1;
nodes = (
"859 -175 OFFCURVE",
"854 -170 OFFCURVE",
"854 -165 CURVE SMOOTH",
"854 -160 OFFCURVE",
"859 -155 OFFCURVE",
"864 -155 CURVE SMOOTH",
"869 -155 OFFCURVE",
"874 -160 OFFCURVE",
"874 -165 CURVE SMOOTH",
"874 -170 OFFCURVE",
"869 -175 OFFCURVE",
"864 -175 CURVE SMOOTH"
);
},
{
closed = 1;
nodes = (
"82 24 OFFCURVE",
"60 45 OFFCURVE",
"60 70 CURVE SMOOTH",
"60 265 LINE SMOOTH",
"60 290 OFFCURVE",
"82 311 OFFCURVE",
"109 311 CURVE SMOOTH",
"1051 311 LINE SMOOTH",
"1077 311 OFFCURVE",
"1099 290 OFFCURVE",
"1099 265 CURVE SMOOTH",
"1099 70 LINE SMOOTH",
"1099 45 OFFCURVE",
"1077 24 OFFCURVE",
"1051 24 CURVE SMOOTH",
"109 24 LINE SMOOTH"
);
},
{
closed = 1;
nodes = (
"1036 38 LINE SMOOTH",
"1062 38 OFFCURVE",
"1085 53 OFFCURVE",
"1085 76 CURVE SMOOTH",
"1085 254 LINE SMOOTH",
"1085 277 OFFCURVE",
"1070 297 OFFCURVE",
"1044 297 CURVE SMOOTH",
"118 297 LINE SMOOTH",
"91 297 OFFCURVE",
"75 277 OFFCURVE",
"75 254 CURVE SMOOTH",
"75 81 LINE SMOOTH",
"75 58 OFFCURVE",
"89 38 OFFCURVE",
"116 38 CURVE SMOOTH"
);
},
{
closed = 1;
nodes = (
"91 42 OFFCURVE",
"79 60 OFFCURVE",
"79 81 CURVE SMOOTH",
"79 254 LINE SMOOTH",
"79 275 OFFCURVE",
"93 293 OFFCURVE",
"118 293 CURVE SMOOTH",
"1044 293 LINE SMOOTH",
"1068 293 OFFCURVE",
"1081 275 OFFCURVE",
"1081 254 CURVE SMOOTH",
"1081 76 LINE SMOOTH",
"1081 55 OFFCURVE",
"1060 42 OFFCURVE",
"1036 42 CURVE SMOOTH",
"116 42 LINE SMOOTH"
);
},
{
closed = 1;
nodes = (
"297 478 OFFCURVE",
"293 482 OFFCURVE",
"293 487 CURVE SMOOTH",
"293 493 OFFCURVE",
"297 497 OFFCURVE",
"303 497 CURVE SMOOTH",
"308 497 OFFCURVE",
"312 493 OFFCURVE",
"312 487 CURVE SMOOTH",
"312 482 OFFCURVE",
"308 478 OFFCURVE",
"303 478 CURVE SMOOTH"
);
},
{
closed = 1;
nodes = (
"278 466 OFFCURVE",
"419 569 OFFCURVE",
"585 569 CURVE SMOOTH",
"750 569 OFFCURVE",
"891 466 OFFCURVE",
"949 321 CURVE",
"220 321 LINE"
);
},
{
closed = 1;
nodes = (
"859 478 OFFCURVE",
"854 482 OFFCURVE",
"854 487 CURVE SMOOTH",
"854 493 OFFCURVE",
"859 497 OFFCURVE",
"864 497 CURVE SMOOTH",
"869 497 OFFCURVE",
"874 493 OFFCURVE",
"874 487 CURVE SMOOTH",
"874 482 OFFCURVE",
"869 478 OFFCURVE",
"864 478 CURVE SMOOTH"
);
}
);
width = 1161;
}
);
note = panel3;
},
{
glyphname = D.ornm;
lastChange = "2021-11-03 00:41:46 +0000";
layers = (
{
layerId = "E44713F8-1D5D-4793-848D-DDEAC8E4A199";
paths = (
{
closed = 1;
nodes = (
"307 -316 OFFCURVE",
"566 -242 OFFCURVE",
"700 -219 CURVE SMOOTH",
"721 -216 OFFCURVE",
"741 -214 OFFCURVE",
"760 -214 CURVE SMOOTH",
"869 -214 OFFCURVE",
"957 -263 OFFCURVE",
"977 -316 CURVE",
"998 -263 OFFCURVE",
"1086 -214 OFFCURVE",
"1194 -214 CURVE SMOOTH",
"1214 -214 OFFCURVE",
"1234 -216 OFFCURVE",
"1254 -219 CURVE SMOOTH",
"1391 -242 OFFCURVE",
"1654 -316 OFFCURVE",
"1714 -316 CURVE SMOOTH",
"1823 -316 OFFCURVE",
"1867 -238 OFFCURVE",
"1867 -175 CURVE SMOOTH",
"1867 -117 OFFCURVE",
"1846 -88 OFFCURVE",
"1824 -51 CURVE SMOOTH",
"1810 -28 OFFCURVE",
"1800 1 OFFCURVE",
"1800 31 CURVE SMOOTH",
"1800 63 OFFCURVE",
"1812 95 OFFCURVE",
"1843 120 CURVE SMOOTH",
"1861 135 OFFCURVE",
"1882 147 OFFCURVE",
"1907 154 CURVE",
"1908 168 LINE",
"1882 176 OFFCURVE",
"1862 188 OFFCURVE",
"1843 203 CURVE SMOOTH",
"1812 228 OFFCURVE",
"1800 260 OFFCURVE",
"1800 292 CURVE SMOOTH",
"1800 321 OFFCURVE",
"1810 350 OFFCURVE",
"1824 374 CURVE SMOOTH",
"1846 411 OFFCURVE",
"1867 439 OFFCURVE",
"1867 498 CURVE SMOOTH",
"1867 561 OFFCURVE",
"1822 639 OFFCURVE",
"1712 639 CURVE SMOOTH",
"1648 639 OFFCURVE",
"1389 565 OFFCURVE",
"1254 542 CURVE SMOOTH",
"1233 538 OFFCURVE",
"1213 537 OFFCURVE",
"1193 537 CURVE SMOOTH",
"1085 537 OFFCURVE",
"998 586 OFFCURVE",
"977 639 CURVE",
"957 586 OFFCURVE",
"870 537 OFFCURVE",
"762 537 CURVE SMOOTH",
"742 537 OFFCURVE",
"721 538 OFFCURVE",
"700 542 CURVE SMOOTH",
"566 565 OFFCURVE",
"307 639 OFFCURVE",
"243 639 CURVE SMOOTH",
"132 639 OFFCURVE",
"88 561 OFFCURVE",
"88 498 CURVE SMOOTH",
"88 439 OFFCURVE",
"109 411 OFFCURVE",
"131 374 CURVE SMOOTH",
"145 350 OFFCURVE",
"155 321 OFFCURVE",
"155 292 CURVE SMOOTH",
"155 260 OFFCURVE",
"143 228 OFFCURVE",
"112 203 CURVE SMOOTH",
"96 190 OFFCURVE",
"78 179 OFFCURVE",
"56 171 CURVE",
"55 152 LINE",
"77 144 OFFCURVE",
"96 133 OFFCURVE",
"112 120 CURVE SMOOTH",
"143 95 OFFCURVE",
"155 63 OFFCURVE",
"155 31 CURVE SMOOTH",
"155 1 OFFCURVE",
"145 -28 OFFCURVE",
"131 -51 CURVE SMOOTH",
"109 -88 OFFCURVE",
"88 -117 OFFCURVE",
"88 -175 CURVE SMOOTH",
"88 -238 OFFCURVE",
"132 -317 OFFCURVE",
"243 -316 CURVE SMOOTH"
);
},
{
closed = 1;
nodes = (
"145 -288 OFFCURVE",
"115 -223 OFFCURVE",
"115 -165 CURVE SMOOTH",
"115 -112 OFFCURVE",
"162 -59 OFFCURVE",
"169 -26 CURVE SMOOTH",
"174 -6 OFFCURVE",
"176 12 OFFCURVE",
"176 28 CURVE SMOOTH",
"176 104 OFFCURVE",
"132 146 OFFCURVE",
"89 163 CURVE",
"132 179 OFFCURVE",
"176 221 OFFCURVE",
"176 297 CURVE SMOOTH",
"176 313 OFFCURVE",
"174 331 OFFCURVE",
"169 351 CURVE SMOOTH",
"162 385 OFFCURVE",
"115 438 OFFCURVE",
"115 491 CURVE SMOOTH",
"115 548 OFFCURVE",
"145 613 OFFCURVE",
"245 613 CURVE SMOOTH",
"302 613 OFFCURVE",
"563 537 OFFCURVE",
"685 516 CURVE SMOOTH",
"704 513 OFFCURVE",
"723 512 OFFCURVE",
"743 512 CURVE SMOOTH",
"850 512 OFFCURVE",
"958 555 OFFCURVE",
"977 603 CURVE",
"995 555 OFFCURVE",
"1103 512 OFFCURVE",
"1210 512 CURVE SMOOTH",
"1230 512 OFFCURVE",
"1249 513 OFFCURVE",
"1268 516 CURVE SMOOTH",
"1390 537 OFFCURVE",
"1651 613 OFFCURVE",
"1709 613 CURVE SMOOTH",
"1808 613 OFFCURVE",
"1838 548 OFFCURVE",
"1838 491 CURVE SMOOTH",
"1838 438 OFFCURVE",
"1789 377 OFFCURVE",
"1781 343 CURVE SMOOTH",
"1777 324 OFFCURVE",
"1775 307 OFFCURVE",
"1775 291 CURVE SMOOTH",
"1775 217 OFFCURVE",
"1821 180 OFFCURVE",
"1864 163 CURVE",
"1821 146 OFFCURVE",
"1777 104 OFFCURVE",
"1777 28 CURVE SMOOTH",
"1777 12 OFFCURVE",
"1779 -6 OFFCURVE",
"1784 -26 CURVE SMOOTH",
"1792 -59 OFFCURVE",
"1838 -112 OFFCURVE",
"1838 -165 CURVE SMOOTH",
"1838 -223 OFFCURVE",
"1808 -288 OFFCURVE",
"1709 -288 CURVE SMOOTH",
"1651 -287 OFFCURVE",
"1390 -212 OFFCURVE",
"1268 -191 CURVE SMOOTH",
"1248 -188 OFFCURVE",
"1228 -186 OFFCURVE",
"1208 -186 CURVE SMOOTH",
"1101 -186 OFFCURVE",
"995 -229 OFFCURVE",
"977 -278 CURVE",
"959 -229 OFFCURVE",
"852 -186 OFFCURVE",
"745 -186 CURVE SMOOTH",
"725 -186 OFFCURVE",
"705 -188 OFFCURVE",
"685 -191 CURVE SMOOTH",
"563 -212 OFFCURVE",
"302 -287 OFFCURVE",
"245 -288 CURVE SMOOTH"
);
},
{
closed = 1;
nodes = (
"294 -258 OFFCURVE",
"372 -241 OFFCURVE",
"458 -221 CURVE SMOOTH",
"542 -200 OFFCURVE",
"635 -178 OFFCURVE",
"694 -168 CURVE SMOOTH",
"712 -165 OFFCURVE",
"731 -164 OFFCURVE",
"750 -164 CURVE SMOOTH",
"854 -164 OFFCURVE",
"957 -204 OFFCURVE",
"974 -248 CURVE SMOOTH",
"977 -254 LINE",
"979 -248 LINE SMOOTH",
"996 -204 OFFCURVE",
"1099 -164 OFFCURVE",
"1203 -164 CURVE SMOOTH",
"1222 -164 OFFCURVE",
"1241 -165 OFFCURVE",
"1259 -168 CURVE SMOOTH",
"1318 -178 OFFCURVE",
"1411 -200 OFFCURVE",
"1495 -221 CURVE SMOOTH",
"1581 -241 OFFCURVE",
"1659 -259 OFFCURVE",
"1687 -259 CURVE SMOOTH",
"1785 -259 OFFCURVE",
"1815 -196 OFFCURVE",
"1815 -142 CURVE SMOOTH",
"1815 -105 OFFCURVE",
"1791 -70 OFFCURVE",
"1773 -37 CURVE SMOOTH",
"1760 -13 OFFCURVE",
"1754 13 OFFCURVE",
"1754 37 CURVE SMOOTH",
"1754 92 OFFCURVE",
"1785 142 OFFCURVE",
"1845 164 CURVE",
"1784 187 OFFCURVE",
"1756 233 OFFCURVE",
"1756 289 CURVE SMOOTH",
"1756 366 OFFCURVE",
"1815 396 OFFCURVE",
"1815 488 CURVE SMOOTH",
"1815 525 OFFCURVE",
"1785 587 OFFCURVE",
"1687 587 CURVE SMOOTH",
"1599 587 OFFCURVE",
"1352 508 OFFCURVE",
"1259 497 CURVE SMOOTH",
"1243 495 OFFCURVE",
"1226 494 OFFCURVE",
"1210 494 CURVE SMOOTH",
"1104 494 OFFCURVE",
"996 531 OFFCURVE",
"979 576 CURVE SMOOTH",
"977 582 LINE",
"974 576 LINE SMOOTH",
"957 532 OFFCURVE",
"855 492 OFFCURVE",
"753 492 CURVE SMOOTH",
"733 492 OFFCURVE",
"713 494 OFFCURVE",
"694 497 CURVE SMOOTH",
"635 506 OFFCURVE",
"542 529 OFFCURVE",
"458 549 CURVE SMOOTH",
"372 569 OFFCURVE",
"294 587 OFFCURVE",
"266 587 CURVE SMOOTH",
"168 587 OFFCURVE",
"139 542 OFFCURVE",
"139 487 CURVE SMOOTH",
"139 437 OFFCURVE",
"181 404 OFFCURVE",
"192 356 CURVE SMOOTH",
"196 338 OFFCURVE",
"198 322 OFFCURVE",
"198 306 CURVE SMOOTH",
"198 232 OFFCURVE",
"155 182 OFFCURVE",
"114 167 CURVE",
"108 164 LINE",
"169 141 OFFCURVE",
"197 95 OFFCURVE",
"197 38 CURVE SMOOTH",
"197 22 OFFCURVE",
"195 6 OFFCURVE",
"191 -11 CURVE SMOOTH",
"180 -56 OFFCURVE",
"138 -91 OFFCURVE",
"138 -160 CURVE SMOOTH",
"138 -196 OFFCURVE",
"168 -259 OFFCURVE",
"266 -259 CURVE SMOOTH"
);
},
{
closed = 1;
nodes = (
"174 -249 OFFCURVE",
"147 -198 OFFCURVE",
"147 -155 CURVE SMOOTH",
"147 -97 OFFCURVE",
"183 -60 OFFCURVE",
"196 -12 CURVE SMOOTH",
"200 6 OFFCURVE",
"202 23 OFFCURVE",
"202 38 CURVE SMOOTH",
"202 107 OFFCURVE",
"162 147 OFFCURVE",
"122 164 CURVE",
"161 181 OFFCURVE",
"215 211 OFFCURVE",
"215 289 CURVE SMOOTH",
"215 308 OFFCURVE",
"212 330 OFFCURVE",
"204 356 CURVE SMOOTH",
"191 400 OFFCURVE",
"150 437 OFFCURVE",
"150 487 CURVE SMOOTH",
"150 540 OFFCURVE",
"171 582 OFFCURVE",
"266 582 CURVE SMOOTH",
"293 582 OFFCURVE",
"380 550 OFFCURVE",
"466 530 CURVE SMOOTH",
"550 510 OFFCURVE",
"643 487 OFFCURVE",
"702 478 CURVE SMOOTH",
"718 475 OFFCURVE",
"733 474 OFFCURVE",
"749 474 CURVE SMOOTH",
"851 474 OFFCURVE",
"952 523 OFFCURVE",
"977 569 CURVE",
"1001 524 OFFCURVE",
"1106 486 OFFCURVE",
"1208 486 CURVE SMOOTH",
"1227 486 OFFCURVE",
"1246 487 OFFCURVE",
"1265 490 CURVE SMOOTH",
"1354 504 OFFCURVE",
"1600 573 OFFCURVE",
"1679 573 CURVE SMOOTH",
"1768 573 OFFCURVE",
"1795 517 OFFCURVE",
"1795 483 CURVE SMOOTH",
"1795 395 OFFCURVE",
"1745 361 OFFCURVE",
"1745 286 CURVE SMOOTH",
"1745 215 OFFCURVE",
"1790 182 OFFCURVE",
"1831 164 CURVE",
"1790 146 OFFCURVE",
"1743 85 OFFCURVE",
"1743 12 CURVE SMOOTH",
"1743 -1 OFFCURVE",
"1744 -15 OFFCURVE",
"1748 -29 CURVE SMOOTH",
"1749 -36 OFFCURVE",
"1754 -45 OFFCURVE",
"1759 -53 CURVE SMOOTH",
"1774 -82 OFFCURVE",
"1796 -112 OFFCURVE",
"1796 -144 CURVE SMOOTH",
"1796 -190 OFFCURVE",
"1771 -243 OFFCURVE",
"1683 -243 CURVE SMOOTH",
"1658 -243 OFFCURVE",
"1587 -227 OFFCURVE",
"1508 -210 CURVE SMOOTH",
"1430 -192 OFFCURVE",
"1310 -164 OFFCURVE",
"1251 -155 CURVE SMOOTH",
"1229 -152 OFFCURVE",
"1208 -150 OFFCURVE",
"1188 -150 CURVE SMOOTH",
"1077 -150 OFFCURVE",
"1001 -196 OFFCURVE",
"977 -241 CURVE",
"952 -195 OFFCURVE",
"858 -147 OFFCURVE",
"752 -147 CURVE SMOOTH",
"736 -147 OFFCURVE",
"719 -148 OFFCURVE",
"702 -151 CURVE SMOOTH",
"639 -162 OFFCURVE",
"539 -187 OFFCURVE",
"449 -209 CURVE SMOOTH",
"357 -232 OFFCURVE",
"296 -249 OFFCURVE",
"269 -249 CURVE SMOOTH"
);
}
);
width = 1963;
}
);
note = panel4;
},
{
glyphname = E.ornm;
lastChange = "2021-11-03 00:41:46 +0000";
layers = (
{
layerId = "E44713F8-1D5D-4793-848D-DDEAC8E4A199";
paths = (
{
closed = 1;
nodes = (
"885 -206 OFFCURVE",
"964 -175 OFFCURVE",
"1055 -175 CURVE SMOOTH",
"1077 -175 OFFCURVE",
"1100 -177 OFFCURVE",
"1123 -180 CURVE SMOOTH",
"1184 -186 OFFCURVE",
"1248 -201 OFFCURVE",
"1308 -215 CURVE SMOOTH",
"1368 -228 OFFCURVE",
"1425 -240 OFFCURVE",
"1471 -240 CURVE SMOOTH",
"1587 -240 OFFCURVE",
"1645 -170 OFFCURVE",
"1644 -85 CURVE SMOOTH",
"1641 0 OFFCURVE",
"1580 100 OFFCURVE",
"1458 166 CURVE",
"1580 231 OFFCURVE",
"1641 331 OFFCURVE",
"1644 415 CURVE SMOOTH",
"1645 501 OFFCURVE",
"1587 570 OFFCURVE",
"1471 570 CURVE SMOOTH",
"1425 570 OFFCURVE",
"1368 559 OFFCURVE",
"1308 546 CURVE SMOOTH",
"1248 533 OFFCURVE",
"1184 518 OFFCURVE",
"1123 511 CURVE SMOOTH",
"1100 508 OFFCURVE",
"1078 507 OFFCURVE",
"1056 507 CURVE SMOOTH",
"964 507 OFFCURVE",
"885 536 OFFCURVE",
"847 643 CURVE",
"810 536 OFFCURVE",
"730 507 OFFCURVE",
"638 507 CURVE SMOOTH",
"616 507 OFFCURVE",
"594 508 OFFCURVE",
"571 511 CURVE SMOOTH",
"510 518 OFFCURVE",
"446 533 OFFCURVE",
"386 546 CURVE SMOOTH",
"327 559 OFFCURVE",
"270 570 OFFCURVE",
"224 570 CURVE SMOOTH",
"108 570 OFFCURVE",
"50 501 OFFCURVE",
"51 415 CURVE SMOOTH",
"54 331 OFFCURVE",
"114 231 OFFCURVE",
"237 166 CURVE",
"114 100 OFFCURVE",
"54 0 OFFCURVE",
"51 -85 CURVE SMOOTH",
"50 -170 OFFCURVE",
"108 -240 OFFCURVE",
"224 -240 CURVE SMOOTH",
"270 -240 OFFCURVE",
"327 -228 OFFCURVE",
"386 -215 CURVE SMOOTH",
"446 -201 OFFCURVE",
"510 -186 OFFCURVE",
"571 -180 CURVE SMOOTH",
"594 -177 OFFCURVE",
"617 -175 OFFCURVE",
"639 -175 CURVE SMOOTH",
"731 -175 OFFCURVE",
"810 -206 OFFCURVE",
"847 -313 CURVE"
);
},
{
closed = 1;
nodes = (
"810 -201 OFFCURVE",
"730 -171 OFFCURVE",
"636 -171 CURVE SMOOTH",
"614 -171 OFFCURVE",
"592 -172 OFFCURVE",
"570 -175 CURVE SMOOTH",
"510 -182 OFFCURVE",
"446 -197 OFFCURVE",
"386 -210 CURVE SMOOTH",
"326 -224 OFFCURVE",
"269 -235 OFFCURVE",
"224 -235 CURVE SMOOTH",
"111 -235 OFFCURVE",
"55 -169 OFFCURVE",
"55 -87 CURVE SMOOTH",
"55 27 OFFCURVE",
"154 118 OFFCURVE",
"245 166 CURVE",
"154 212 OFFCURVE",
"55 304 OFFCURVE",
"55 418 CURVE SMOOTH",
"55 500 OFFCURVE",
"111 566 OFFCURVE",
"224 566 CURVE SMOOTH",
"269 566 OFFCURVE",
"326 555 OFFCURVE",
"386 542 CURVE SMOOTH",
"446 528 OFFCURVE",
"510 513 OFFCURVE",
"570 507 CURVE SMOOTH",
"593 504 OFFCURVE",
"615 503 OFFCURVE",
"637 503 CURVE SMOOTH",
"730 503 OFFCURVE",
"810 532 OFFCURVE",
"847 632 CURVE",
"884 532 OFFCURVE",
"965 503 OFFCURVE",
"1058 503 CURVE SMOOTH",
"1079 503 OFFCURVE",
"1101 504 OFFCURVE",
"1124 507 CURVE SMOOTH",
"1185 513 OFFCURVE",
"1248 528 OFFCURVE",
"1309 542 CURVE SMOOTH",
"1369 555 OFFCURVE",
"1425 566 OFFCURVE",
"1471 566 CURVE SMOOTH",
"1583 566 OFFCURVE",
"1639 501 OFFCURVE",
"1639 420 CURVE SMOOTH",
"1639 305 OFFCURVE",
"1540 213 OFFCURVE",
"1450 166 CURVE",
"1540 117 OFFCURVE",
"1639 26 OFFCURVE",
"1639 -89 CURVE SMOOTH",
"1639 -170 OFFCURVE",
"1583 -235 OFFCURVE",
"1471 -235 CURVE SMOOTH",
"1425 -235 OFFCURVE",
"1369 -224 OFFCURVE",
"1309 -210 CURVE SMOOTH",
"1248 -197 OFFCURVE",
"1185 -182 OFFCURVE",
"1124 -175 CURVE SMOOTH",
"1102 -172 OFFCURVE",
"1080 -171 OFFCURVE",
"1059 -171 CURVE SMOOTH",
"965 -171 OFFCURVE",
"884 -201 OFFCURVE",
"847 -300 CURVE"
);
},
{
closed = 1;
nodes = (
"886 -180 OFFCURVE",
"960 -157 OFFCURVE",
"1044 -157 CURVE SMOOTH",
"1070 -157 OFFCURVE",
"1096 -159 OFFCURVE",
"1123 -162 CURVE SMOOTH",
"1184 -169 OFFCURVE",
"1247 -183 OFFCURVE",
"1305 -195 CURVE SMOOTH",
"1363 -207 OFFCURVE",
"1418 -218 OFFCURVE",
"1461 -218 CURVE SMOOTH",
"1564 -218 OFFCURVE",
"1616 -160 OFFCURVE",
"1616 -87 CURVE SMOOTH",
"1616 -4 OFFCURVE",
"1553 98 OFFCURVE",
"1428 157 CURVE SMOOTH",
"1422 160 OFFCURVE",
"1419 163 OFFCURVE",
"1419 165 CURVE SMOOTH",
"1419 168 OFFCURVE",
"1422 170 OFFCURVE",
"1428 173 CURVE SMOOTH",
"1545 229 OFFCURVE",
"1609 322 OFFCURVE",
"1615 401 CURVE SMOOTH",
"1624 483 OFFCURVE",
"1571 549 OFFCURVE",
"1461 549 CURVE SMOOTH",
"1418 549 OFFCURVE",
"1363 538 OFFCURVE",
"1305 526 CURVE SMOOTH",
"1247 514 OFFCURVE",
"1184 500 OFFCURVE",
"1123 493 CURVE SMOOTH",
"1096 490 OFFCURVE",
"1069 487 OFFCURVE",
"1043 487 CURVE SMOOTH",
"960 487 OFFCURVE",
"886 512 OFFCURVE",
"847 606 CURVE",
"808 512 OFFCURVE",
"734 487 OFFCURVE",
"651 487 CURVE SMOOTH",
"625 487 OFFCURVE",
"599 490 OFFCURVE",
"572 493 CURVE SMOOTH",
"511 500 OFFCURVE",
"448 514 OFFCURVE",
"390 526 CURVE SMOOTH",
"331 538 OFFCURVE",
"277 549 OFFCURVE",
"233 549 CURVE SMOOTH",
"130 549 OFFCURVE",
"78 492 OFFCURVE",
"78 417 CURVE SMOOTH",
"78 335 OFFCURVE",
"142 233 OFFCURVE",
"267 173 CURVE SMOOTH",
"274 170 OFFCURVE",
"277 168 OFFCURVE",
"277 165 CURVE SMOOTH",
"277 163 OFFCURVE",
"274 161 OFFCURVE",
"267 157 CURVE SMOOTH",
"142 98 OFFCURVE",
"78 -4 OFFCURVE",
"78 -87 CURVE SMOOTH",
"78 -160 OFFCURVE",
"130 -218 OFFCURVE",
"233 -218 CURVE SMOOTH",
"277 -218 OFFCURVE",
"331 -207 OFFCURVE",
"390 -195 CURVE SMOOTH",
"448 -183 OFFCURVE",
"511 -169 OFFCURVE",
"572 -162 CURVE SMOOTH",
"598 -159 OFFCURVE",
"625 -157 OFFCURVE",
"651 -157 CURVE SMOOTH",
"734 -157 OFFCURVE",
"808 -180 OFFCURVE",
"847 -274 CURVE"
);
},
{
closed = 1;
nodes = (
"811 -158 OFFCURVE",
"739 -136 OFFCURVE",
"656 -136 CURVE SMOOTH",
"631 -136 OFFCURVE",
"605 -138 OFFCURVE",
"579 -141 CURVE SMOOTH",
"520 -148 OFFCURVE",
"458 -161 OFFCURVE",
"401 -173 CURVE SMOOTH",
"344 -185 OFFCURVE",
"292 -195 OFFCURVE",
"252 -195 CURVE SMOOTH",
"158 -195 OFFCURVE",
"113 -144 OFFCURVE",
"113 -79 CURVE SMOOTH",
"113 -4 OFFCURVE",
"172 91 OFFCURVE",
"289 147 CURVE SMOOTH",
"300 153 OFFCURVE",
"305 158 OFFCURVE",
"305 163 CURVE SMOOTH",
"305 199 OFFCURVE",
"113 245 OFFCURVE",
"113 410 CURVE SMOOTH",
"113 475 OFFCURVE",
"158 525 OFFCURVE",
"252 525 CURVE SMOOTH",
"292 525 OFFCURVE",
"344 516 OFFCURVE",
"401 503 CURVE SMOOTH",
"458 492 OFFCURVE",
"520 478 OFFCURVE",
"579 472 CURVE SMOOTH",
"605 469 OFFCURVE",
"630 467 OFFCURVE",
"654 467 CURVE SMOOTH",
"738 467 OFFCURVE",
"811 490 OFFCURVE",
"847 563 CURVE",
"884 490 OFFCURVE",
"957 467 OFFCURVE",
"1041 467 CURVE SMOOTH",
"1065 467 OFFCURVE",
"1090 469 OFFCURVE",
"1116 472 CURVE SMOOTH",
"1175 478 OFFCURVE",
"1237 492 OFFCURVE",
"1294 503 CURVE SMOOTH",
"1351 516 OFFCURVE",
"1402 525 OFFCURVE",
"1443 525 CURVE SMOOTH",
"1537 525 OFFCURVE",
"1582 475 OFFCURVE",
"1582 410 CURVE SMOOTH",
"1582 405 OFFCURVE",
"1581 400 OFFCURVE",
"1581 395 CURVE SMOOTH",
"1567 241 OFFCURVE",
"1390 197 OFFCURVE",
"1390 163 CURVE SMOOTH",
"1390 158 OFFCURVE",
"1395 153 OFFCURVE",
"1406 147 CURVE SMOOTH",
"1523 90 OFFCURVE",
"1582 -4 OFFCURVE",
"1582 -79 CURVE SMOOTH",
"1582 -144 OFFCURVE",
"1537 -195 OFFCURVE",
"1443 -195 CURVE SMOOTH",
"1402 -195 OFFCURVE",
"1351 -185 OFFCURVE",
"1294 -173 CURVE SMOOTH",
"1237 -161 OFFCURVE",
"1175 -148 OFFCURVE",
"1116 -141 CURVE SMOOTH",
"1090 -138 OFFCURVE",
"1064 -136 OFFCURVE",
"1039 -136 CURVE SMOOTH",
"956 -136 OFFCURVE",
"884 -158 OFFCURVE",
"847 -232 CURVE"
);
}
);
width = 1695;
}
);
note = panel5;
},
{
glyphname = F.ornm;
lastChange = "2021-11-03 00:41:46 +0000";
layers = (
{
layerId = "E44713F8-1D5D-4793-848D-DDEAC8E4A199";
paths = (
{
closed = 1;
nodes = (
"686 -309 OFFCURVE",
"691 -306 OFFCURVE",
"692 -300 CURVE SMOOTH",
"704 -254 OFFCURVE",
"770 -210 OFFCURVE",
"842 -210 CURVE SMOOTH",
"859 -210 OFFCURVE",
"876 -211 OFFCURVE",
"891 -215 CURVE SMOOTH",
"953 -233 LINE SMOOTH",
"1017 -252 OFFCURVE",
"1071 -268 OFFCURVE",
"1141 -268 CURVE SMOOTH",
"1200 -268 OFFCURVE",
"1245 -246 OFFCURVE",
"1273 -205 CURVE SMOOTH",
"1299 -165 OFFCURVE",
"1303 -117 OFFCURVE",
"1303 -92 CURVE SMOOTH",
"1303 21 OFFCURVE",
"1270 89 OFFCURVE",
"1182 160 CURVE",
"1270 231 OFFCURVE",
"1303 299 OFFCURVE",
"1303 412 CURVE SMOOTH",
"1303 438 OFFCURVE",
"1299 486 OFFCURVE",
"1273 525 CURVE SMOOTH",
"1245 567 OFFCURVE",
"1200 589 OFFCURVE",
"1141 589 CURVE SMOOTH",
"1071 589 OFFCURVE",
"1017 572 OFFCURVE",
"953 553 CURVE SMOOTH",
"934 547 OFFCURVE",
"913 541 OFFCURVE",
"891 536 CURVE SMOOTH",
"876 533 OFFCURVE",
"859 530 OFFCURVE",
"842 530 CURVE SMOOTH",
"770 530 OFFCURVE",
"704 588 OFFCURVE",
"692 635 CURVE SMOOTH",
"691 641 OFFCURVE",
"686 645 OFFCURVE",
"680 645 CURVE SMOOTH",
"674 645 OFFCURVE",
"669 641 OFFCURVE",
"668 635 CURVE SMOOTH",
"657 588 OFFCURVE",
"591 530 OFFCURVE",
"520 530 CURVE SMOOTH",
"501 530 OFFCURVE",
"484 533 OFFCURVE",
"470 536 CURVE SMOOTH",
"448 541 OFFCURVE",
"427 547 OFFCURVE",
"408 553 CURVE SMOOTH",
"343 572 OFFCURVE",
"290 589 OFFCURVE",
"219 589 CURVE SMOOTH",
"161 589 OFFCURVE",
"116 567 OFFCURVE",
"88 525 CURVE SMOOTH",
"61 486 OFFCURVE",
"58 438 OFFCURVE",
"58 412 CURVE SMOOTH",
"58 299 OFFCURVE",
"89 231 OFFCURVE",
"178 160 CURVE",
"89 89 OFFCURVE",
"58 21 OFFCURVE",
"58 -92 CURVE SMOOTH",
"58 -117 OFFCURVE",
"61 -165 OFFCURVE",
"88 -205 CURVE SMOOTH",
"116 -246 OFFCURVE",
"161 -268 OFFCURVE",
"219 -268 CURVE SMOOTH",
"290 -268 OFFCURVE",
"343 -252 OFFCURVE",
"408 -233 CURVE SMOOTH",
"470 -215 LINE SMOOTH",
"484 -211 OFFCURVE",
"501 -210 OFFCURVE",
"520 -210 CURVE SMOOTH",
"591 -210 OFFCURVE",
"657 -254 OFFCURVE",
"668 -300 CURVE SMOOTH",
"669 -306 OFFCURVE",
"674 -309 OFFCURVE",
"680 -309 CURVE SMOOTH"
);
},
{
closed = 1;
nodes = (
"161 -166 LINE",
"159 -164 OFFCURVE",
"156 -160 OFFCURVE",
"155 -157 CURVE",
"148 -162 LINE",
"155 -171 LINE"
);
},
{
closed = 1;
nodes = (
"187 -187 LINE",
"183 -184 OFFCURVE",
"181 -183 OFFCURVE",
"177 -181 CURVE",
"172 -187 LINE",
"176 -189 OFFCURVE",
"179 -191 OFFCURVE",
"182 -194 CURVE"
);
},
{
closed = 1;
nodes = (
"143 -138 LINE",
"139 -128 LINE",
"131 -131 LINE",
"133 -134 OFFCURVE",
"135 -138 OFFCURVE",
"136 -142 CURVE"
);
},
{
closed = 1;
nodes = (
"217 -199 LINE",
"213 -199 OFFCURVE",
"210 -197 OFFCURVE",
"206 -196 CURVE",
"204 -204 LINE",
"215 -207 LINE"
);
},
{
closed = 1;
nodes = (
"132 -108 LINE",
"132 -104 OFFCURVE",
"131 -101 OFFCURVE",
"131 -97 CURVE",
"122 -98 LINE",
"122 -102 OFFCURVE",
"124 -105 OFFCURVE",
"125 -109 CURVE"
);
},
{
closed = 1;
nodes = (
"248 -212 LINE",
"248 -205 LINE",
"245 -204 OFFCURVE",
"241 -204 OFFCURVE",
"238 -204 CURVE",
"238 -212 LINE"
);
},
{
closed = 1;
nodes = (
"129 -75 LINE",
"127 -71 OFFCURVE",
"127 -67 OFFCURVE",
"127 -63 CURVE",
"119 -63 LINE",
"119 -68 OFFCURVE",
"120 -71 OFFCURVE",
"120 -75 CURVE"
);
},
{
closed = 1;
nodes = (
"275 -212 OFFCURVE",
"279 -212 OFFCURVE",
"282 -212 CURVE",
"282 -204 LINE",
"279 -205 OFFCURVE",
"275 -205 OFFCURVE",
"272 -205 CURVE",
"272 -213 LINE"
);
},
{
closed = 1;
nodes = (
"129 -41 LINE",
"129 -30 LINE",
"121 -29 LINE",
"120 -33 OFFCURVE",
"120 -36 OFFCURVE",
"120 -41 CURVE"
);
},
{
closed = 1;
nodes = (
"309 -210 OFFCURVE",
"313 -210 OFFCURVE",
"316 -208 CURVE",
"315 -201 LINE",
"312 -201 OFFCURVE",
"308 -201 OFFCURVE",
"304 -202 CURVE",
"305 -211 LINE"
);
},
{
closed = 1;
nodes = (
"132 -4 OFFCURVE",
"133 0 OFFCURVE",
"133 2 CURVE",
"126 5 LINE",
"125 1 OFFCURVE",
"124 -2 OFFCURVE",
"124 -6 CURVE",
"132 -8 LINE"
);
},
{
closed = 1;
nodes = (
"343 -205 OFFCURVE",
"347 -204 OFFCURVE",
"350 -204 CURVE",
"349 -195 LINE",
"338 -197 LINE",
"339 -205 LINE"
);
},
{
closed = 1;
nodes = (
"139 28 OFFCURVE",
"141 32 OFFCURVE",
"142 35 CURVE",
"135 38 LINE",
"133 34 OFFCURVE",
"132 30 OFFCURVE",
"131 27 CURVE",
"139 24 LINE"
);
},
{
closed = 1;
nodes = (
"376 -197 OFFCURVE",
"379 -196 OFFCURVE",
"384 -195 CURVE",
"382 -188 LINE",
"378 -188 OFFCURVE",
"375 -189 OFFCURVE",
"371 -190 CURVE",
"372 -197 LINE"
);
},
{
closed = 1;
nodes = (
"153 58 OFFCURVE",
"154 62 OFFCURVE",
"156 66 CURVE",
"149 69 LINE",
"143 59 LINE",
"150 56 LINE"
);
},
{
closed = 1;
nodes = (
"417 -187 LINE",
"415 -178 LINE",
"404 -182 LINE",
"406 -189 LINE"
);
},
{
closed = 1;
nodes = (
"175 93 LINE",
"168 98 LINE",
"166 95 OFFCURVE",
"164 92 OFFCURVE",
"161 89 CURVE",
"167 84 LINE"
);
},
{
closed = 1;
nodes = (
"441 -179 OFFCURVE",
"445 -178 OFFCURVE",
"448 -177 CURVE",
"447 -170 LINE",
"436 -172 LINE",
"439 -181 LINE"
);
},
{
closed = 1;
nodes = (
"196 118 LINE",
"190 124 LINE",
"183 115 LINE",
"189 110 LINE"
);
},
{
closed = 1;
nodes = (
"474 -171 OFFCURVE",
"478 -170 OFFCURVE",
"481 -168 CURVE",
"480 -160 LINE",
"476 -161 OFFCURVE",
"473 -162 OFFCURVE",
"469 -164 CURVE",
"470 -171 LINE"
);
},
{
closed = 1;
nodes = (
"507 -164 OFFCURVE",
"510 -162 OFFCURVE",
"514 -162 CURVE",
"514 -154 LINE",
"510 -155 OFFCURVE",
"505 -155 OFFCURVE",
"502 -155 CURVE",
"503 -164 LINE"
);
},
{
closed = 1;
nodes = (
"222 141 LINE",
"216 147 LINE",
"207 139 LINE",
"213 133 LINE"
);
},
{
closed = 1;
nodes = (
"548 -154 LINE",
"544 -154 OFFCURVE",
"541 -154 OFFCURVE",
"537 -153 CURVE",
"537 -161 LINE",
"541 -161 OFFCURVE",
"544 -161 OFFCURVE",
"548 -162 CURVE"
);
},
{
closed = 1;
nodes = (
"196 204 LINE",
"194 206 OFFCURVE",
"192 210 OFFCURVE",
"189 212 CURVE",
"183 206 LINE",
"190 198 LINE"
);
},
{
closed = 1;
nodes = (
"221 182 LINE",
"218 184 OFFCURVE",
"216 187 OFFCURVE",
"212 189 CURVE",
"207 182 LINE",
"210 179 OFFCURVE",
"213 177 OFFCURVE",
"216 175 CURVE"
);
},
{
closed = 1;
nodes = (
"175 229 LINE",
"167 238 LINE",
"161 233 LINE",
"162 230 OFFCURVE",
"165 227 OFFCURVE",
"167 223 CURVE"
);
},
{
closed = 1;
nodes = (
"244 158 LINE",
"248 160 LINE",
"244 164 LINE",
"239 167 LINE",
"234 161 LINE",
"234 160 LINE",
"239 154 LINE"
);
},
{
closed = 1;
nodes = (
"156 256 LINE",
"154 259 OFFCURVE",
"153 263 OFFCURVE",
"150 267 CURVE",
"143 263 LINE",
"149 252 LINE"
);
},
{
closed = 1;
nodes = (
"582 -159 LINE",
"578 -157 OFFCURVE",
"575 -157 OFFCURVE",
"571 -156 CURVE",
"570 -165 LINE",
"573 -165 OFFCURVE",
"577 -166 OFFCURVE",
"581 -167 CURVE"
);
},
{
closed = 1;
nodes = (
"142 286 LINE",
"138 297 LINE",
"131 295 LINE",
"132 291 OFFCURVE",
"133 287 OFFCURVE",
"135 284 CURVE"
);
},
{
closed = 1;
nodes = (
"616 -170 LINE",
"605 -165 LINE",
"601 -173 LINE",
"612 -177 LINE"
);
},
{
closed = 1;
nodes = (
"685 -239 LINE",
"685 -237 OFFCURVE",
"685 -236 OFFCURVE",
"686 -234 CURVE",
"684 -233 LINE",
"682 -233 OFFCURVE",
"682 -231 OFFCURVE",
"682 -231 CURVE",
"680 -233 LINE",
"678 -231 LINE",
"678 -233 LINE",
"675 -234 LINE",
"675 -236 OFFCURVE",
"676 -237 OFFCURVE",
"676 -239 CURVE",
"680 -254 LINE"
);
},
{
closed = 1;
nodes = (
"646 -185 LINE",
"642 -184 OFFCURVE",
"639 -182 OFFCURVE",
"636 -179 CURVE",
"631 -187 LINE",
"635 -189 OFFCURVE",
"638 -190 OFFCURVE",
"641 -193 CURVE"
);
},
{
closed = 1;
nodes = (
"133 319 LINE",
"133 322 OFFCURVE",
"132 326 OFFCURVE",
"131 330 CURVE",
"124 329 LINE",
"124 325 OFFCURVE",
"125 321 OFFCURVE",
"125 318 CURVE"
);
},
{
closed = 1;
nodes = (
"671 -210 LINE",
"669 -207 OFFCURVE",
"667 -204 OFFCURVE",
"663 -201 CURVE",
"657 -207 LINE",
"661 -210 OFFCURVE",
"662 -212 OFFCURVE",
"664 -214 CURVE"
);
},
{
closed = 1;
nodes = (
"129 352 LINE",
"129 362 LINE",
"120 362 LINE",
"120 359 OFFCURVE",
"120 355 OFFCURVE",
"121 352 CURVE"
);
},
{
closed = 1;
nodes = (
"698 -212 OFFCURVE",
"701 -210 OFFCURVE",
"703 -207 CURVE",
"697 -201 LINE",
"695 -205 OFFCURVE",
"692 -207 OFFCURVE",
"690 -211 CURVE",
"696 -216 LINE"
);
},
{
closed = 1;
nodes = (
"127 385 LINE",
"127 389 OFFCURVE",
"127 393 OFFCURVE",
"129 396 CURVE",
"120 396 LINE",
"120 393 OFFCURVE",
"119 389 OFFCURVE",
"119 385 CURVE"
);
},
{
closed = 1;
nodes = (
"728 -187 LINE",
"725 -179 LINE",
"715 -187 LINE",
"720 -193 LINE"
);
},
{
closed = 1;
nodes = (
"131 422 OFFCURVE",
"132 425 OFFCURVE",
"132 429 CURVE",
"125 432 LINE",
"124 428 OFFCURVE",
"124 423 OFFCURVE",
"122 419 CURVE",
"131 418 LINE"
);
},
{
closed = 1;
nodes = (
"759 -173 LINE",
"756 -165 LINE",
"753 -167 OFFCURVE",
"749 -168 OFFCURVE",
"745 -170 CURVE",
"748 -177 LINE"
);
},
{
closed = 1;
nodes = (
"141 453 OFFCURVE",
"142 457 OFFCURVE",
"144 461 CURVE",
"136 464 LINE",
"132 453 LINE",
"139 450 LINE"
);
},
{
closed = 1;
nodes = (
"783 -166 OFFCURVE",
"787 -165 OFFCURVE",
"790 -165 CURVE",
"789 -156 LINE",
"785 -157 OFFCURVE",
"782 -157 OFFCURVE",
"778 -159 CURVE",
"779 -167 LINE"
);
},
{
closed = 1;
nodes = (
"158 482 OFFCURVE",
"159 485 OFFCURVE",
"161 487 CURVE",
"155 493 LINE",
"148 484 LINE",
"155 479 LINE"
);
},
{
closed = 1;
nodes = (
"817 -161 OFFCURVE",
"821 -161 OFFCURVE",
"824 -161 CURVE",
"824 -153 LINE",
"819 -154 OFFCURVE",
"816 -154 OFFCURVE",
"812 -154 CURVE",
"812 -162 LINE"
);
},
{
closed = 1;
nodes = (
"181 504 OFFCURVE",
"184 507 OFFCURVE",
"187 508 CURVE",
"183 515 LINE",
"179 513 OFFCURVE",
"176 510 OFFCURVE",
"173 509 CURVE",
"178 502 LINE"
);
},
{
closed = 1;
nodes = (
"858 -155 LINE",
"854 -155 OFFCURVE",
"851 -154 OFFCURVE",
"846 -154 CURVE",
"846 -162 LINE",
"850 -162 OFFCURVE",
"853 -164 OFFCURVE",
"857 -164 CURVE"
);
},
{
closed = 1;
nodes = (
"892 -164 LINE",
"888 -162 OFFCURVE",
"885 -161 OFFCURVE",
"881 -160 CURVE",
"879 -168 LINE",
"882 -170 OFFCURVE",
"886 -170 OFFCURVE",
"890 -171 CURVE"
);
},
{
closed = 1;
nodes = (
"210 519 OFFCURVE",
"213 520 OFFCURVE",
"217 520 CURVE",
"215 528 LINE",
"204 525 LINE",
"206 518 LINE"
);
},
{
closed = 1;
nodes = (
"925 -172 LINE",
"921 -171 OFFCURVE",
"918 -170 OFFCURVE",
"914 -170 CURVE",
"911 -177 LINE",
"915 -178 OFFCURVE",
"919 -179 OFFCURVE",
"922 -181 CURVE"
);
},
{
closed = 1;
nodes = (
"956 -182 LINE",
"945 -178 LINE",
"944 -187 LINE",
"955 -189 LINE"
);
},
{
closed = 1;
nodes = (
"242 525 OFFCURVE",
"246 525 OFFCURVE",
"250 526 CURVE",
"248 533 LINE",
"238 533 LINE",
"239 525 LINE"
);
},
{
closed = 1;
nodes = (
"989 -190 LINE",
"978 -187 LINE",
"977 -195 LINE",
"981 -196 OFFCURVE",
"984 -197 OFFCURVE",
"988 -197 CURVE"
);
},
{
closed = 1;
nodes = (
"284 533 LINE",
"280 533 OFFCURVE",
"275 533 OFFCURVE",
"272 535 CURVE",
"272 526 LINE",
"275 526 OFFCURVE",
"279 526 OFFCURVE",
"282 525 CURVE"
);
},
{
closed = 1;
nodes = (
"1023 -197 LINE",
"1018 -196 OFFCURVE",
"1014 -195 OFFCURVE",
"1011 -195 CURVE",
"1010 -202 LINE",
"1013 -204 OFFCURVE",
"1017 -205 OFFCURVE",
"1021 -205 CURVE"
);
},
{
closed = 1;
nodes = (
"318 530 LINE",
"305 532 LINE",
"305 524 LINE",
"309 522 OFFCURVE",
"313 522 OFFCURVE",
"316 522 CURVE"
);
},
{
closed = 1;
nodes = (
"652 -229 OFFCURVE",
"588 -197 OFFCURVE",
"518 -197 CURVE SMOOTH",
"497 -197 OFFCURVE",
"479 -200 OFFCURVE",
"461 -205 CURVE SMOOTH",
"438 -211 OFFCURVE",
"417 -217 OFFCURVE",
"398 -223 CURVE SMOOTH",
"335 -242 OFFCURVE",
"281 -258 OFFCURVE",
"213 -258 CURVE SMOOTH",
"85 -258 OFFCURVE",
"75 -138 OFFCURVE",
"75 -101 CURVE SMOOTH",
"75 13 OFFCURVE",
"108 79 OFFCURVE",
"201 150 CURVE",
"204 153 OFFCURVE",
"206 156 OFFCURVE",
"206 160 CURVE SMOOTH",
"206 165 OFFCURVE",
"204 169 OFFCURVE",
"201 171 CURVE SMOOTH",
"108 242 OFFCURVE",
"75 308 OFFCURVE",
"75 422 CURVE SMOOTH",
"75 459 OFFCURVE",
"85 579 OFFCURVE",
"213 579 CURVE SMOOTH",
"281 579 OFFCURVE",
"335 564 OFFCURVE",
"398 544 CURVE SMOOTH",
"417 538 OFFCURVE",
"438 532 OFFCURVE",
"461 526 CURVE SMOOTH",
"479 521 OFFCURVE",
"498 519 OFFCURVE",
"518 519 CURVE SMOOTH",
"588 519 OFFCURVE",
"652 550 OFFCURVE",
"680 594 CURVE",
"708 550 OFFCURVE",
"772 519 OFFCURVE",
"844 519 CURVE SMOOTH",
"863 519 OFFCURVE",
"882 521 OFFCURVE",
"901 526 CURVE SMOOTH",
"964 544 LINE SMOOTH",
"1027 564 OFFCURVE",
"1080 579 OFFCURVE",
"1147 579 CURVE SMOOTH",
"1276 579 OFFCURVE",
"1286 459 OFFCURVE",
"1286 422 CURVE SMOOTH",
"1286 308 OFFCURVE",
"1253 242 OFFCURVE",
"1160 171 CURVE SMOOTH",
"1157 169 OFFCURVE",
"1155 165 OFFCURVE",
"1155 160 CURVE SMOOTH",
"1155 156 OFFCURVE",
"1157 153 OFFCURVE",
"1160 150 CURVE",
"1253 79 OFFCURVE",
"1286 13 OFFCURVE",
"1286 -101 CURVE SMOOTH",
"1286 -138 OFFCURVE",
"1276 -258 OFFCURVE",
"1147 -258 CURVE SMOOTH",
"1080 -258 OFFCURVE",
"1027 -242 OFFCURVE",
"964 -223 CURVE SMOOTH",
"901 -205 LINE SMOOTH",
"882 -200 OFFCURVE",
"863 -197 OFFCURVE",
"844 -197 CURVE SMOOTH",
"772 -197 OFFCURVE",
"708 -229 OFFCURVE",
"680 -273 CURVE"
);
},
{
closed = 1;
nodes = (
"1056 -202 LINE",
"1052 -201 OFFCURVE",
"1048 -201 OFFCURVE",
"1045 -201 CURVE",
"1044 -208 LINE",
"1047 -210 OFFCURVE",
"1051 -210 OFFCURVE",
"1054 -211 CURVE"
);
},
{
closed = 1;
nodes = (
"352 524 LINE",
"347 525 OFFCURVE",
"343 526 OFFCURVE",
"339 526 CURVE",
"338 519 LINE",
"342 518 OFFCURVE",
"345 516 OFFCURVE",
"349 516 CURVE"
);
},
{
closed = 1;
nodes = (
"1088 -205 LINE",
"1085 -205 OFFCURVE",
"1081 -205 OFFCURVE",
"1077 -204 CURVE",
"1077 -212 LINE",
"1081 -212 OFFCURVE",
"1085 -212 OFFCURVE",
"1088 -213 CURVE"
);
},
{
closed = 1;
nodes = (
"384 516 LINE",
"381 518 OFFCURVE",
"377 519 OFFCURVE",
"373 519 CURVE",
"371 512 LINE",
"375 510 OFFCURVE",
"378 509 OFFCURVE",
"382 508 CURVE"
);
},
{
closed = 1;
nodes = (
"1124 -212 LINE",
"1122 -204 LINE",
"1119 -204 OFFCURVE",
"1115 -204 OFFCURVE",
"1111 -205 CURVE",
"1111 -212 LINE"
);
},
{
closed = 1;
nodes = (
"417 508 LINE",
"406 510 LINE",
"404 503 LINE",
"407 502 OFFCURVE",
"411 501 OFFCURVE",
"415 499 CURVE"
);
},
{
closed = 1;
nodes = (
"450 498 LINE",
"439 502 LINE",
"436 493 LINE",
"440 492 OFFCURVE",
"444 491 OFFCURVE",
"447 491 CURVE"
);
},
{
closed = 1;
nodes = (
"1157 -204 LINE",
"1154 -196 LINE",
"1151 -197 OFFCURVE",
"1148 -199 OFFCURVE",
"1144 -199 CURVE",
"1145 -207 LINE"
);
},
{
closed = 1;
nodes = (
"482 490 LINE",
"471 492 LINE",
"469 485 LINE",
"480 481 LINE"
);
},
{
closed = 1;
nodes = (
"515 484 LINE",
"511 484 OFFCURVE",
"508 485 OFFCURVE",
"504 485 CURVE",
"503 476 LINE",
"507 476 OFFCURVE",
"510 475 OFFCURVE",
"514 475 CURVE"
);
},
{
closed = 1;
nodes = (
"1182 -191 OFFCURVE",
"1184 -190 OFFCURVE",
"1188 -188 CURVE",
"1183 -181 LINE",
"1181 -183 OFFCURVE",
"1177 -185 OFFCURVE",
"1174 -187 CURVE",
"1178 -194 LINE"
);
},
{
closed = 1;
nodes = (
"541 475 OFFCURVE",
"544 475 OFFCURVE",
"549 475 CURVE",
"548 484 LINE",
"544 482 OFFCURVE",
"541 482 OFFCURVE",
"537 482 CURVE",
"537 474 LINE"
);
},
{
closed = 1;
nodes = (
"1207 -168 OFFCURVE",
"1210 -166 OFFCURVE",
"1212 -162 CURVE",
"1206 -157 LINE",
"1204 -161 OFFCURVE",
"1201 -164 OFFCURVE",
"1199 -166 CURVE",
"1205 -172 LINE"
);
},
{
closed = 1;
nodes = (
"583 480 LINE",
"581 488 LINE",
"577 487 OFFCURVE",
"573 486 OFFCURVE",
"570 486 CURVE",
"571 478 LINE"
);
},
{
closed = 1;
nodes = (
"1227 -139 OFFCURVE",
"1228 -136 OFFCURVE",
"1229 -132 CURVE",
"1222 -128 LINE",
"1221 -132 OFFCURVE",
"1218 -136 OFFCURVE",
"1217 -139 CURVE",
"1224 -143 LINE"
);
},
{
closed = 1;
nodes = (
"608 487 OFFCURVE",
"612 490 OFFCURVE",
"616 491 CURVE",
"612 498 LINE",
"602 495 LINE",
"605 486 LINE"
);
},
{
closed = 1;
nodes = (
"1236 -107 OFFCURVE",
"1237 -102 OFFCURVE",
"1239 -98 CURVE",
"1230 -97 LINE",
"1228 -108 LINE",
"1236 -110 LINE"
);
},
{
closed = 1;
nodes = (
"640 503 OFFCURVE",
"642 505 OFFCURVE",
"646 508 CURVE",
"641 514 LINE",
"631 508 LINE",
"636 501 LINE"
);
},
{
closed = 1;
nodes = (
"1241 -75 LINE",
"1241 -64 LINE",
"1233 -64 LINE",
"1233 -75 LINE"
);
},
{
closed = 1;
nodes = (
"667 526 OFFCURVE",
"669 528 OFFCURVE",
"671 532 CURVE",
"664 537 LINE",
"663 533 OFFCURVE",
"661 531 OFFCURVE",
"658 528 CURVE",
"664 522 LINE"
);
},
{
closed = 1;
nodes = (
"1241 -41 LINE",
"1240 -38 OFFCURVE",
"1240 -34 OFFCURVE",
"1240 -30 CURVE",
"1231 -30 LINE",
"1233 -34 OFFCURVE",
"1233 -38 OFFCURVE",
"1233 -41 CURVE"
);
},
{
closed = 1;
nodes = (
"703 528 LINE",
"696 536 LINE",
"690 531 LINE",
"697 522 LINE"
);
},
{
closed = 1;
nodes = (
"728 508 LINE",
"720 514 LINE",
"715 507 LINE",
"725 501 LINE"
);
},
{
closed = 1;
nodes = (
"1237 -7 LINE",
"1235 4 LINE",
"1228 2 LINE",
"1229 -8 LINE"
);
},
{
closed = 1;
nodes = (
"759 495 LINE",
"749 498 LINE",
"745 491 LINE",
"749 490 OFFCURVE",
"753 487 OFFCURVE",
"756 486 CURVE"
);
},
{
closed = 1;
nodes = (
"680 554 LINE",
"682 553 LINE",
"682 553 OFFCURVE",
"682 554 OFFCURVE",
"684 554 CURVE",
"686 555 LINE",
"685 558 OFFCURVE",
"685 559 OFFCURVE",
"685 560 CURVE",
"680 576 LINE",
"676 560 LINE SMOOTH",
"676 559 OFFCURVE",
"675 558 OFFCURVE",
"675 555 CURVE",
"678 554 LINE",
"678 553 LINE"
);
},
{
closed = 1;
nodes = (
"1230 27 LINE",
"1227 38 LINE",
"1218 35 LINE",
"1222 24 LINE"
);
},
{
closed = 1;
nodes = (
"791 486 LINE",
"788 486 OFFCURVE",
"784 487 OFFCURVE",
"781 488 CURVE",
"778 480 LINE",
"790 478 LINE"
);
},
{
closed = 1;
nodes = (
"1217 58 LINE",
"1216 62 OFFCURVE",
"1214 66 OFFCURVE",
"1212 69 CURVE",
"1205 66 LINE",
"1207 62 OFFCURVE",
"1208 58 OFFCURVE",
"1210 55 CURVE"
);
},
{
closed = 1;
nodes = (
"1126 160 LINE",
"1126 161 LINE",
"1121 167 LINE",
"1120 166 OFFCURVE",
"1119 165 OFFCURVE",
"1116 164 CURVE",
"1113 160 LINE",
"1116 158 LINE",
"1121 154 LINE"
);
},
{
closed = 1;
nodes = (
"1200 89 LINE",
"1197 91 OFFCURVE",
"1195 95 OFFCURVE",
"1193 98 CURVE",
"1187 92 LINE",
"1193 84 LINE"
);
},
{
closed = 1;
nodes = (
"1154 139 LINE",
"1144 147 LINE",
"1139 139 LINE",
"1143 137 OFFCURVE",
"1145 135 OFFCURVE",
"1148 132 CURVE"
);
},
{
closed = 1;
nodes = (
"1178 115 LINE",
"1170 124 LINE",
"1165 118 LINE",
"1172 109 LINE"
);
},
{
closed = 1;
nodes = (
"824 482 LINE",
"821 482 OFFCURVE",
"817 482 OFFCURVE",
"813 484 CURVE",
"812 475 LINE",
"817 475 OFFCURVE",
"821 475 OFFCURVE",
"824 474 CURVE"
);
},
{
closed = 1;
nodes = (
"1148 177 OFFCURVE",
"1150 179 OFFCURVE",
"1153 182 CURVE",
"1148 188 LINE",
"1145 185 OFFCURVE",
"1142 183 OFFCURVE",
"1139 181 CURVE",
"1144 175 LINE"
);
},
{
closed = 1;
nodes = (
"851 476 OFFCURVE",
"854 476 OFFCURVE",
"858 476 CURVE",
"857 485 LINE",
"853 485 OFFCURVE",
"850 484 OFFCURVE",
"846 484 CURVE",
"847 475 LINE"
);
},
{
closed = 1;
nodes = (
"892 485 LINE",
"890 492 LINE",
"886 492 OFFCURVE",
"882 491 OFFCURVE",
"879 490 CURVE",
"881 481 LINE"
);
},
{
closed = 1;
nodes = (
"1178 206 LINE",
"1172 211 LINE",
"1164 204 LINE",
"1170 198 LINE"
);
},
{
closed = 1;
nodes = (
"925 493 LINE",
"922 502 LINE",
"911 498 LINE",
"914 491 LINE"
);
},
{
closed = 1;
nodes = (
"1195 227 OFFCURVE",
"1197 229 OFFCURVE",
"1200 233 CURVE",
"1193 238 LINE",
"1190 234 OFFCURVE",
"1189 232 OFFCURVE",
"1187 228 CURVE",
"1193 223 LINE"
);
},
{
closed = 1;
nodes = (
"950 501 OFFCURVE",
"954 502 OFFCURVE",
"958 503 CURVE",
"955 510 LINE",
"944 508 LINE",
"947 499 LINE"
);
},
{
closed = 1;
nodes = (
"1213 256 OFFCURVE",
"1216 258 OFFCURVE",
"1217 262 CURVE",
"1210 265 LINE",
"1208 262 OFFCURVE",
"1206 259 OFFCURVE",
"1205 256 CURVE",
"1212 252 LINE"
);
},
{
closed = 1;
nodes = (
"983 509 OFFCURVE",
"987 510 OFFCURVE",
"990 512 CURVE",
"988 519 LINE",
"984 519 OFFCURVE",
"981 518 OFFCURVE",
"977 516 CURVE",
"979 509 LINE"
);
},
{
closed = 1;
nodes = (
"1230 295 LINE",
"1222 297 LINE",
"1218 286 LINE",
"1227 284 LINE"
);
},
{
closed = 1;
nodes = (
"1016 518 OFFCURVE",
"1019 518 OFFCURVE",
"1023 519 CURVE",
"1022 526 LINE",
"1018 526 OFFCURVE",
"1013 525 OFFCURVE",
"1010 525 CURVE",
"1012 516 LINE"
);
},
{
closed = 1;
nodes = (
"1237 327 LINE",
"1229 330 LINE",
"1229 325 OFFCURVE",
"1228 321 OFFCURVE",
"1227 319 CURVE",
"1235 316 LINE"
);
},
{
closed = 1;
nodes = (
"1048 522 OFFCURVE",
"1052 522 OFFCURVE",
"1056 524 CURVE",
"1056 532 LINE",
"1044 530 LINE",
"1045 522 LINE"
);
},
{
closed = 1;
nodes = (
"1240 354 OFFCURVE",
"1240 358 OFFCURVE",
"1241 362 CURVE",
"1233 362 LINE",
"1233 359 OFFCURVE",
"1231 355 OFFCURVE",
"1231 352 CURVE",
"1240 350 LINE"
);
},
{
closed = 1;
nodes = (
"1082 526 OFFCURVE",
"1086 526 OFFCURVE",
"1090 526 CURVE",
"1090 535 LINE",
"1086 533 OFFCURVE",
"1081 533 OFFCURVE",
"1077 533 CURVE",
"1079 525 LINE"
);
},
{
closed = 1;
nodes = (
"1241 384 LINE",
"1241 396 LINE",
"1233 396 LINE",
"1233 384 LINE"
);
},
{
closed = 1;
nodes = (
"1124 533 LINE",
"1113 533 LINE",
"1111 526 LINE",
"1115 525 OFFCURVE",
"1119 525 OFFCURVE",
"1122 525 CURVE"
);
},
{
closed = 1;
nodes = (
"1239 419 LINE",
"1237 423 OFFCURVE",
"1237 427 OFFCURVE",
"1236 430 CURVE",
"1228 429 LINE",
"1229 425 OFFCURVE",
"1230 422 OFFCURVE",
"1230 418 CURVE"
);
},
{
closed = 1;
nodes = (
"1157 525 LINE",
"1147 528 LINE",
"1144 520 LINE",
"1148 520 OFFCURVE",
"1151 519 OFFCURVE",
"1155 518 CURVE"
);
},
{
closed = 1;
nodes = (
"1229 452 LINE",
"1228 456 OFFCURVE",
"1227 459 OFFCURVE",
"1224 463 CURVE",
"1217 459 LINE",
"1219 457 OFFCURVE",
"1221 453 OFFCURVE",
"1222 450 CURVE"
);
},
{
closed = 1;
nodes = (
"1188 508 LINE",
"1185 510 OFFCURVE",
"1182 513 OFFCURVE",
"1178 515 CURVE",
"1174 508 LINE",
"1177 505 OFFCURVE",
"1181 504 OFFCURVE",
"1183 502 CURVE"
);
},
{
closed = 1;
nodes = (
"1213 484 LINE",
"1206 492 LINE",
"1199 487 LINE",
"1206 479 LINE"
);
}
);
width = 1361;
}
);
note = panel6;
},
{
glyphname = G.ornm;
lastChange = "2021-11-03 00:41:46 +0000";
layers = (
{
layerId = "E44713F8-1D5D-4793-848D-DDEAC8E4A199";
paths = (
{
closed = 1;
nodes = (
"755 -295 LINE SMOOTH",
"773 -247 OFFCURVE",
"846 -223 OFFCURVE",
"904 -223 CURVE SMOOTH",
"929 -223 OFFCURVE",
"955 -226 OFFCURVE",
"980 -231 CURVE SMOOTH",
"1059 -245 OFFCURVE",
"1135 -274 OFFCURVE",
"1217 -274 CURVE SMOOTH",
"1308 -274 OFFCURVE",
"1392 -229 OFFCURVE",
"1392 -146 CURVE SMOOTH",
"1392 -74 OFFCURVE",
"1331 -20 OFFCURVE",
"1331 46 CURVE SMOOTH",
"1331 100 OFFCURVE",
"1382 147 OFFCURVE",
"1446 157 CURVE",
"1446 169 LINE",
"1382 179 OFFCURVE",
"1331 225 OFFCURVE",
"1331 280 CURVE SMOOTH",
"1331 347 OFFCURVE",
"1392 399 OFFCURVE",
"1392 471 CURVE SMOOTH",
"1392 554 OFFCURVE",
"1308 600 OFFCURVE",
"1217 600 CURVE SMOOTH",
"1109 600 OFFCURVE",
"1011 548 OFFCURVE",
"904 548 CURVE SMOOTH",
"846 548 OFFCURVE",
"773 572 OFFCURVE",
"755 620 CURVE SMOOTH",
"748 640 LINE",
"741 620 LINE SMOOTH",
"723 572 OFFCURVE",
"651 548 OFFCURVE",
"592 548 CURVE SMOOTH",
"485 548 OFFCURVE",
"387 600 OFFCURVE",
"280 600 CURVE SMOOTH",
"188 600 OFFCURVE",
"104 554 OFFCURVE",
"104 471 CURVE SMOOTH",
"104 399 OFFCURVE",
"166 347 OFFCURVE",
"166 280 CURVE SMOOTH",
"166 225 OFFCURVE",
"115 179 OFFCURVE",
"50 169 CURVE",
"50 157 LINE",
"115 147 OFFCURVE",
"166 100 OFFCURVE",
"166 46 CURVE SMOOTH",
"166 -20 OFFCURVE",
"104 -74 OFFCURVE",
"104 -146 CURVE SMOOTH",
"104 -229 OFFCURVE",
"188 -274 OFFCURVE",
"280 -274 CURVE SMOOTH",
"387 -274 OFFCURVE",
"485 -223 OFFCURVE",
"592 -223 CURVE SMOOTH",
"651 -223 OFFCURVE",
"723 -247 OFFCURVE",
"741 -295 CURVE SMOOTH",
"748 -315 LINE"
);
},
{
closed = 1;
nodes = (
"720 -223 OFFCURVE",
"649 -203 OFFCURVE",
"595 -203 CURVE SMOOTH",
"490 -203 OFFCURVE",
"394 -253 OFFCURVE",
"289 -253 CURVE SMOOTH",
"204 -253 OFFCURVE",
"132 -212 OFFCURVE",
"132 -140 CURVE SMOOTH",
"132 -73 OFFCURVE",
"192 -19 OFFCURVE",
"192 48 CURVE SMOOTH",
"192 100 OFFCURVE",
"150 145 OFFCURVE",
"93 163 CURVE",
"150 180 OFFCURVE",
"192 226 OFFCURVE",
"192 278 CURVE SMOOTH",
"192 345 OFFCURVE",
"132 398 OFFCURVE",
"132 465 CURVE SMOOTH",
"132 537 OFFCURVE",
"204 578 OFFCURVE",
"289 578 CURVE SMOOTH",
"394 578 OFFCURVE",
"490 528 OFFCURVE",
"595 528 CURVE SMOOTH",
"649 528 OFFCURVE",
"720 548 OFFCURVE",
"748 593 CURVE",
"776 548 OFFCURVE",
"847 528 OFFCURVE",
"901 528 CURVE SMOOTH",
"1006 528 OFFCURVE",
"1102 578 OFFCURVE",
"1207 578 CURVE SMOOTH",
"1292 578 OFFCURVE",
"1364 537 OFFCURVE",
"1364 465 CURVE SMOOTH",
"1364 398 OFFCURVE",
"1304 345 OFFCURVE",
"1304 278 CURVE SMOOTH",
"1304 226 OFFCURVE",
"1346 180 OFFCURVE",
"1403 163 CURVE",
"1346 145 OFFCURVE",
"1304 100 OFFCURVE",
"1304 48 CURVE SMOOTH",
"1304 -19 OFFCURVE",
"1364 -73 OFFCURVE",
"1364 -140 CURVE SMOOTH",
"1364 -212 OFFCURVE",
"1292 -253 OFFCURVE",
"1207 -253 CURVE SMOOTH",
"1128 -253 OFFCURVE",
"1055 -224 OFFCURVE",
"979 -211 CURVE SMOOTH",
"953 -206 OFFCURVE",
"927 -203 OFFCURVE",
"901 -203 CURVE SMOOTH",
"847 -203 OFFCURVE",
"776 -223 OFFCURVE",
"748 -267 CURVE"
);
},
{
closed = 1;
nodes = (
"776 -189 OFFCURVE",
"835 -171 OFFCURVE",
"890 -171 CURVE SMOOTH",
"951 -171 OFFCURVE",
"1009 -188 OFFCURVE",
"1067 -201 CURVE SMOOTH",
"1103 -209 OFFCURVE",
"1138 -216 OFFCURVE",
"1176 -216 CURVE SMOOTH",
"1255 -216 OFFCURVE",
"1326 -178 OFFCURVE",
"1326 -110 CURVE SMOOTH",
"1326 -49 OFFCURVE",
"1270 0 OFFCURVE",
"1270 59 CURVE SMOOTH",
"1270 112 OFFCURVE",
"1315 146 OFFCURVE",
"1369 163 CURVE",
"1315 179 OFFCURVE",
"1270 214 OFFCURVE",
"1270 266 CURVE SMOOTH",
"1270 326 OFFCURVE",
"1326 374 OFFCURVE",
"1326 436 CURVE SMOOTH",
"1326 503 OFFCURVE",
"1255 541 OFFCURVE",
"1176 541 CURVE SMOOTH",
"1077 541 OFFCURVE",
"988 496 OFFCURVE",
"890 496 CURVE SMOOTH",
"835 496 OFFCURVE",
"776 515 OFFCURVE",
"748 558 CURVE",
"720 515 OFFCURVE",
"661 496 OFFCURVE",
"606 496 CURVE SMOOTH",
"508 496 OFFCURVE",
"419 541 OFFCURVE",
"320 541 CURVE SMOOTH",
"241 541 OFFCURVE",
"170 503 OFFCURVE",
"170 436 CURVE SMOOTH",
"170 374 OFFCURVE",
"226 326 OFFCURVE",
"226 266 CURVE SMOOTH",
"226 214 OFFCURVE",
"181 179 OFFCURVE",
"127 163 CURVE",
"181 146 OFFCURVE",
"226 112 OFFCURVE",
"226 59 CURVE SMOOTH",
"226 0 OFFCURVE",
"170 -49 OFFCURVE",
"170 -110 CURVE SMOOTH",
"170 -178 OFFCURVE",
"241 -216 OFFCURVE",
"320 -216 CURVE SMOOTH",
"419 -216 OFFCURVE",
"508 -171 OFFCURVE",
"606 -171 CURVE SMOOTH",
"661 -171 OFFCURVE",
"720 -189 OFFCURVE",
"748 -233 CURVE"
);
},
{
closed = 1;
nodes = (
"719 -180 OFFCURVE",
"655 -164 OFFCURVE",
"606 -164 CURVE SMOOTH",
"507 -164 OFFCURVE",
"419 -209 OFFCURVE",
"320 -209 CURVE SMOOTH",
"243 -209 OFFCURVE",
"178 -173 OFFCURVE",
"178 -110 CURVE SMOOTH",
"178 -51 OFFCURVE",
"234 -2 OFFCURVE",
"234 59 CURVE SMOOTH",
"234 105 OFFCURVE",
"199 144 OFFCURVE",
"149 163 CURVE",
"199 181 OFFCURVE",
"234 221 OFFCURVE",
"234 266 CURVE SMOOTH",
"234 327 OFFCURVE",
"178 376 OFFCURVE",
"178 436 CURVE SMOOTH",
"178 498 OFFCURVE",
"243 535 OFFCURVE",
"320 535 CURVE SMOOTH",
"419 535 OFFCURVE",
"507 490 OFFCURVE",
"606 490 CURVE SMOOTH",
"655 490 OFFCURVE",
"719 506 OFFCURVE",
"748 545 CURVE",
"777 506 OFFCURVE",
"842 490 OFFCURVE",
"890 490 CURVE SMOOTH",
"989 490 OFFCURVE",
"1077 535 OFFCURVE",
"1176 535 CURVE SMOOTH",
"1253 535 OFFCURVE",
"1318 498 OFFCURVE",
"1318 436 CURVE SMOOTH",
"1318 376 OFFCURVE",
"1262 327 OFFCURVE",
"1262 266 CURVE SMOOTH",
"1262 221 OFFCURVE",
"1297 181 OFFCURVE",
"1347 163 CURVE",
"1297 144 OFFCURVE",
"1262 105 OFFCURVE",
"1262 59 CURVE SMOOTH",
"1262 -2 OFFCURVE",
"1318 -51 OFFCURVE",
"1318 -110 CURVE SMOOTH",
"1318 -173 OFFCURVE",
"1253 -209 OFFCURVE",
"1176 -209 CURVE SMOOTH",
"1139 -209 OFFCURVE",
"1104 -203 OFFCURVE",
"1069 -195 CURVE SMOOTH",
"1011 -182 OFFCURVE",
"952 -164 OFFCURVE",
"890 -164 CURVE SMOOTH",
"842 -164 OFFCURVE",
"777 -180 OFFCURVE",
"748 -219 CURVE"
);
}
);
width = 1496;
}
);
note = panel7;
},
{
glyphname = H.ornm;
lastChange = "2021-11-03 00:41:46 +0000";
layers = (
{
layerId = "E44713F8-1D5D-4793-848D-DDEAC8E4A199";
paths = (
{
closed = 1;
nodes = (
"442 -312 LINE",
"442 -281 OFFCURVE",
"496 -264 OFFCURVE",
"535 -264 CURVE SMOOTH",
"596 -264 LINE SMOOTH",
"610 -264 OFFCURVE",
"617 -258 OFFCURVE",
"617 -241 CURVE SMOOTH",
"617 -237 OFFCURVE",
"617 -224 OFFCURVE",
"625 -224 CURVE SMOOTH",
"669 -224 LINE SMOOTH",
"699 -224 OFFCURVE",
"702 -198 OFFCURVE",
"702 -186 CURVE SMOOTH",
"702 30 LINE",
"728 57 OFFCURVE",
"747 95 OFFCURVE",
"761 131 CURVE SMOOTH",
"772 165 OFFCURVE",
"808 199 OFFCURVE",
"824 220 CURVE",
"811 238 OFFCURVE",
"774 278 OFFCURVE",
"768 304 CURVE SMOOTH",
"755 359 OFFCURVE",
"730 404 OFFCURVE",
"702 432 CURVE",
"702 508 LINE SMOOTH",
"702 520 OFFCURVE",
"699 545 OFFCURVE",
"669 545 CURVE SMOOTH",
"625 545 LINE SMOOTH",
"617 545 OFFCURVE",
"617 557 OFFCURVE",
"617 562 CURVE SMOOTH",
"617 579 OFFCURVE",
"610 585 OFFCURVE",
"596 585 CURVE SMOOTH",
"535 585 LINE SMOOTH",
"496 585 OFFCURVE",
"443 602 OFFCURVE",
"443 634 CURVE",
"437 634 LINE",
"437 602 OFFCURVE",
"384 585 OFFCURVE",
"344 585 CURVE SMOOTH",
"283 585 LINE SMOOTH",
"269 585 OFFCURVE",
"262 579 OFFCURVE",
"262 562 CURVE SMOOTH",
"262 557 OFFCURVE",
"262 545 OFFCURVE",
"255 545 CURVE SMOOTH",
"209 545 LINE SMOOTH",
"181 545 OFFCURVE",
"176 520 OFFCURVE",
"176 508 CURVE SMOOTH",
"176 432 LINE",
"153 408 OFFCURVE",
"132 369 OFFCURVE",
"117 323 CURVE SMOOTH",
"107 293 OFFCURVE",
"71 245 OFFCURVE",
"54 220 CURVE",
"74 205 OFFCURVE",
"107 163 OFFCURVE",
"120 128 CURVE SMOOTH",
"133 92 OFFCURVE",
"153 56 OFFCURVE",
"176 30 CURVE",
"176 -186 LINE SMOOTH",
"176 -198 OFFCURVE",
"181 -224 OFFCURVE",
"209 -224 CURVE SMOOTH",
"255 -224 LINE SMOOTH",
"262 -224 OFFCURVE",
"262 -237 OFFCURVE",
"262 -241 CURVE SMOOTH",
"262 -258 OFFCURVE",
"269 -264 OFFCURVE",
"283 -264 CURVE SMOOTH",
"344 -264 LINE SMOOTH",
"384 -264 OFFCURVE",
"437 -281 OFFCURVE",
"437 -312 CURVE"
);
},
{
closed = 1;
nodes = (
"399 -156 OFFCURVE",
"399 -155 OFFCURVE",
"399 -153 CURVE SMOOTH",
"399 -151 OFFCURVE",
"399 -150 OFFCURVE",
"400 -149 CURVE",
"282 -153 LINE",
"282 -154 LINE",
"400 -158 LINE"
);
},
{
closed = 1;
nodes = (
"410 -162 OFFCURVE",
"413 -161 OFFCURVE",
"414 -158 CURVE",
"400 -158 LINE",
"402 -160 OFFCURVE",
"404 -162 OFFCURVE",
"407 -162 CURVE SMOOTH"
);
},
{
closed = 1;
nodes = (
"414 -148 LINE",
"413 -146 OFFCURVE",
"410 -145 OFFCURVE",
"407 -145 CURVE SMOOTH",
"404 -145 OFFCURVE",
"401 -146 OFFCURVE",
"400 -149 CURVE"
);
},
{
closed = 1;
nodes = (
"432 -148 LINE",
"414 -148 LINE",
"415 -150 OFFCURVE",
"416 -151 OFFCURVE",
"416 -153 CURVE SMOOTH",
"416 -155 OFFCURVE",
"415 -157 OFFCURVE",
"414 -158 CURVE",
"432 -159 LINE"
);
},
{
closed = 1;
nodes = (
"443 -168 OFFCURVE",
"446 -164 OFFCURVE",
"447 -158 CURVE",
"439 -159 LINE",
"432 -159 LINE",
"433 -164 OFFCURVE",
"436 -168 OFFCURVE",
"440 -168 CURVE SMOOTH"
);
},
{
closed = 1;
nodes = (
"447 -148 LINE",
"446 -143 OFFCURVE",
"443 -140 OFFCURVE",
"440 -140 CURVE SMOOTH",
"436 -140 OFFCURVE",
"433 -143 OFFCURVE",
"432 -148 CURVE"
);
},
{
closed = 1;
nodes = (
"461 -158 LINE",
"460 -156 OFFCURVE",
"460 -155 OFFCURVE",
"460 -153 CURVE SMOOTH",
"460 -151 OFFCURVE",
"460 -150 OFFCURVE",
"461 -149 CURVE",
"447 -148 LINE",
"448 -150 OFFCURVE",
"448 -152 OFFCURVE",
"448 -154 CURVE SMOOTH",
"448 -155 OFFCURVE",
"448 -157 OFFCURVE",
"447 -158 CURVE"
);
},
{
closed = 1;
nodes = (
"471 -162 OFFCURVE",
"474 -160 OFFCURVE",
"476 -157 CURVE",
"461 -158 LINE",
"463 -160 OFFCURVE",
"466 -162 OFFCURVE",
"469 -162 CURVE SMOOTH"
);
},
{
closed = 1;
nodes = (
"80 211 OFFCURVE",
"74 216 OFFCURVE",
"74 223 CURVE SMOOTH",
"74 230 OFFCURVE",
"80 236 OFFCURVE",
"87 236 CURVE SMOOTH",
"93 236 OFFCURVE",
"99 230 OFFCURVE",
"99 223 CURVE SMOOTH",
"99 216 OFFCURVE",
"93 211 OFFCURVE",
"87 211 CURVE SMOOTH"
);
},
{
closed = 1;
nodes = (
"476 -149 LINE",
"474 -147 OFFCURVE",
"472 -145 OFFCURVE",
"469 -145 CURVE SMOOTH",
"466 -145 OFFCURVE",
"463 -146 OFFCURVE",
"461 -149 CURVE"
);
},
{
closed = 1;
nodes = (
"593 -154 LINE",
"593 -153 LINE",
"476 -149 LINE",
"477 -153 LINE",
"476 -157 LINE"
);
},
{
closed = 1;
nodes = (
"420 -262 OFFCURVE",
"372 -252 OFFCURVE",
"343 -252 CURVE SMOOTH",
"277 -252 LINE",
"276 -250 OFFCURVE",
"275 -246 OFFCURVE",
"275 -245 CURVE SMOOTH",
"275 -231 OFFCURVE",
"271 -212 OFFCURVE",
"253 -212 CURVE SMOOTH",
"207 -212 LINE SMOOTH",
"192 -212 OFFCURVE",
"189 -202 OFFCURVE",
"189 -190 CURVE SMOOTH",
"189 36 LINE",
"149 77 OFFCURVE",
"113 164 OFFCURVE",
"113 221 CURVE SMOOTH",
"113 292 OFFCURVE",
"137 376 OFFCURVE",
"189 427 CURVE",
"189 512 LINE SMOOTH",
"189 522 OFFCURVE",
"192 534 OFFCURVE",
"207 534 CURVE SMOOTH",
"253 534 LINE SMOOTH",
"271 534 OFFCURVE",
"275 553 OFFCURVE",
"275 566 CURVE SMOOTH",
"276 574 LINE",
"343 574 LINE SMOOTH",
"372 574 OFFCURVE",
"420 584 OFFCURVE",
"440 612 CURVE",
"458 584 OFFCURVE",
"507 574 OFFCURVE",
"536 574 CURVE SMOOTH",
"602 574 LINE",
"604 572 OFFCURVE",
"604 568 OFFCURVE",
"604 566 CURVE SMOOTH",
"604 553 OFFCURVE",
"608 534 OFFCURVE",
"627 534 CURVE SMOOTH",
"671 534 LINE SMOOTH",
"687 534 OFFCURVE",
"690 522 OFFCURVE",
"690 512 CURVE SMOOTH",
"690 427 LINE",
"742 376 OFFCURVE",
"765 292 OFFCURVE",
"765 221 CURVE SMOOTH",
"765 164 OFFCURVE",
"731 77 OFFCURVE",
"690 36 CURVE",
"690 -190 LINE SMOOTH",
"690 -202 OFFCURVE",
"687 -212 OFFCURVE",
"671 -212 CURVE SMOOTH",
"627 -212 LINE SMOOTH",
"608 -212 OFFCURVE",
"604 -231 OFFCURVE",
"604 -245 CURVE SMOOTH",
"604 -246 OFFCURVE",
"604 -250 OFFCURVE",
"602 -252 CURVE",
"536 -252 LINE SMOOTH",
"507 -252 OFFCURVE",
"458 -262 OFFCURVE",
"440 -290 CURVE"
);
},
{
closed = 1;
nodes = (
"616 -59 OFFCURVE",
"759 70 OFFCURVE",
"759 231 CURVE SMOOTH",
"759 391 OFFCURVE",
"616 521 OFFCURVE",
"440 521 CURVE SMOOTH",
"263 521 OFFCURVE",
"121 391 OFFCURVE",
"121 231 CURVE SMOOTH",
"121 70 OFFCURVE",
"263 -59 OFFCURVE",
"440 -59 CURVE SMOOTH"
);
},
{
closed = 1;
nodes = (
"265 -38 OFFCURVE",
"124 83 OFFCURVE",
"124 232 CURVE SMOOTH",
"124 380 OFFCURVE",
"265 501 OFFCURVE",
"440 501 CURVE SMOOTH",
"614 501 OFFCURVE",
"755 380 OFFCURVE",
"755 232 CURVE SMOOTH",
"755 83 OFFCURVE",
"614 -38 OFFCURVE",
"440 -38 CURVE SMOOTH"
);
},
{
closed = 1;
nodes = (
"787 211 OFFCURVE",
"781 216 OFFCURVE",
"781 223 CURVE SMOOTH",
"781 230 OFFCURVE",
"787 236 OFFCURVE",
"793 236 CURVE SMOOTH",
"800 236 OFFCURVE",
"805 230 OFFCURVE",
"805 223 CURVE SMOOTH",
"805 216 OFFCURVE",
"800 211 OFFCURVE",
"793 211 CURVE SMOOTH"
);
}
);
width = 878;
}
);
note = panel8;
},
{
glyphname = I.ornm;
lastChange = "2021-11-03 00:41:46 +0000";
layers = (
{
layerId = "E44713F8-1D5D-4793-848D-DDEAC8E4A199";
paths = (
{
closed = 1;
nodes = (
"923 -309 OFFCURVE",
"1067 -253 OFFCURVE",
"1110 -175 CURVE",
"1146 -182 OFFCURVE",
"1177 -185 OFFCURVE",
"1204 -185 CURVE SMOOTH",
"1285 -185 OFFCURVE",
"1331 -158 OFFCURVE",
"1356 -121 CURVE SMOOTH",
"1381 -84 OFFCURVE",
"1385 -41 OFFCURVE",
"1384 2 CURVE",
"1441 26 OFFCURVE",
"1505 93 OFFCURVE",
"1505 165 CURVE SMOOTH",
"1505 237 OFFCURVE",
"1441 304 OFFCURVE",
"1384 328 CURVE",
"1384 338 OFFCURVE",
"1385 356 OFFCURVE",
"1382 375 CURVE SMOOTH",
"1369 483 OFFCURVE",
"1289 515 OFFCURVE",
"1202 515 CURVE SMOOTH",
"1171 515 OFFCURVE",
"1140 511 OFFCURVE",
"1110 505 CURVE",
"1067 582 OFFCURVE",
"923 639 OFFCURVE",
"778 639 CURVE SMOOTH",
"632 639 OFFCURVE",
"488 582 OFFCURVE",
"445 505 CURVE",
"409 512 OFFCURVE",
"378 515 OFFCURVE",
"351 515 CURVE SMOOTH",
"270 515 OFFCURVE",
"225 488 OFFCURVE",
"200 451 CURVE SMOOTH",
"174 414 OFFCURVE",
"170 372 OFFCURVE",
"171 328 CURVE",
"114 304 OFFCURVE",
"50 237 OFFCURVE",
"50 165 CURVE SMOOTH",
"50 93 OFFCURVE",
"114 26 OFFCURVE",
"171 2 CURVE",
"171 -9 OFFCURVE",
"170 -25 OFFCURVE",
"173 -46 CURVE SMOOTH",
"187 -154 OFFCURVE",
"266 -185 OFFCURVE",
"352 -185 CURVE SMOOTH",
"383 -185 OFFCURVE",
"415 -181 OFFCURVE",
"445 -175 CURVE",
"488 -253 OFFCURVE",
"632 -309 OFFCURVE",
"778 -309 CURVE SMOOTH"
);
},
{
closed = 1;
nodes = (
"691 -296 OFFCURVE",
"504 -265 OFFCURVE",
"452 -160 CURVE",
"425 -165 OFFCURVE",
"389 -171 OFFCURVE",
"353 -171 CURVE SMOOTH",
"298 -171 OFFCURVE",
"242 -158 OFFCURVE",
"210 -112 CURVE SMOOTH",
"185 -76 OFFCURVE",
"184 -35 OFFCURVE",
"184 7 CURVE SMOOTH",
"184 12 LINE",
"128 33 OFFCURVE",
"63 95 OFFCURVE",
"63 165 CURVE SMOOTH",
"63 236 OFFCURVE",
"128 296 OFFCURVE",
"184 317 CURVE",
"184 323 LINE SMOOTH",
"184 332 OFFCURVE",
"184 352 OFFCURVE",
"186 374 CURVE SMOOTH",
"199 473 OFFCURVE",
"271 501 OFFCURVE",
"351 501 CURVE SMOOTH",
"385 501 OFFCURVE",
"420 496 OFFCURVE",
"452 489 CURVE",
"455 494 LINE SMOOTH",
"490 567 OFFCURVE",
"630 625 OFFCURVE",
"778 625 CURVE SMOOTH",
"864 625 OFFCURVE",
"1051 595 OFFCURVE",
"1103 489 CURVE",
"1131 495 OFFCURVE",
"1168 501 OFFCURVE",
"1205 501 CURVE SMOOTH",
"1258 501 OFFCURVE",
"1313 488 OFFCURVE",
"1345 443 CURVE SMOOTH",
"1370 406 OFFCURVE",
"1371 366 OFFCURVE",
"1371 323 CURVE SMOOTH",
"1371 317 LINE",
"1427 296 OFFCURVE",
"1492 236 OFFCURVE",
"1492 165 CURVE SMOOTH",
"1492 95 OFFCURVE",
"1427 33 OFFCURVE",
"1371 12 CURVE",
"1371 7 LINE SMOOTH",
"1371 -2 OFFCURVE",
"1372 -22 OFFCURVE",
"1369 -44 CURVE SMOOTH",
"1356 -144 OFFCURVE",
"1283 -171 OFFCURVE",
"1203 -171 CURVE SMOOTH",
"1170 -171 OFFCURVE",
"1135 -166 OFFCURVE",
"1103 -160 CURVE",
"1051 -265 OFFCURVE",
"864 -296 OFFCURVE",
"778 -296 CURVE SMOOTH"
);
},
{
closed = 1;
nodes = (
"909 -267 OFFCURVE",
"1055 -204 OFFCURVE",
"1100 -131 CURVE",
"1132 -137 OFFCURVE",
"1163 -141 OFFCURVE",
"1191 -141 CURVE SMOOTH",
"1281 -141 OFFCURVE",
"1345 -103 OFFCURVE",
"1338 14 CURVE",
"1390 37 OFFCURVE",
"1447 98 OFFCURVE",
"1447 165 CURVE SMOOTH",
"1447 231 OFFCURVE",
"1390 292 OFFCURVE",
"1338 315 CURVE",
"1345 433 OFFCURVE",
"1280 470 OFFCURVE",
"1190 470 CURVE SMOOTH",
"1162 470 OFFCURVE",
"1132 467 OFFCURVE",
"1100 461 CURVE",
"1055 533 OFFCURVE",
"909 598 OFFCURVE",
"778 598 CURVE SMOOTH",
"646 598 OFFCURVE",
"500 533 OFFCURVE",
"456 461 CURVE",
"424 467 OFFCURVE",
"394 470 OFFCURVE",
"366 470 CURVE SMOOTH",
"275 470 OFFCURVE",
"210 433 OFFCURVE",
"217 315 CURVE",
"165 292 OFFCURVE",
"108 231 OFFCURVE",
"108 165 CURVE SMOOTH",
"108 98 OFFCURVE",
"165 37 OFFCURVE",
"217 14 CURVE",
"210 -103 OFFCURVE",
"274 -141 OFFCURVE",
"365 -141 CURVE SMOOTH",
"393 -141 OFFCURVE",
"424 -137 OFFCURVE",
"456 -131 CURVE",
"500 -204 OFFCURVE",
"646 -267 OFFCURVE",
"778 -267 CURVE SMOOTH"
);
},
{
closed = 1;
nodes = (
"645 -240 OFFCURVE",
"505 -171 OFFCURVE",
"474 -110 CURVE SMOOTH",
"469 -101 LINE",
"447 -105 OFFCURVE",
"409 -113 OFFCURVE",
"370 -113 CURVE SMOOTH",
"326 -113 OFFCURVE",
"281 -103 OFFCURVE",
"259 -70 CURVE SMOOTH",
"246 -51 OFFCURVE",
"243 -30 OFFCURVE",
"243 -9 CURVE SMOOTH",
"243 2 OFFCURVE",
"244 13 OFFCURVE",
"244 24 CURVE SMOOTH",
"244 34 LINE",
"196 52 OFFCURVE",
"134 102 OFFCURVE",
"134 165 CURVE SMOOTH",
"134 227 OFFCURVE",
"196 279 OFFCURVE",
"244 296 CURVE",
"244 306 LINE SMOOTH",
"244 312 OFFCURVE",
"243 325 OFFCURVE",
"243 338 CURVE SMOOTH",
"243 422 OFFCURVE",
"302 443 OFFCURVE",
"366 443 CURVE SMOOTH",
"403 443 OFFCURVE",
"441 436 OFFCURVE",
"469 430 CURVE",
"518 529 OFFCURVE",
"693 570 OFFCURVE",
"778 570 CURVE SMOOTH",
"862 570 OFFCURVE",
"1037 529 OFFCURVE",
"1086 430 CURVE",
"1108 435 OFFCURVE",
"1147 442 OFFCURVE",
"1187 442 CURVE SMOOTH",
"1230 442 OFFCURVE",
"1274 433 OFFCURVE",
"1296 400 CURVE SMOOTH",
"1309 381 OFFCURVE",
"1312 360 OFFCURVE",
"1312 339 CURVE SMOOTH",
"1312 328 OFFCURVE",
"1311 317 OFFCURVE",
"1311 306 CURVE SMOOTH",
"1311 296 LINE",
"1359 279 OFFCURVE",
"1421 227 OFFCURVE",
"1421 165 CURVE SMOOTH",
"1421 102 OFFCURVE",
"1359 52 OFFCURVE",
"1311 34 CURVE",
"1311 24 LINE SMOOTH",
"1311 17 OFFCURVE",
"1312 5 OFFCURVE",
"1312 -8 CURVE SMOOTH",
"1312 -92 OFFCURVE",
"1252 -113 OFFCURVE",
"1187 -113 CURVE SMOOTH",
"1151 -113 OFFCURVE",
"1114 -107 OFFCURVE",
"1086 -101 CURVE",
"1037 -198 OFFCURVE",
"862 -240 OFFCURVE",
"778 -240 CURVE SMOOTH"
);
}
);
width = 1555;
}
);
note = panel9;
},
